<svg width="48" height="48" viewBox="0 0 48 48" fill="none" xmlns="http://www.w3.org/2000/svg">
    <g clip-path="url(#clip0_1160_16037)">
        <path fill-rule="evenodd" clip-rule="evenodd" d="M21.7062 0.0573768C16.1047 0.631946 11.0074 3.04493 7.04495 6.99789C-2.34832 16.3685 -2.34832 31.5705 7.04495 40.9412C13.427 47.308 22.7481 49.5729 31.307 46.8366C38.6406 44.4922 44.386 38.7942 46.7988 31.4729C47.5475 29.2009 47.8904 27.2727 47.983 24.8137C48.2337 18.1557 45.7075 11.7385 40.9713 7.00239C37.2543 3.28532 32.6155 0.966127 27.3337 0.18409C26.1868 0.0142325 22.8576 -0.0607073 21.7062 0.0573768ZM25.9269 2.86729C31.394 3.36842 36.6737 6.11699 40.1581 10.2759C42.2644 12.79 43.8383 15.8667 44.5764 18.9123C45.0342 20.8017 45.1481 21.8086 45.1481 23.9695C45.1481 26.1305 45.0342 27.1374 44.5764 29.0268C43.8906 31.8567 42.5199 34.6563 40.6349 37.077C40.3035 37.5025 40.0028 37.8507 39.9666 37.8507C39.9304 37.8507 38.5823 36.5318 36.971 34.9197L34.0412 31.9888L34.3056 31.3322C34.6662 30.4367 34.8571 29.7127 35.0235 28.6084C35.1882 27.5159 35.2092 25.491 35.0613 24.9588C34.9206 24.4514 34.4411 23.9909 33.9766 23.9166L33.6068 23.8575L34.0457 22.9825C34.5401 21.9965 34.8174 21.0651 35.0236 19.6979C35.1852 18.6247 35.21 16.5837 35.0674 16.0705C34.9353 15.5946 34.5726 15.189 34.154 15.049C33.6603 14.8838 31.2982 14.914 30.1576 15.1001C29.6473 15.1834 29.2196 15.2399 29.207 15.2258C29.1946 15.2116 29.2243 14.9257 29.2732 14.5903C29.6247 12.1786 28.3609 9.29298 25.8552 6.78629C24.262 5.19239 23.7629 5.19164 22.164 6.78057C19.6557 9.27337 18.3827 12.1728 18.7351 14.5903C18.7839 14.9257 18.8136 15.2117 18.801 15.226C18.7884 15.2402 18.3823 15.1879 17.8988 15.1098L17.0195 14.9675L13.5713 11.5202C11.6747 9.62406 10.1229 8.0432 10.1229 8.00699C10.1229 7.97088 10.4712 7.67037 10.8967 7.3392C15.2675 3.93811 20.5294 2.37254 25.9269 2.86729ZM24.5179 9.45524C25.5741 10.6519 26.2684 11.9933 26.4559 13.1993C26.5922 14.0755 26.4157 15.0341 25.9336 16.0363C25.5922 16.7462 24.6947 18.0228 24.251 18.4297L24.002 18.6581L23.6808 18.3468C22.7133 17.4091 21.7635 15.6705 21.5602 14.4649C21.3597 13.2761 21.7313 11.9253 22.6265 10.5885C23.0975 9.88527 23.8792 8.96283 24.0041 8.96283C24.0477 8.96283 24.2789 9.18436 24.5179 9.45524ZM10.7162 12.6982L13.3248 15.3079L13.1073 15.6761C12.9129 16.005 12.8866 16.1836 12.8594 17.3572C12.809 19.5347 13.1787 21.4194 13.9626 22.9825L14.4014 23.8575L14.0467 23.9142C13.5139 23.9995 13.072 24.437 12.9328 25.0172C12.7623 25.7279 12.8719 28.2682 13.124 29.45C13.9621 33.3789 16.3647 35.5715 20.5338 36.2121C21.0239 36.2873 21.6887 36.3492 22.011 36.3495L22.5972 36.3501V38.7924C22.5972 41.0053 22.6139 41.2675 22.7752 41.5835C22.9815 41.988 23.561 42.3528 23.9972 42.3528C24.469 42.3528 25.0087 42.0233 25.2222 41.6049C25.3971 41.262 25.411 41.0551 25.411 38.7924V36.3501L25.9972 36.3495C27.9107 36.3477 30.2193 35.664 31.6946 34.6621L32.2809 34.264L35.0831 37.065C36.6243 38.6056 37.8853 39.8957 37.8853 39.9319C37.8853 39.9682 37.5371 40.2689 37.1115 40.6004C34.6909 42.4853 31.8913 43.8561 29.0614 44.5419C27.1719 44.9997 26.1651 45.1135 24.0041 45.1135C21.8015 45.1135 20.804 44.9968 18.8456 44.51C14.6142 43.458 10.6228 40.9726 7.85015 37.6632C2.3561 31.1053 1.26099 22.0545 5.05281 14.5434C5.44345 13.7697 5.98998 12.7989 6.26741 12.3862C6.87828 11.4772 7.95079 10.0883 8.04177 10.0883C8.07797 10.0883 9.28151 11.2628 10.7162 12.6982ZM16.9268 17.8223C19.5568 18.0032 21.4283 19.3803 22.1576 21.6716C22.3323 22.2201 22.4658 22.9891 22.5553 23.961L22.6193 24.6559L21.6469 24.5961C17.8849 24.3643 15.9149 22.3685 15.6821 18.5527L15.6291 17.6846L15.9008 17.7276C16.0502 17.7512 16.5119 17.7938 16.9268 17.8223ZM32.322 18.5679C32.0706 22.3944 30.1121 24.3776 26.3672 24.598L25.4007 24.655L25.4498 24.195C25.4768 23.9421 25.5231 23.4749 25.5525 23.1569C25.582 22.8389 25.6917 22.2698 25.7963 21.8922C26.4885 19.3946 28.3111 18.0336 31.2938 17.7874C31.7982 17.7458 32.2489 17.7058 32.2954 17.6986C32.3439 17.6911 32.3553 18.0611 32.322 18.5679ZM17.8862 26.8793C20.7083 27.4349 22.1473 29.1667 22.4991 32.4306C22.5531 32.9315 22.5972 33.3916 22.5972 33.453C22.5972 33.6187 20.9398 33.4938 20.018 33.2588C17.2865 32.5624 15.8989 30.723 15.689 27.5202L15.629 26.6043L16.3228 26.6562C16.7044 26.6848 17.4079 26.7852 17.8862 26.8793ZM32.3195 27.5159C32.1096 30.7185 30.7192 32.563 27.9903 33.2588C27.0684 33.4938 25.411 33.6187 25.411 33.453C25.411 33.3916 25.4552 32.9315 25.5091 32.4306C25.7877 29.8461 26.7051 28.283 28.4346 27.4469C29.461 26.9506 30.4261 26.7358 32.2015 26.6085C32.3692 26.5965 32.3762 26.6504 32.3195 27.5159Z" fill="#16A34A"/>
    </g>
    <defs>
        <clipPath id="clip0_1160_16037">
            <rect width="48" height="48" fill="white"/>
        </clipPath>
    </defs>
</svg>
