<svg width="48" height="48" viewBox="0 0 48 48" fill="none" xmlns="http://www.w3.org/2000/svg">
    <g clip-path="url(#clip0_1667_26952)">
        <path fill-rule="evenodd" clip-rule="evenodd" d="M36.8786 0.0752148C36.2563 0.302813 35.8816 1.10828 36.0619 1.83059C36.1145 2.04119 36.8852 2.91856 38.0422 4.08494L39.9363 5.99451L36.8472 9.08409L33.7581 12.1737L30.7126 9.14412L27.6672 6.11456H27.0311C26.4874 6.11456 26.3389 6.17046 26.0101 6.49936C25.6856 6.824 25.6254 6.97956 25.6254 7.49516C25.6254 8.07153 25.6694 8.15332 26.3971 8.9314L27.169 9.75663L18.0323 18.9091C10.9251 26.0285 8.82579 28.2016 8.58172 28.6918C7.92354 30.0136 7.91041 31.3135 8.54134 32.6763L8.83654 33.3138L6.72795 35.4543L4.61948 37.5949V38.2233C4.61948 38.795 4.67199 38.9099 5.20139 39.4989L5.78318 40.1462L2.95951 42.9827C1.13349 44.817 0.105453 45.9423 0.049812 46.1677C-0.229267 47.2977 0.704996 48.2294 1.83657 47.95C2.05713 47.8955 3.20295 46.8475 5.01734 45.0408L7.85339 42.2167L8.50057 42.7986C9.08949 43.3281 9.2044 43.3806 9.77606 43.3806H10.4044L12.5446 41.2718L14.6848 39.1629L15.3223 39.4582C16.7118 40.1016 17.9545 40.0879 19.3111 39.4144C19.7959 39.1737 21.9925 37.0506 29.0874 29.9658L38.2385 20.8278L39.0636 21.5997C39.8416 22.3275 39.9233 22.3716 40.4996 22.3716C41.0151 22.3716 41.1707 22.3114 41.4953 21.9868C41.8241 21.658 41.88 21.5094 41.88 20.9657V20.3294L38.8509 17.2836L35.8218 14.2377L38.9109 11.1481L42 8.05853L43.9093 9.95297C45.0755 11.1101 45.9528 11.8809 46.1633 11.9336C47.2928 12.2157 48.2277 11.284 47.951 10.1522C47.8569 9.76801 38.7 0.48139 38.1039 0.165754C37.7655 -0.0135736 37.2296 -0.0530905 36.8786 0.0752148ZM32.7524 15.306L36.1891 18.7449L35.1667 19.7674L34.1443 20.79L33.3187 20.0175C32.5401 19.2891 32.4585 19.2452 31.8822 19.2452C31.3667 19.2452 31.2111 19.3054 30.8865 19.63C30.5619 19.9546 30.5018 20.1102 30.5018 20.6258C30.5018 21.2022 30.5457 21.2838 31.274 22.0626L32.0464 22.8883L31.0322 23.9025L30.0182 24.9168L29.1925 24.1443C28.4139 23.4159 28.3323 23.372 27.756 23.372C27.2405 23.372 27.0849 23.4321 26.7604 23.7568C26.4358 24.0814 26.3756 24.237 26.3756 24.7526C26.3756 25.329 26.4195 25.4106 27.1478 26.1893L27.9202 27.0151L26.906 28.0293L25.892 29.0436L25.0664 28.2711C24.2878 27.5427 24.2061 27.4988 23.6299 27.4988C23.1143 27.4988 22.9588 27.5589 22.6342 27.8836C22.3096 28.2082 22.2495 28.3638 22.2495 28.8794C22.2495 29.4557 22.2933 29.5374 23.0217 30.3161L23.794 31.1418L22.7799 32.156L21.7658 33.1703L20.9402 32.3979C20.1616 31.6694 20.08 31.6255 19.5037 31.6255C18.9882 31.6255 18.8326 31.6857 18.508 32.0103C18.1834 32.335 18.1233 32.4905 18.1233 33.0061C18.1233 33.5824 18.1673 33.6643 18.8943 34.4416L19.6654 35.266L18.8643 36.0743C17.9925 36.954 17.5006 37.1778 16.8417 36.995C16.5528 36.9148 15.6666 36.1124 13.7782 34.2214C10.9761 31.4156 10.7776 31.1378 11.0052 30.3439C11.0916 30.0427 13.4591 27.5997 20.155 20.9023C25.1233 15.9329 29.2169 11.867 29.2519 11.867C29.2869 11.867 30.8621 13.4146 32.7524 15.306ZM11.748 36.3166L12.5548 37.1308L11.1507 38.5353L9.74643 39.9398L8.90381 39.097L8.0612 38.2544L9.43284 36.8783C10.1872 36.1215 10.8352 35.5022 10.8727 35.5022C10.9103 35.5022 11.3041 35.8686 11.748 36.3166Z" fill="#16A34A"/>
    </g>
    <defs>
        <clipPath id="clip0_1667_26952">
            <rect width="48" height="48" fill="white"/>
        </clipPath>
    </defs>
</svg>
