<svg width="48" height="40" viewBox="0 0 48 40" fill="none" xmlns="http://www.w3.org/2000/svg">
    <path fill-rule="evenodd" clip-rule="evenodd" d="M12.6094 0.524926C6.27787 1.52027 1.67634 7.14836 1.99641 13.5056C2.07684 15.1049 2.46253 16.7119 3.12891 18.2245L3.28378 18.576H2.20069C1.30013 18.576 1.05516 18.6078 0.747563 18.7647C0.331594 18.977 0 19.5171 0 19.9823C0 20.4475 0.331594 20.9876 0.747563 21.1998C1.08478 21.3718 1.29797 21.3885 3.15919 21.3885H5.20088L14.2489 30.429C24.0867 40.2586 23.4608 39.6946 24.3516 39.5332C24.664 39.4766 25.709 38.4645 33.7511 30.429L42.7991 21.3885H44.8408C46.702 21.3885 46.9152 21.3718 47.2524 21.1998C47.6684 20.9876 48 20.4475 48 19.9823C48 19.5171 47.6684 18.977 47.2524 18.7647C46.9448 18.6078 46.6999 18.576 45.7993 18.576H44.7162L44.8711 18.2245C47.1213 13.1167 45.993 7.45436 41.9812 3.72039C40.1201 1.98836 37.8787 0.913613 35.2969 0.515363C34.1489 0.338363 32.084 0.388332 30.9844 0.619894C28.6471 1.11199 26.5882 2.18852 24.8439 3.83036L24 4.6249L23.1365 3.81199C21.2234 2.01114 18.981 0.915957 16.4062 0.524926C15.3387 0.362738 13.641 0.362832 12.6094 0.524926ZM16.3795 3.37961C17.8627 3.66846 19.1364 4.22205 20.3266 5.09524C20.6197 5.3103 21.3867 6.00011 22.0312 6.62814C22.6758 7.25618 23.2953 7.81783 23.4079 7.87614C23.6721 8.01302 24.3293 8.01264 24.5921 7.87539C24.7047 7.81661 25.3453 7.23649 26.0157 6.58633C27.8685 4.78924 29.0852 4.03821 31.0047 3.50683C31.8239 3.28005 32.0821 3.25277 33.4219 3.25146C34.6688 3.25014 35.0612 3.2853 35.7475 3.45939C38.1762 4.07543 40.2142 5.50661 41.5748 7.55149C43.7182 10.7726 43.7513 14.9071 41.6603 18.2195L41.4352 18.576H37.7453H34.0553L32.3916 15.9473C30.9577 13.6816 30.6782 13.2932 30.3677 13.1348C29.8985 12.8954 29.4771 12.9044 29.0265 13.1635C28.7007 13.3509 28.4165 13.8022 26.3261 17.451C25.0412 19.694 23.9604 21.5583 23.9246 21.5939C23.8887 21.6295 22.4883 18.9512 20.8125 15.6422C17.8887 9.8688 17.7504 9.61727 17.3906 9.41496C16.7168 9.03611 15.8944 9.22474 15.5324 9.84096C15.4386 10.0009 14.5685 12.0211 13.5989 14.3304L11.836 18.5291L9.20672 18.554L6.57731 18.5789L6.39412 18.3196C6.29334 18.177 6.04191 17.7229 5.83528 17.3104C3.51375 12.6741 5.18906 7.10711 9.70162 4.46252C11.5663 3.36977 14.1647 2.94836 16.3795 3.37961ZM22.1139 24.4334C22.6522 25.489 22.7841 25.6782 23.1094 25.8615C23.5846 26.1295 24.0413 26.1301 24.5047 25.8636C24.8308 25.676 25.1207 25.2146 27.2843 21.4385C28.613 19.12 29.7358 17.2128 29.7797 17.2004C29.8235 17.188 30.4017 18.0424 31.0646 19.0989C32.0855 20.7261 32.3251 21.048 32.6312 21.2042C32.9673 21.3757 33.194 21.3885 35.879 21.3885H38.7654L31.3827 28.7712L24 36.154L16.6173 28.7712L9.23456 21.3885H11.1367C12.8579 21.3885 13.0739 21.3706 13.4087 21.1998C13.8654 20.9667 13.8431 21.0101 15.3606 17.3953C16.0316 15.7965 16.6332 14.3733 16.6973 14.2326C16.809 13.9874 16.9112 14.1689 19.1537 18.5967C20.4406 21.1376 21.7727 23.7641 22.1139 24.4334Z" fill="#16A34A"/>
</svg>
