<svg width="48" height="48" viewBox="0 0 48 48" fill="none" xmlns="http://www.w3.org/2000/svg">
    <path fill-rule="evenodd" clip-rule="evenodd" d="M20.6743 0.0474362C18.587 0.285343 17.1478 0.600146 15.6234 1.1522C9.7821 3.26767 5.20851 8.40878 3.60618 14.6607C3.1117 16.5902 2.95969 17.7953 2.96119 19.7737C2.96513 24.705 4.58059 28.846 7.98087 32.6405C8.62182 33.3558 8.81481 33.6315 8.78002 33.7821C8.7548 33.8913 8.26107 36.8577 7.68285 40.374L6.63164 46.7673L6.83091 47.1789C6.96191 47.4494 7.1549 47.6605 7.3945 47.7952L7.75891 48H16.9845C25.7834 48 26.2251 47.9919 26.5368 47.8263C27.1442 47.5036 27.2187 47.2915 27.6596 44.6299L28.0659 42.1777L28.3086 42.2276C28.4422 42.255 29.4376 42.4302 30.5207 42.6169C33.3536 43.1053 34.3178 43.0252 35.9381 42.1667C36.6736 41.7771 37.6665 40.808 38.08 40.0764C38.2548 39.7672 39.0941 37.9791 39.9451 36.1029L41.4924 32.6916L42.3563 32.3847C43.3787 32.0215 43.7037 31.8317 44.2291 31.2903C45.1857 30.3048 45.5062 28.8337 45.0477 27.5339C44.9787 27.3387 44.2498 26.0508 43.4278 24.6719L41.9331 22.165L41.8783 19.9986C41.8482 18.807 41.7573 17.3573 41.6764 16.7768C40.3267 7.10006 31.9437 -0.111231 22.1753 0.00129897C21.5045 0.00898852 20.8291 0.0298066 20.6743 0.0474362ZM25.3881 3.07618C31.3365 4.17972 36.2742 8.45417 38.1663 14.138C38.8625 16.2292 39.0912 17.9847 39.0978 21.2861L39.1011 22.939L40.7484 25.6893C41.6543 27.2018 42.4156 28.5469 42.44 28.6781C42.4663 28.8199 42.4098 29.0363 42.3007 29.2113C42.1414 29.4669 41.9607 29.5578 40.9311 29.901C40.2788 30.1183 39.6429 30.3867 39.5181 30.4974C39.3788 30.6208 38.6618 32.0938 37.6629 34.3089C36.7674 36.2945 35.9229 38.1393 35.7862 38.4084C35.2808 39.4032 34.3598 40.0258 33.2871 40.0978C32.8326 40.1283 31.9807 40.0173 29.9385 39.6619C28.432 39.3997 27.0351 39.1852 26.8343 39.1852C26.3865 39.1852 25.889 39.4975 25.6825 39.9082C25.6002 40.0716 25.3483 41.3262 25.1226 42.6961L24.712 45.1868H17.2308C13.1161 45.1868 9.74956 45.1663 9.74956 45.1413C9.74956 45.1162 10.173 42.5527 10.6907 39.4444C11.433 34.9868 11.6189 33.6894 11.5709 33.3021C11.4712 32.4983 11.0769 31.8208 10.0827 30.7454C5.397 25.6768 4.41517 18.491 7.53947 12.1311C9.22151 8.70699 11.6999 6.16869 14.9541 4.53701C16.7373 3.64286 18.6595 3.07937 20.6743 2.86003C21.6058 2.75866 24.3564 2.88478 25.3881 3.07618ZM14.577 10.5738C14.1621 10.6782 13.7941 10.9469 13.613 11.2775C13.4817 11.5172 13.4483 11.895 13.4232 13.4227L13.3926 15.277L12.8605 15.5462C11.7934 16.0861 11.0735 16.9266 10.6853 18.0858C10.5142 18.597 10.487 18.8543 10.517 19.68C10.5566 20.772 10.7532 21.3436 11.3859 22.2056C11.7171 22.6568 12.56 23.3036 13.0938 23.5163L13.3904 23.6345L13.422 25.5422C13.4571 27.6594 13.476 27.7272 14.156 28.19C14.4594 28.3965 14.5224 28.401 17.1109 28.401C19.6994 28.401 19.7624 28.3965 20.0657 28.19C20.5299 27.8741 20.7049 27.5734 20.8082 26.9142C20.9243 26.1729 21.2227 25.7562 21.7941 25.538C22.3704 25.3179 22.9669 25.4131 23.4013 25.7946C23.8225 26.1643 23.8814 26.2824 23.9942 26.9822C24.0455 27.3008 24.1802 27.6917 24.2938 27.8511C24.6619 28.3682 24.8643 28.401 27.681 28.4009C31.372 28.4007 31.2566 28.4899 31.3004 25.6047L31.3297 23.6654L31.8333 23.4456C32.9133 22.9741 33.847 21.8263 34.175 20.5669C34.6908 18.5866 33.7227 16.4307 31.9188 15.5427L31.3178 15.2468V13.4249C31.3178 11.516 31.2961 11.3959 30.8702 10.939C30.4959 10.5376 29.9552 10.4704 27.3792 10.5056C25.2833 10.5342 25.0538 10.5533 24.7634 10.7245C24.3036 10.9952 24.1067 11.3084 24.0057 11.9294C23.8331 12.9897 23.3207 13.4908 22.4092 13.4908C22.0081 13.4908 21.7951 13.4375 21.5579 13.2776C21.1156 12.9797 20.815 12.499 20.815 12.0902C20.815 11.6045 20.4566 10.9531 20.0648 10.7266C19.7607 10.5509 19.5573 10.5356 17.2984 10.5197C15.9575 10.5102 14.7329 10.5345 14.577 10.5738ZM18.4299 13.8851C18.8251 14.7208 19.5941 15.4732 20.486 15.8968C21.1242 16.1998 21.3143 16.2448 22.1195 16.2836C23.1328 16.3324 23.8 16.1924 24.5893 15.7651C25.1925 15.4387 25.9828 14.5887 26.3387 13.8837L26.6318 13.3033H27.5626H28.4934L28.5225 15.1253C28.549 16.7939 28.5678 16.9691 28.7448 17.206C29.0608 17.6288 29.3609 17.7927 30.0039 17.8935C30.9167 18.0365 31.3938 18.4741 31.4811 19.2484C31.5905 20.2194 31.0043 20.937 29.9892 21.0748C29.325 21.1649 28.9162 21.4207 28.6901 21.8878C28.5267 22.2254 28.5045 22.4687 28.5045 23.9295V25.5878L27.5434 25.5869L26.5822 25.5858L26.3111 25.0035C25.7518 23.8018 24.4785 22.8892 23.0531 22.6684C21.1799 22.3782 19.2479 23.3789 18.4218 25.0675L18.1673 25.5878H17.1937H16.22L16.2197 23.8295C16.2194 22.2521 16.2005 22.0404 16.0366 21.7715C15.7871 21.3623 15.4936 21.1897 14.8765 21.0892C14.0972 20.9624 13.6996 20.7183 13.4332 20.2031C13.2434 19.836 13.2536 19.13 13.4551 18.7056C13.6513 18.2922 14.2693 17.8992 14.7279 17.8962C15.2053 17.8931 15.8136 17.579 16.0302 17.2238C16.2019 16.9422 16.2194 16.7531 16.2197 15.171C16.2198 14.2125 16.2482 13.4001 16.2826 13.3658C16.3169 13.3314 16.7523 13.3033 17.25 13.3033H18.1548L18.4299 13.8851Z" fill="#16A34A"/>
</svg>
