<svg width="48" height="48" viewBox="0 0 48 48" fill="none" xmlns="http://www.w3.org/2000/svg">
    <path fill-rule="evenodd" clip-rule="evenodd" d="M12.6094 4.52456C6.27787 5.5199 1.67634 11.148 1.99641 17.5053C2.07684 19.1046 2.46253 20.7115 3.12891 22.2241L3.28378 22.5757H2.20069C1.30013 22.5757 1.05516 22.6074 0.747563 22.7644C0.331594 22.9766 0 23.5167 0 23.9819C0 24.4471 0.331594 24.9872 0.747563 25.1994C1.08478 25.3715 1.29797 25.3882 3.15919 25.3882H5.20088L14.2489 34.4287C24.0867 44.2582 23.4608 43.6942 24.3516 43.5328C24.664 43.4762 25.709 42.4642 33.7511 34.4287L42.7991 25.3882H44.8408C46.702 25.3882 46.9152 25.3715 47.2524 25.1994C47.6684 24.9872 48 24.4471 48 23.9819C48 23.5167 47.6684 22.9766 47.2524 22.7644C46.9448 22.6074 46.6999 22.5757 45.7993 22.5757H44.7162L44.8711 22.2241C47.1213 17.1163 45.993 11.454 41.9812 7.72003C40.1201 5.988 37.8787 4.91325 35.2969 4.515C34.1489 4.338 32.084 4.38797 30.9844 4.61953C28.6471 5.11162 26.5882 6.18815 24.8439 7.83L24 8.62453L23.1365 7.81162C21.2234 6.01078 18.981 4.91559 16.4062 4.52456C15.3387 4.36237 13.641 4.36247 12.6094 4.52456ZM16.3795 7.37925C17.8627 7.66809 19.1364 8.22168 20.3266 9.09487C20.6197 9.30993 21.3867 9.99975 22.0312 10.6278C22.6758 11.2558 23.2953 11.8175 23.4079 11.8758C23.6721 12.0127 24.3293 12.0123 24.5921 11.875C24.7047 11.8162 25.3453 11.2361 26.0157 10.586C27.8685 8.78887 29.0852 8.03784 31.0047 7.50647C31.8239 7.27968 32.0821 7.2524 33.4219 7.25109C34.6688 7.24978 35.0612 7.28493 35.7475 7.45903C38.1762 8.07506 40.2142 9.50625 41.5748 11.5511C43.7182 14.7723 43.7513 18.9067 41.6603 22.2191L41.4352 22.5757H37.7453H34.0553L32.3916 19.9469C30.9577 17.6812 30.6782 17.2928 30.3677 17.1344C29.8985 16.8951 29.4771 16.9041 29.0265 17.1631C28.7007 17.3505 28.4165 17.8018 26.3261 21.4507C25.0412 23.6936 23.9604 25.5579 23.9246 25.5936C23.8887 25.6291 22.4883 22.9508 20.8125 19.6418C17.8887 13.8684 17.7504 13.6169 17.3906 13.4146C16.7168 13.0357 15.8944 13.2244 15.5324 13.8406C15.4386 14.0005 14.5685 16.0207 13.5989 18.33L11.836 22.5288L9.20672 22.5536L6.57731 22.5786L6.39412 22.3192C6.29334 22.1767 6.04191 21.7225 5.83528 21.31C3.51375 16.6737 5.18906 11.1067 9.70162 8.46215C11.5663 7.3694 14.1647 6.948 16.3795 7.37925ZM22.1139 28.4331C22.6522 29.4886 22.7841 29.6779 23.1094 29.8612C23.5846 30.1291 24.0413 30.1297 24.5047 29.8632C24.8308 29.6756 25.1207 29.2142 27.2843 25.4381C28.613 23.1196 29.7358 21.2124 29.7797 21.2001C29.8235 21.1877 30.4017 22.042 31.0646 23.0985C32.0855 24.7257 32.3251 25.0477 32.6312 25.2038C32.9673 25.3753 33.194 25.3882 35.879 25.3882H38.7654L31.3827 32.7709L24 40.1536L16.6173 32.7709L9.23456 25.3882H11.1367C12.8579 25.3882 13.0739 25.3702 13.4087 25.1994C13.8654 24.9664 13.8431 25.0098 15.3606 21.395C16.0316 19.7962 16.6332 18.3729 16.6973 18.2322C16.809 17.9871 16.9112 18.1686 19.1537 22.5964C20.4406 25.1373 21.7727 27.7638 22.1139 28.4331Z" fill="#16A34A"/>
</svg>
