<svg width="48" height="48" viewBox="0 0 48 48" fill="none" xmlns="http://www.w3.org/2000/svg">
    <g clip-path="url(#clip0_1160_4848)">
        <path fill-rule="evenodd" clip-rule="evenodd" d="M26.2157 0.193312C25.6131 0.511406 25.4881 0.896625 25.4881 2.43375V3.75H24.6406C23.5963 3.75 23.1499 3.93788 22.8643 4.49756C22.6785 4.86188 22.6756 5.02894 22.6756 15.4688C22.6756 25.9086 22.6785 26.0756 22.8643 26.4399C22.9858 26.6782 23.1849 26.8773 23.4231 26.9988C23.7862 27.184 23.9583 27.1875 32.707 27.1875C40.4936 27.1875 41.7124 27.1687 42.3434 27.0382C44.9387 26.5022 46.9706 24.5976 47.7733 21.9486C47.9173 21.4732 47.9359 20.615 47.9639 13.1513C47.9944 4.96838 47.9928 4.87678 47.8026 4.50412C47.5135 3.93731 47.0716 3.75 46.0231 3.75H45.1756V2.43375C45.1756 1.29956 45.1494 1.06631 44.9869 0.747563C44.7746 0.331594 44.2345 0 43.7693 0C43.3041 0 42.764 0.331594 42.5518 0.747563C42.3892 1.06631 42.3631 1.29956 42.3631 2.43375V3.75H39.5506H36.7381V2.43375C36.7381 0.878719 36.6143 0.507 35.9905 0.188719C35.5219 -0.0503437 35.1417 -0.0503437 34.6731 0.188719C34.0493 0.507 33.9256 0.878719 33.9256 2.43375V3.75H31.1131H28.3006V2.43375C28.3006 1.29956 28.2744 1.06631 28.1119 0.747563C27.7659 0.0694688 26.9191 -0.178031 26.2157 0.193312ZM45.1756 7.96875V9.375H35.3318H25.4881V7.96875V6.5625H35.3318H45.1756V7.96875ZM45.1756 15.4688V18.75H42.9218C40.8481 18.75 40.6385 18.7651 40.2981 18.9387C40.0599 19.0602 39.8608 19.2593 39.7393 19.4976C39.5657 19.838 39.5506 20.0475 39.5506 22.1213V24.375H32.5193H25.4881V18.2812V12.1875H35.3318H45.1756V15.4688ZM44.84 21.7734C44.7414 22.0845 44.3508 22.69 44.0161 23.0508C43.6964 23.3953 42.9104 23.9346 42.574 24.0401L42.3631 24.1064V22.8344V21.5625H43.635H44.907L44.84 21.7734ZM3.22245 21.8832C2.43307 22.0808 1.84216 22.4181 1.24695 23.011C-0.416648 24.6683 -0.415523 27.261 1.24957 28.926C2.07457 29.751 3.1317 30.1875 4.3047 30.1875H4.76838L8.03838 35.091C10.3419 38.5455 11.4388 40.1095 11.7501 40.3836C12.6028 41.134 13.5207 41.4347 14.9646 41.4364L15.9256 41.4375V43.3125V45.1875H14.6093C13.4751 45.1875 13.2419 45.2137 12.9231 45.3762C12.5072 45.5885 12.1756 46.1286 12.1756 46.5938C12.1756 47.0589 12.5072 47.599 12.9231 47.8113C13.2623 47.9842 13.4733 48 15.4568 48C17.4404 48 17.6513 47.9842 17.9905 47.8113C18.2287 47.6898 18.4279 47.4907 18.5494 47.2524C18.7257 46.9068 18.7381 46.7035 18.7381 44.16V41.4375H27.7381H36.7381V44.16C36.7381 46.7035 36.7504 46.9068 36.9268 47.2524C37.0483 47.4907 37.2474 47.6898 37.4856 47.8113C37.8248 47.9842 38.0358 48 40.0193 48C42.0029 48 42.2138 47.9842 42.553 47.8113C42.969 47.599 43.3006 47.0589 43.3006 46.5938C43.3006 46.1286 42.969 45.5885 42.553 45.3762C42.2343 45.2137 42.001 45.1875 40.8668 45.1875H39.5506V43.3125V41.4375H41.8428C43.1843 41.4375 44.3412 41.3937 44.6319 41.332C46.305 40.9767 47.6183 39.5977 47.9114 37.8886C48.2847 35.7116 46.8118 33.563 44.6319 33.1045C44.2797 33.0304 40.1524 33 30.4527 33H16.7703L13.5003 28.0965C11.1816 24.6194 10.1008 23.0788 9.78495 22.8008C9.29023 22.3654 8.57182 21.9937 7.94632 21.8495C7.3557 21.7133 3.80013 21.7387 3.22245 21.8832ZM7.64023 24.7266C7.94032 24.8689 8.45445 25.5926 11.5193 30.1875C14.5842 34.7824 15.0983 35.5061 15.3984 35.6484C15.7232 35.8025 16.6129 35.8125 29.9013 35.8125C43.9046 35.8125 44.062 35.8146 44.428 36.0012C44.844 36.2135 45.1756 36.7536 45.1756 37.2188C45.1756 37.6839 44.844 38.224 44.428 38.4363C44.0618 38.623 43.9063 38.625 29.1513 38.625C15.1486 38.625 14.2234 38.6151 13.8984 38.4609C13.5983 38.3186 13.0842 37.5949 10.0193 33C6.95445 28.4051 6.44032 27.6814 6.14023 27.5391C5.88185 27.4165 5.55495 27.375 4.8492 27.375C4.04388 27.375 3.84898 27.344 3.53023 27.1648C2.85382 26.7847 2.62938 26.0156 2.9891 25.3104C3.32407 24.6539 3.61216 24.5714 5.58645 24.5666C7.02448 24.5632 7.34885 24.5884 7.64023 24.7266Z" fill="#16A34A"/>
    </g>
    <defs>
        <clipPath id="clip0_1160_4848">
            <rect width="48" height="48" fill="white"/>
        </clipPath>
    </defs>
</svg>
