<svg width="48" height="48" viewBox="0 0 48 48" fill="none" xmlns="http://www.w3.org/2000/svg">
    <g clip-path="url(#clip0_1160_1785)">
        <path fill-rule="evenodd" clip-rule="evenodd" d="M18.0559 0.210931C17.7328 0.395806 17.505 0.744649 16.1132 3.18599C14.3208 6.33009 14.1974 6.65202 14.2733 7.9874C14.3124 8.67459 14.3735 8.9174 14.6573 9.51506C16.0062 12.3555 19.5378 13.0665 21.7975 10.9526C23.0315 9.79846 23.5229 8.13009 23.1063 6.51037C23.0084 6.12993 22.4595 5.06896 21.3863 3.18599C19.9948 0.744368 19.7673 0.395806 19.4441 0.210931C19.2428 0.0958057 18.9305 0.00158691 18.75 0.00158691C18.5695 0.00158691 18.2572 0.0958057 18.0559 0.210931ZM41.2031 0.457587C32.2747 3.7574 25.1938 9.64077 20.3181 17.811C19.0517 19.933 17.4008 23.6031 16.7658 25.7086L16.5469 26.4342L8.83219 26.4352C1.28625 26.436 1.10944 26.4401 0.747563 26.6247C0.509344 26.7462 0.310219 26.9453 0.188719 27.1836C0.0031875 27.5473 0 27.717 0 37.2172C0 46.7175 0.0031875 46.8872 0.188719 47.2509C0.310219 47.4892 0.509344 47.6883 0.747563 47.8098C1.11534 47.9974 1.25156 47.9985 24 47.9985C46.7484 47.9985 46.8847 47.9974 47.2524 47.8098C47.4907 47.6883 47.6898 47.4892 47.8113 47.2509C47.9968 46.8872 48 46.7175 48 37.2172C48 27.717 47.9968 27.5473 47.8113 27.1836C47.6898 26.9453 47.4907 26.7462 47.2524 26.6247C46.8918 26.4408 46.7125 26.436 40.1311 26.436H33.3797L33.4222 26.1782C33.9682 22.8696 34.5599 20.4194 35.4748 17.6787C37.1986 12.5151 39.728 7.68299 42.8553 3.57918C43.9585 2.1314 44.1528 1.80927 44.1548 1.42443C44.1584 0.683431 43.4662 -0.00750684 42.7303 0.00280566C42.5606 0.00514941 41.8734 0.209806 41.2031 0.457587ZM19.5874 5.69493C20.2691 6.8864 20.3826 7.14759 20.4116 7.59224C20.5277 9.37106 18.175 10.0362 17.271 8.48006C17.0993 8.18456 17.0617 8.00165 17.0884 7.59224C17.1174 7.14759 17.2309 6.8864 17.9126 5.69493C18.3473 4.93499 18.7242 4.31315 18.75 4.31315C18.7758 4.31315 19.1527 4.93499 19.5874 5.69493ZM37.9418 5.77752C35.8307 9.15815 33.9371 13.2331 32.6551 17.1547C31.0801 21.9728 30.1062 27.8891 30.0936 32.7172C30.0919 33.3724 30.0299 34.1785 29.9532 34.5454C29.5929 36.267 28.3013 37.9282 26.7188 38.7046C24.9144 39.59 23.0818 39.5903 21.2873 38.7058C19.817 37.981 18.5411 36.4428 18.1432 34.9155C17.8444 33.7678 18.0225 31.9657 18.7127 29.1547C21.0076 19.8092 26.7583 11.8108 34.8839 6.66318C36.0635 5.91599 38.5373 4.56712 38.6048 4.63443C38.622 4.65168 38.3237 5.16609 37.9418 5.77752ZM8.96231 9.58593C8.64019 9.77034 8.40712 10.1258 7.01175 12.561C5.01506 16.0453 4.79616 16.476 4.63472 17.2377C4.46812 18.0236 4.46878 18.5389 4.63725 19.3341C5.016 21.121 6.30637 22.5741 8.04469 23.1711C8.934 23.4765 10.3785 23.4765 11.2678 23.1711C12.9968 22.5773 14.2983 21.1129 14.6744 19.3379C14.9251 18.1548 14.8061 17.2386 14.2508 16.0766C14.0537 15.6641 13.1778 14.0821 12.3042 12.561C10.9071 10.1281 10.6719 9.77015 10.3502 9.58593C10.149 9.47081 9.83672 9.37659 9.65625 9.37659C9.47578 9.37659 9.1635 9.47081 8.96231 9.58593ZM10.7721 15.5669C11.36 16.6007 11.8837 17.6331 11.9358 17.8612C12.0691 18.4436 11.8878 19.1855 11.4824 19.7163C10.5921 20.8823 8.70581 20.8774 7.81275 19.7064C7.42828 19.2023 7.24612 18.4317 7.37672 17.8612C7.46109 17.4923 9.53916 13.6872 9.65625 13.6872C9.68203 13.6872 10.1842 14.5331 10.7721 15.5669ZM15.75 29.3833C15.75 29.4575 15.6903 29.7844 15.6173 30.1099C15.5444 30.4354 15.4351 31.0074 15.3745 31.3813L15.2643 32.061H9.03844H2.8125V30.6547V29.2485H9.28125C14.8447 29.2485 15.75 29.2673 15.75 29.3833ZM45.1875 30.6547V32.061H39.0439H32.9003L32.9543 31.0532C32.9841 30.4988 33.0302 29.866 33.0568 29.6469L33.1053 29.2485H39.1463H45.1875V30.6547ZM23.3213 32.3481C22.9255 32.557 22.5938 33.1101 22.5938 33.561C22.5938 33.7198 22.6787 34.0162 22.7825 34.2197C22.9947 34.6357 23.5348 34.9672 24 34.9672C24.7133 34.9672 25.4062 34.2743 25.4062 33.561C25.4062 33.0958 25.0747 32.5557 24.6587 32.3435C24.1968 32.1079 23.7737 32.1093 23.3213 32.3481ZM15.4059 35.544C15.8214 37.2752 16.9402 38.9977 18.4179 40.1815C22.5004 43.4518 28.4248 42.5919 31.3366 38.3065C31.8515 37.5487 32.4215 36.3023 32.6092 35.5238L32.7656 34.8748L38.9766 34.8741L45.1875 34.8735V40.0297V45.186H24H2.8125V40.0297V34.8735H9.02878H15.245L15.4059 35.544ZM6.44634 38.3481C6.05053 38.557 5.71875 39.1101 5.71875 39.561C5.71875 40.2743 6.41166 40.9672 7.125 40.9672C7.83834 40.9672 8.53125 40.2743 8.53125 39.561C8.53125 39.0958 8.19966 38.5557 7.78369 38.3435C7.32178 38.1079 6.89869 38.1093 6.44634 38.3481ZM40.1963 38.3481C39.8005 38.557 39.4688 39.1101 39.4688 39.561C39.4688 40.0262 39.8003 40.5663 40.2163 40.7785C40.4198 40.8823 40.7162 40.9672 40.875 40.9672C41.0338 40.9672 41.3302 40.8823 41.5337 40.7785C41.9497 40.5663 42.2812 40.0262 42.2812 39.561C42.2812 39.0958 41.9497 38.5557 41.5337 38.3435C41.0718 38.1079 40.6487 38.1093 40.1963 38.3481ZM12.0713 39.7543C11.6755 39.9633 11.3438 40.5164 11.3438 40.9672C11.3438 41.6806 12.0367 42.3735 12.75 42.3735C13.4633 42.3735 14.1562 41.6806 14.1562 40.9672C14.1562 40.5021 13.8247 39.962 13.4087 39.7497C12.9468 39.5141 12.5237 39.5155 12.0713 39.7543ZM34.5713 39.7543C34.1755 39.9633 33.8438 40.5164 33.8438 40.9672C33.8438 41.4324 34.1753 41.9725 34.5913 42.1848C34.7948 42.2886 35.0912 42.3735 35.25 42.3735C35.4088 42.3735 35.7052 42.2886 35.9087 42.1848C36.3247 41.9725 36.6562 41.4324 36.6562 40.9672C36.6562 40.5021 36.3247 39.962 35.9087 39.7497C35.4468 39.5141 35.0237 39.5155 34.5713 39.7543Z" fill="#16A34A"/>
    </g>
    <defs>
        <clipPath id="clip0_1160_1785">
            <rect width="48" height="48" fill="white"/>
        </clipPath>
    </defs>
</svg>
