<svg width="48" height="48" viewBox="0 0 48 48" fill="none" xmlns="http://www.w3.org/2000/svg">
    <g clip-path="url(#clip0_1160_4830)">
        <path fill-rule="evenodd" clip-rule="evenodd" d="M19.1301 0.0722176C18.3217 0.191749 16.9783 0.647264 16.2234 1.05784C15.3986 1.50641 14.3411 2.32409 13.7998 2.93178L13.3539 3.43243L12.7492 2.81356C11.1854 1.21274 9.22388 0.438975 7.02433 0.555035C3.60593 0.735553 0.783409 3.21307 0.135491 6.60189C-0.0271916 7.4525 -0.0496953 11.6829 0.102486 12.7784C0.310738 14.2764 0.886551 15.7901 1.74985 17.1089C1.94497 17.4071 2.48834 18.043 2.95726 18.522L3.80987 19.393L3.91151 20.0986C4.42544 23.6684 8.80775 25.1315 11.3541 22.5834C13.9024 20.0336 12.4384 15.6504 8.86663 15.1355C7.59789 14.9526 6.46587 15.2799 5.42066 16.1318L4.88639 16.5672L4.56496 16.1709C3.73683 15.1494 3.18361 13.9802 2.94967 12.7566C2.75726 11.7505 2.76073 7.62504 2.95454 6.88036C3.5357 4.64782 5.47805 3.2217 7.7376 3.36844C9.12486 3.45851 10.0952 3.99687 11.2153 5.29765L11.8864 6.07704L11.7177 6.61944C11.184 8.33519 11.2245 11.5236 11.8012 13.1981C11.8997 13.4839 12.9827 16.0101 14.2082 18.8118L16.4361 23.9058L15.7484 25.3231L15.0607 26.7404L15.8415 33.4077L16.6224 40.075L16.9813 40.7787C17.1786 41.1657 18.0938 42.8545 19.0149 44.5316C20.5303 47.2905 20.7248 47.6009 21.0586 47.7905C21.4155 47.9932 21.51 48 24.0059 48C26.502 48 26.5961 47.9933 26.9523 47.7905C27.2845 47.6012 27.4826 47.2852 28.9958 44.5316C29.9174 42.8545 30.833 41.1657 31.0304 40.7787L31.3893 40.075L32.1702 33.4077L32.9511 26.7404L32.2633 25.3231L31.5756 23.9058L33.8073 18.8081C35.0346 16.0045 36.1338 13.4141 36.2497 13.0518C36.7941 11.3521 36.8152 8.29466 36.2941 6.61944L36.1253 6.07704L36.7965 5.29765C37.9165 3.99687 38.8869 3.45851 40.2742 3.36844C42.1487 3.24666 43.8946 4.24719 44.684 5.8954C45.1748 6.92014 45.2168 7.28334 45.1736 10.1271C45.143 12.1353 45.1013 12.7982 44.9777 13.2413C44.7572 14.0319 44.0646 15.3942 43.5587 16.0326L43.1313 16.5721L42.5941 16.1342C41.5496 15.2829 40.3568 14.9449 39.0901 15.1411C35.5567 15.6884 34.1298 20.0541 36.6576 22.5834C39.1949 25.1223 43.5703 23.6763 44.0939 20.126L44.196 19.4337L45.0089 18.5893C45.4561 18.1249 46.0029 17.4756 46.2242 17.1466C46.8144 16.2688 47.4228 14.9217 47.7009 13.8772C47.9308 13.0138 47.9476 12.8002 47.9872 10.2429C48.0328 7.29713 47.9706 6.58069 47.5736 5.4792C47.203 4.45098 46.6228 3.54502 45.8091 2.72387C44.9307 1.83761 44.0903 1.31726 42.8387 0.884826C42.0146 0.600165 41.883 0.581869 40.6492 0.580555C39.0975 0.578867 38.5459 0.70262 37.2371 1.34588C36.5332 1.6919 36.187 1.94128 35.5109 2.58951L34.6651 3.40034L33.9534 2.68409C32.7809 1.50416 31.3854 0.70628 29.6482 0.222805C28.9637 0.0322486 28.7042 0.0215527 24.3341 0.00231881C21.7643 -0.00894006 19.4709 0.0218342 19.1301 0.0722176ZM29.3993 3.08387C31.6382 3.83897 33.2317 5.63898 33.7255 7.9705C33.9176 8.87787 33.8534 11.322 33.6178 12.0685C33.5283 12.3524 32.3627 15.0833 31.0277 18.1373C29.3919 21.8791 28.6004 23.7957 28.6004 24.0143C28.6004 24.229 28.8382 24.8194 29.3036 25.7606C29.7456 26.6544 30.0059 27.2944 30.0043 27.4834C30.003 27.6487 29.6947 30.3806 29.3193 33.5542L28.6368 39.3244L27.048 42.2241L25.4592 45.1237L25.4354 34.7021L25.4115 24.2803L28.0374 18.2752L30.6632 12.2701V9.7206C30.6632 6.91789 30.6301 6.72255 30.0899 6.33768C29.6772 6.04355 29.2574 6.01878 28.3935 6.23748C26.8261 6.63426 25.8125 6.75342 24.0059 6.75342C22.1992 6.75342 21.1857 6.63426 19.6182 6.23748C18.7544 6.01878 18.3346 6.04355 17.9218 6.33768C17.3816 6.72255 17.3485 6.91789 17.3485 9.7206V12.2701L19.9743 18.2752L22.6002 24.2803L22.5763 34.6907L22.5525 45.101L20.9631 42.2128L19.3736 39.3244L18.6917 33.5542C18.3167 30.3806 18.0087 27.6487 18.0074 27.4834C18.0058 27.2944 18.2661 26.6544 18.7081 25.7606C19.1736 24.8194 19.4114 24.229 19.4114 24.0143C19.4114 23.7957 18.6188 21.8767 16.9806 18.1294C15.6437 15.0711 14.4729 12.3191 14.3786 12.0137C14.2383 11.5587 14.2081 11.1459 14.2111 9.72294C14.2145 8.10542 14.2314 7.93748 14.4598 7.25744C15.0725 5.43303 16.5258 3.8673 18.1897 3.23896C19.3356 2.80625 19.5832 2.7887 24.2403 2.81L28.6473 2.83017L29.3993 3.08387ZM21.4273 9.45639C22.9852 9.67716 26.427 9.58221 27.6393 9.28516C27.8499 9.23356 27.8503 9.23544 27.8503 10.4565V11.6794L25.9608 16.0022C24.9215 18.3798 24.0419 20.325 24.0059 20.325C23.9699 20.325 23.0903 18.3798 22.051 16.0022L20.1615 11.6794V10.4565C20.1615 9.23544 20.1619 9.23356 20.3725 9.28516C20.4886 9.31359 20.9632 9.39071 21.4273 9.45639ZM8.95036 18.0719C9.64198 18.4098 9.99913 19.2521 9.75918 19.9795C9.61713 20.4104 9.01291 20.9539 8.58712 21.0339C8.01946 21.1404 7.59236 21.0019 7.16263 20.572C6.53338 19.9422 6.49362 19.1262 7.06071 18.4798C7.58992 17.8767 8.25641 17.7328 8.95036 18.0719ZM40.4555 18.0719C41.1471 18.4098 41.5043 19.2521 41.2643 19.9795C41.1223 20.4104 40.518 20.9539 40.0922 21.0339C39.5246 21.1404 39.0975 21.0019 38.6678 20.572C38.0385 19.9422 37.9987 19.1262 38.5658 18.4798C39.0951 17.8767 39.7615 17.7328 40.4555 18.0719Z" fill="#16A34A"/>
    </g>
    <defs>
        <clipPath id="clip0_1160_4830">
            <rect width="48" height="48" fill="white"/>
        </clipPath>
    </defs>
</svg>
