<svg width="48" height="48" viewBox="0 0 48 48" fill="none" xmlns="http://www.w3.org/2000/svg">
    <g clip-path="url(#clip0_1160_4725)">
        <path fill-rule="evenodd" clip-rule="evenodd" d="M16.7806 0.160291C15.5912 0.531626 14.8028 1.90303 15.068 3.13941C15.1275 3.41641 15.5494 4.33283 16.0491 5.27008C17.065 7.17504 17.1891 7.52003 17.3159 8.79007C17.4196 9.82868 17.5257 10.2093 17.8616 10.7463C18.074 11.0857 18.0818 11.145 17.9866 11.6917C17.8604 12.4168 17.8557 14.1364 17.9779 14.883C18.0284 15.1911 18.1724 15.6508 18.298 15.9045L18.5262 16.3657L18.3055 16.8445C18.184 17.1078 18.058 17.4077 18.0255 17.5108C17.9712 17.6826 17.9428 17.6709 17.687 17.3701C16.3318 15.7772 15.4604 14.0626 14.3271 10.7593C13.7564 9.09586 13.4331 8.51869 12.6967 7.84907C11.6469 6.89448 10.2208 6.32876 8.64861 6.24324C6.86404 6.14628 5.49273 6.64805 4.18781 7.8757C2.27881 9.67152 1.12918 12.5158 0.39701 17.2548C0.271637 18.066 0.125729 19.2362 0.0728422 19.8551C-0.376604 25.1139 0.780441 30.4707 3.53638 35.89C4.42149 37.6305 5.13584 38.6637 6.16188 39.6877C7.16355 40.6873 7.90209 41.164 9.02369 41.5345C9.68187 41.7518 9.92915 41.7827 11.0398 41.7859C13.0215 41.7918 14.3376 41.3254 15.5398 40.1914C16.3127 39.4622 16.5301 39.11 17.0726 37.7068C17.5758 36.4056 18.4478 34.5303 18.5497 34.5303C18.7428 34.5303 18.7195 34.7655 18.4774 35.2582C18.2138 35.7951 18.2133 35.8001 18.2133 37.7185C18.2133 39.6113 18.2172 39.6492 18.4666 40.1814L18.7199 40.7219L18.4666 41.2129C18.2155 41.6994 18.2133 41.7211 18.2133 43.6261C18.2133 45.5071 18.2186 45.5598 18.4604 46.0754C18.808 46.8168 19.3038 47.3251 20.0266 47.6808L20.6476 47.9865H23.9804H27.3132L27.934 47.6808C28.6565 47.3251 29.1525 46.8167 29.5001 46.0754C29.7418 45.5598 29.7472 45.5071 29.7472 43.6261C29.7472 41.7211 29.7449 41.6994 29.4939 41.2129L29.2405 40.7219L29.4939 40.1814C29.7432 39.6492 29.7472 39.6113 29.7472 37.7185C29.7472 35.8001 29.7466 35.7951 29.483 35.2582C29.241 34.7655 29.2176 34.5303 29.4107 34.5303C29.5136 34.5303 30.3878 36.4131 30.8911 37.7185C31.4138 39.0745 31.6211 39.4287 32.2646 40.0666C33.1586 40.9528 34.1749 41.4526 35.6079 41.711C39.216 42.3619 41.9839 40.5857 44.3139 36.1244C47.0993 30.7912 48.3397 25.1443 47.8876 19.8551C47.5851 16.3156 46.7864 12.8545 45.7842 10.7386C44.6207 8.28258 42.9548 6.76967 40.9402 6.33973C39.0315 5.93229 36.6856 6.55615 35.2637 7.84907C34.5071 8.53717 34.2131 9.08207 33.5011 11.1159C32.4676 14.068 31.759 15.4964 30.6077 16.9485C30.0864 17.6059 29.8878 17.7328 29.8878 17.4084C29.8878 17.3324 29.7852 17.0677 29.6599 16.8203L29.4319 16.3704L29.6614 15.9068C29.7875 15.6519 29.9321 15.1911 29.9825 14.883C30.1037 14.1428 30.1005 12.3831 29.9767 11.7137C29.8817 11.1994 29.8902 11.1555 30.2116 10.5008C30.4901 9.93352 30.561 9.65923 30.6416 8.83695C30.7709 7.51872 30.8883 7.18873 31.9091 5.27364C32.3902 4.37109 32.8297 3.42738 32.8859 3.17654C33.167 1.91925 32.3667 0.520373 31.1601 0.160385C30.4866 -0.0405669 27.4604 -0.0336278 26.8622 0.170137C26.1495 0.413005 25.6531 0.933436 25.1019 2.01565C24.5294 3.13978 24.3198 3.39822 23.9802 3.39822C23.6407 3.39822 23.431 3.13978 22.8585 2.01565C22.3073 0.933436 21.8109 0.413005 21.0982 0.170137C20.5294 -0.0236881 17.3927 -0.0309085 16.7806 0.160291ZM20.5935 3.74986C21.1852 4.92706 21.6596 5.4625 22.4594 5.85624C23.0345 6.13943 23.1582 6.16447 23.9802 6.16447C24.8022 6.16447 24.9259 6.13943 25.501 5.85624C26.3009 5.4625 26.7753 4.92706 27.367 3.74986L27.8265 2.83559H28.9041C29.4967 2.83559 29.9816 2.85284 29.9816 2.87394C29.9816 2.89504 29.6641 3.50183 29.276 4.22228C28.3367 5.96567 28.0413 6.80024 27.8882 8.14183C27.7234 9.58722 27.6627 9.65192 26.5327 9.58712C26.0829 9.56134 24.9343 9.54024 23.9802 9.54024C23.0261 9.54024 21.8775 9.56134 21.4278 9.58712C20.2977 9.65192 20.2371 9.58722 20.0722 8.14183C19.9192 6.80024 19.6237 5.96567 18.6845 4.22228C18.2964 3.50183 17.9789 2.89504 17.9789 2.87394C17.9789 2.85284 18.4637 2.83559 19.0564 2.83559H20.1339L20.5935 3.74986ZM9.28813 9.16468C10.7066 9.53414 11.0544 9.91026 11.6968 11.7694C12.704 14.684 13.3575 16.1066 14.4033 17.661C15.4547 19.224 16.6174 20.4357 18.1709 21.5876C20.3999 23.2403 23.3117 23.8153 26.2485 23.1827C28.3547 22.7291 29.9243 21.7626 31.9127 19.6949C33.8062 17.7259 34.8831 15.7644 36.2636 11.7694C36.6594 10.624 36.8227 10.2738 37.0891 9.99953C37.7082 9.36198 38.9156 8.96279 39.9663 9.04813C41.9097 9.20594 43.3794 11.2329 44.2669 14.979C44.5762 16.2845 44.9487 18.5982 45.0746 19.9957C45.45 24.1585 44.7209 28.2533 42.8125 32.7018C40.6764 37.6808 38.8237 39.4147 36.1385 38.947C35.3316 38.8066 34.7733 38.5613 34.313 38.1455C34.0103 37.872 33.8572 37.5948 33.4938 36.662C31.4014 31.2913 28.7733 28.2019 25.5743 27.3522C24.7604 27.1361 23.2016 27.1355 22.3915 27.3512C19.7017 28.0671 17.4312 30.339 15.5451 34.2021C15.1925 34.9241 14.7211 35.9934 14.4975 36.5783C14.2545 37.2136 13.9665 37.787 13.7818 38.0027C12.9235 39.0055 10.7576 39.3321 9.39953 38.6636C7.58683 37.7712 5.66855 34.6345 4.14777 30.0762C2.70388 25.748 2.4491 22.0492 3.26107 17.1993C4.30971 10.9358 6.23484 8.36941 9.28813 9.16468ZM26.9184 12.4593L27.2777 12.521L27.2466 13.5718C27.2254 14.2851 27.174 14.6723 27.0867 14.7774C26.972 14.9152 26.6331 14.9321 23.9802 14.9321C21.3273 14.9321 20.9884 14.9152 20.8738 14.7774C20.7864 14.6722 20.7351 14.2841 20.7138 13.5666L20.6825 12.5106L21.2764 12.4551C21.6031 12.4246 22.0181 12.3822 22.1986 12.361C22.6668 12.3058 26.4887 12.3855 26.9184 12.4593ZM7.57314 13.1541C6.23324 13.6359 5.42578 14.8952 5.52921 16.3418C5.58444 17.1132 5.8621 17.6466 6.35158 17.9217C6.79456 18.1707 7.19187 18.1737 7.66644 17.9316C8.19222 17.6633 8.43584 17.1527 8.39711 16.4004L8.36729 15.8229H9.07058C9.88132 15.8229 10.2519 15.6329 10.5125 15.0839C11.1867 13.6631 9.40703 12.4947 7.57314 13.1541ZM39.8449 13.9957C39.164 14.1518 38.7652 14.7796 38.8115 15.6229L38.843 16.198L38.1677 16.1997C37.4129 16.2017 37.1409 16.3377 36.7482 16.9099C36.3379 17.5078 36.6229 18.4635 37.3266 18.8484C37.5528 18.9722 37.8483 19.0111 38.5617 19.011C39.3975 19.011 39.5503 18.9839 39.9682 18.7611C40.5777 18.4362 41.1738 17.8149 41.4272 17.2401C41.8096 16.3731 41.754 15.0731 41.3106 14.5094C40.9756 14.0836 40.377 13.8738 39.8449 13.9957ZM26.9939 17.9244C27.1932 18.0856 27.2185 18.1919 27.2473 18.9875L27.2793 19.8715L26.8083 20.0741C25.1681 20.7798 22.7959 20.7813 21.1607 20.0779L20.6982 19.8789V19.0422C20.6982 18.279 20.7184 18.1854 20.9284 17.9754L21.1585 17.7452H23.9656C26.589 17.7452 26.7871 17.757 26.9939 17.9244ZM5.87785 21.5198C5.32741 21.8908 5.17897 22.2643 5.17954 23.2777C5.17991 24.07 5.20879 24.2234 5.44059 24.6641C6.10459 25.9266 7.36309 26.5621 8.77613 26.3486C9.41828 26.2515 9.75107 26.0769 10.0243 25.6938C10.3156 25.2855 10.3279 24.5308 10.0494 24.1578C9.66424 23.6419 9.40281 23.5202 8.67036 23.516L7.99221 23.5122V22.852C7.99221 22.3739 7.9456 22.1207 7.82304 21.9333C7.41401 21.3082 6.48502 21.1107 5.87785 21.5198ZM31.0002 23.4186C30.3806 23.618 29.7139 24.1076 29.3573 24.625C28.8174 25.4084 28.8238 26.1459 29.3752 26.6973C29.9937 27.3158 30.8343 27.2365 31.4636 26.5004C31.8855 26.0068 32.0696 26.0052 32.3732 26.4924C33.0807 27.6277 34.8794 27.0798 34.8794 25.7291C34.8794 24.9194 34.257 24.092 33.2817 23.6048C32.6567 23.2926 31.6473 23.2103 31.0002 23.4186ZM40.5777 23.4887C40.0887 23.8225 39.8994 24.2557 39.9664 24.8874C40.0347 25.5327 39.9821 25.579 39.2181 25.5453C38.4947 25.5134 38.1098 25.7352 37.8434 26.3374C37.6235 26.8345 37.6663 27.2836 37.975 27.7171C38.4683 28.4097 39.9386 28.6047 41.0016 28.1183C41.7232 27.7882 42.3772 27.1004 42.6452 26.3898C42.9046 25.7024 42.8734 24.5175 42.583 24.0201C42.1592 23.2946 41.2249 23.047 40.5777 23.4887ZM15.4486 23.5451C14.9085 23.8347 14.7438 24.1406 14.7431 24.8555C14.7427 25.1998 14.709 25.5332 14.6683 25.5967C14.6172 25.6763 14.4287 25.6963 14.0595 25.6611C13.6506 25.6222 13.449 25.6502 13.2032 25.7802C12.1714 26.3257 12.2175 27.7455 13.2841 28.2711C13.9214 28.5851 15.0242 28.5702 15.7327 28.2381C16.4748 27.8901 16.8989 27.4783 17.2502 26.7646C17.5194 26.218 17.5569 26.0496 17.5569 25.3896C17.5569 24.7989 17.5116 24.5455 17.3459 24.2093C16.9772 23.4611 16.1471 23.1705 15.4486 23.5451ZM24.8228 30.0816C25.4547 30.2305 26.0252 30.5175 26.6324 30.9919L26.9873 31.2691L26.9606 32.2173C26.9352 33.1225 26.9233 33.1709 26.6996 33.2839C26.3661 33.4523 21.5943 33.4523 21.2608 33.2839C21.0369 33.1708 21.0252 33.1228 20.9998 32.2124L20.9731 31.2593L21.4686 30.8853C22.2224 30.3164 23.1255 29.9727 23.9333 29.9471C24.0881 29.9423 24.4884 30.0028 24.8228 30.0816ZM10.5663 31.2762C9.65158 31.5357 8.73956 32.3837 8.45028 33.2438C8.20929 33.96 8.23742 34.8728 8.51779 35.4322C8.79555 35.9863 9.11306 36.2248 9.65383 36.2858C10.594 36.3918 11.3039 35.584 11.1291 34.6073C11.0347 34.0798 11.1234 34.0146 11.9337 34.0146H12.6469L13.0155 33.6197C13.3483 33.2631 13.3841 33.1767 13.3837 32.7289C13.3833 32.1028 13.1474 31.6977 12.6292 31.4335C12.1451 31.1865 11.1501 31.1106 10.5663 31.2762ZM37.086 31.6716C36.2285 31.9866 35.4872 32.7388 35.1821 33.6034C35.0202 34.0622 35.0135 35.2006 35.1701 35.6324C35.4276 36.3421 36.1772 36.7796 36.8201 36.5952C37.5908 36.3741 37.8988 35.9202 37.9027 34.9992L37.9053 34.3896L38.5638 34.3878C39.4754 34.3851 39.8846 34.0934 40.1179 33.2799C40.296 32.6589 39.8046 31.8754 39.0869 31.636C38.657 31.4926 37.5181 31.5128 37.086 31.6716ZM26.8684 36.3307C26.945 36.4073 26.9809 36.8546 26.9809 37.7319C26.9809 38.9574 26.9707 39.0279 26.7724 39.1666C26.4615 39.3845 21.4989 39.3845 21.188 39.1666C20.9898 39.0279 20.9795 38.9574 20.9795 37.7319C20.9795 36.8546 21.0154 36.4073 21.0921 36.3307C21.2528 36.17 26.7077 36.17 26.8684 36.3307ZM26.8838 42.3071C26.9372 42.4069 26.9809 43.026 26.9809 43.6829C26.9809 44.6627 26.9531 44.9081 26.8257 45.0487C26.6822 45.2073 26.4672 45.2202 23.9723 45.2202C21.6446 45.2202 21.254 45.2 21.1269 45.0729C21.008 44.954 20.9795 44.6898 20.9795 43.707C20.9795 43.0369 21.0232 42.4069 21.0766 42.3071C21.1692 42.134 21.3015 42.1258 23.9802 42.1258C26.659 42.1258 26.7912 42.134 26.8838 42.3071Z" fill="#16A34A"/>
    </g>
    <defs>
        <clipPath id="clip0_1160_4725">
            <rect width="48" height="48" fill="white"/>
        </clipPath>
    </defs>
</svg>
