<svg width="48" height="48" viewBox="0 0 48 48" fill="none" xmlns="http://www.w3.org/2000/svg">
    <g clip-path="url(#clip0_1160_4965)">
        <path fill-rule="evenodd" clip-rule="evenodd" d="M23.3018 0.207673C22.6421 0.585937 22.5888 0.798042 22.589 3.04118C22.5891 4.73015 22.6125 5.05843 22.7531 5.33815C23.2574 6.34194 24.7333 6.34194 25.2376 5.33815C25.3779 5.05881 25.4016 4.73118 25.4017 3.06238C25.4018 0.807607 25.3294 0.528456 24.6541 0.183949C24.1754 -0.0602252 23.7564 -0.0529112 23.3018 0.207673ZM12.6024 2.12684C11.7475 2.34082 11.37 3.35925 11.8183 4.24199C12.259 5.10982 13.6283 7.46323 13.8127 7.66971C14.2682 8.1801 15.0657 8.30847 15.6328 7.96274C16.0423 7.71303 16.3474 7.04249 16.2611 6.58218C16.1962 6.23589 14.3615 2.92866 14.0177 2.5383C13.6748 2.14878 13.1379 1.99275 12.6024 2.12684ZM34.4506 2.18545C34.2958 2.25699 34.0808 2.41584 33.9729 2.53849C33.6293 2.92838 31.7945 6.2358 31.7296 6.58218C31.6432 7.04249 31.9483 7.71303 32.3578 7.96274C32.9249 8.30847 33.7224 8.1801 34.178 7.66971C34.3623 7.46323 35.7316 5.10982 36.1723 4.24199C36.535 3.52775 36.3909 2.75294 35.8196 2.34607C35.4633 2.09233 34.816 2.01638 34.4506 2.18545ZM21.7449 11.6819C21.6159 11.7006 21.1307 11.7619 20.6665 11.8182C14.0288 12.6237 6.77952 16.3698 1.65767 21.6409C-0.552557 23.9157 -0.552557 24.0844 1.65767 26.3592C6.59208 31.4373 12.9464 34.8313 19.8328 36.0666C21.1183 36.2972 21.4376 36.3176 23.8547 36.3238C26.5987 36.3309 27.0451 36.2919 29.283 35.8496C34.1221 34.8931 39.1346 32.4639 43.5461 28.9373C44.7806 27.9504 47.5419 25.1887 47.7991 24.6836C48.2409 23.8162 48.0385 23.3963 46.333 21.6409C40.986 16.1381 33.79 12.5243 26.574 11.7184C25.7931 11.6312 22.28 11.6046 21.7449 11.6819ZM25.9196 14.6126C29.5133 15.3544 32.3068 18.0258 33.2972 21.6679C33.4789 22.3363 33.5106 22.6827 33.5106 24C33.5106 25.3174 33.4789 25.6638 33.2972 26.3322C32.35 29.8152 29.7733 32.3978 26.3469 33.2983C25.444 33.5356 23.546 33.627 22.5888 33.4793C17.8551 32.7491 14.4333 28.7718 14.4333 24C14.4333 19.3259 17.7171 15.4057 22.3544 14.5437C23.1927 14.3879 25 14.4229 25.9196 14.6126ZM36.701 17.8709C39.0254 19.1561 41.7598 21.1728 43.6355 22.9848L44.6714 23.9856L44.1556 24.5185C42.374 26.3593 39.3026 28.6644 36.676 30.1321C35.4694 30.8062 33.9016 31.5382 33.9952 31.3836C34.0339 31.3196 34.2418 30.9929 34.4571 30.6576C35.3359 29.2893 35.9726 27.637 36.2277 26.063C36.4136 24.9156 36.4129 22.9694 36.2262 21.8902C35.9542 20.3189 35.3178 18.6826 34.4571 17.3424C34.2418 17.0072 34.0339 16.6805 33.9952 16.6165C33.9043 16.4664 35.4922 17.2025 36.701 17.8709ZM13.962 16.6363C13.962 16.6605 13.7775 16.9663 13.5521 17.3161C12.9553 18.2416 12.5867 19.0144 12.228 20.0926C11.7888 21.412 11.6184 22.5042 11.6184 24C11.6184 26.4763 12.2432 28.6486 13.5335 30.6576C13.7488 30.9929 13.9555 31.3177 13.9928 31.3794C14.0906 31.5409 12.2642 30.6692 10.9795 29.9411C8.64777 28.6194 6.12482 26.7377 4.30392 24.9623L3.31926 24.0022L4.21006 23.1313C6.65021 20.7455 10.0441 18.3789 13.0562 16.9627C13.818 16.6045 13.962 16.5526 13.962 16.6363ZM22.8021 19.3621C20.6841 19.9325 19.2131 21.8335 19.2131 24C19.2131 26.6184 21.377 28.7823 23.9953 28.7823C27.0798 28.7823 29.4064 25.7976 28.634 22.8319C27.9698 20.2818 25.2952 18.6907 22.8021 19.3621ZM24.725 22.1765C25.46 22.4835 25.9603 23.2221 25.9603 24C25.9603 25.0606 25.0536 25.9692 23.9953 25.9692C22.6295 25.9692 21.65 24.5195 22.1718 23.2703C22.5901 22.269 23.7534 21.7706 24.725 22.1765ZM14.2902 39.9369C13.9574 40.0755 13.632 40.5219 12.8173 41.9568C11.7035 43.9187 11.6178 44.103 11.6178 44.5364C11.6178 45.779 13.1459 46.399 13.9791 45.4944C14.338 45.1049 16.1902 41.7962 16.2611 41.4179C16.3474 40.9576 16.0423 40.2871 15.6328 40.0374C15.3089 39.84 14.643 39.7901 14.2902 39.9369ZM32.3578 40.0374C31.9483 40.2871 31.6432 40.9576 31.7296 41.4179C31.8005 41.7962 33.6527 45.1049 34.0115 45.4944C34.4666 45.9884 35.2579 46.0539 35.8319 45.6452C36.3908 45.2472 36.5318 44.466 36.1723 43.7581C35.7316 42.8903 34.3623 40.5369 34.178 40.3304C33.7224 39.82 32.9249 39.6916 32.3578 40.0374ZM23.2356 42.1228C22.6414 42.5197 22.5891 42.7491 22.589 44.9589C22.5888 47.202 22.6421 47.4142 23.3018 47.7924C23.7564 48.053 24.1754 48.0603 24.6541 47.8161C25.3294 47.4716 25.4018 47.1925 25.4017 44.9377C25.4016 43.2689 25.3779 42.9413 25.2376 42.6619C25.0023 42.1935 24.5337 41.9099 23.9953 41.9099C23.6928 41.9099 23.4541 41.9768 23.2356 42.1228Z" fill="#16A34A"/>
    </g>
    <defs>
        <clipPath id="clip0_1160_4965">
            <rect width="48" height="48" fill="white"/>
        </clipPath>
    </defs>
</svg>
