<svg width="48" height="48" viewBox="0 0 48 48" fill="none" xmlns="http://www.w3.org/2000/svg">
    <g clip-path="url(#clip0_1160_5534)">
        <path fill-rule="evenodd" clip-rule="evenodd" d="M12.8487 0.149576C12.6692 0.240819 12.4265 0.458753 12.3095 0.634018L12.0966 0.952666V5.52336C12.0966 10.4262 12.1284 10.8496 12.6002 12.2351C13.4959 14.8654 15.4798 17.1184 17.9576 18.3188C18.7283 18.6922 19.8681 19.0759 20.4791 19.1675C20.9814 19.2428 20.9987 19.3034 20.7355 20.0683C20.363 21.151 19.7301 22.1516 18.7818 23.1568C18.1866 23.7877 17.2934 24.5005 15.6673 25.6426C14.2799 26.6169 12.5119 28.5219 11.8643 29.7401L11.6789 30.089H10.9463C9.84058 30.089 8.50963 30.2623 7.60751 30.5236C3.69306 31.658 0.791096 34.9193 0.14358 38.9117C0.0333 39.5916 0.000291213 40.61 9.88771e-06 43.3384C-0.000365213 46.7054 0.0090123 46.9007 0.188404 47.2522C0.309937 47.4905 0.509115 47.6897 0.747397 47.8112C1.09765 47.9899 1.29514 48 4.42826 48C7.47135 48 7.76515 47.9859 8.0627 47.8264C8.24078 47.7309 8.47221 47.538 8.57705 47.3978C8.7586 47.1548 8.76986 46.976 8.81449 43.6094C8.86007 40.1731 8.86701 40.0669 9.06778 39.7442C9.40115 39.2081 9.8795 38.9976 10.7642 38.9976H11.5161L11.8168 39.5368C12.8492 41.3875 14.4708 42.9337 16.3634 43.8718C18.2775 44.8206 19.9702 45.1056 22.6175 44.9247C23.5102 44.8637 24.7508 44.7301 25.3745 44.6277C35.6944 42.9338 44.2711 35.2177 47.0322 25.1432C47.7156 22.6499 47.9601 20.8296 47.9612 18.2264C47.9621 16.1282 47.8551 15.3852 47.3137 13.7325C46.0244 9.79688 42.7648 6.52309 38.8225 5.20462C37.407 4.73115 36.2749 4.55541 34.6026 4.5495C32.3954 4.54163 30.6838 4.9216 28.7316 5.85307C26.9319 6.71158 24.9063 8.36362 23.8654 9.82163L23.3965 10.4784L22.6836 10.4842C21.9013 10.4905 21.5471 10.3328 21.1545 9.80335C20.9639 9.54631 20.9571 9.41718 20.9115 5.23856C20.8661 1.07973 20.8582 0.929785 20.6712 0.679499C20.5649 0.537149 20.3614 0.33375 20.219 0.227409C19.9704 0.0416411 19.8272 0.0331075 16.5676 0.00891357C13.4789 -0.0139675 13.1458 -0.0013079 12.8487 0.149576ZM18.0982 6.15662C18.0982 9.83851 18.1375 10.185 18.6581 11.0943C18.9835 11.6628 19.6893 12.3911 20.2157 12.7016C21.0473 13.1921 21.5829 13.3033 23.1065 13.3018C24.0578 13.3009 24.5987 13.2616 24.7563 13.182C24.8852 13.1169 25.1384 12.8578 25.3189 12.6063C26.3551 11.1625 26.8632 10.5623 27.5506 9.96933C31.8202 6.28678 38.0607 6.48418 42.0395 10.4277C43.7148 12.0882 44.7956 14.2764 45.1144 16.6528C45.2449 17.6265 45.1749 19.8193 44.9668 21.2741C44.8464 22.1152 44.5478 23.7091 44.4968 23.7825C44.4878 23.7952 44.1501 23.6174 43.7461 23.3872C40.6527 21.6243 36.6751 21.4941 33.4183 23.0489C32.1863 23.637 31.6088 24.0366 30.2583 25.2349C29.6483 25.7761 28.8333 26.3998 28.4472 26.6206C26.0551 27.9893 23.0204 28.0983 20.5883 26.9027C20.1729 26.6985 19.7712 26.4903 19.6955 26.44C19.5853 26.3668 19.764 26.1373 20.5924 25.2883C21.1613 24.7051 21.8517 23.8939 22.1265 23.4856C23.1546 21.9584 23.7609 20.2342 23.8711 18.5249C23.9189 17.783 23.9016 17.6187 23.7458 17.3385C23.4351 16.7796 23.2092 16.6785 21.943 16.531C19.0235 16.1909 16.9146 14.7677 15.7012 12.3186C14.9476 10.7973 14.9099 10.5153 14.9099 6.39575V2.80041H16.504H18.0982V6.15662ZM40.251 25.0186C41.246 25.2732 42.1534 25.6686 42.9348 26.1881C43.7197 26.7099 43.743 26.4988 42.6611 28.6707C40.2302 33.5509 36.4791 37.2938 31.6487 39.6591C29.8595 40.5352 28.7292 40.9611 27.0536 41.3905C25.0801 41.8964 23.3879 42.1164 21.4272 42.122C19.8529 42.1266 19.6837 42.1098 18.9134 41.874C18.4591 41.7348 17.8683 41.511 17.6006 41.3765C15.9763 40.5609 14.586 39.0555 13.9106 37.3811C13.4433 36.2225 13.2914 36.1598 11.0508 36.2002L9.33026 36.2312L8.59806 36.5808C7.28052 37.21 6.35702 38.3971 6.10289 39.7885C6.04691 40.095 6.00124 41.4319 6.00124 42.7659V45.1867H4.39909H2.79704L2.83624 42.2094C2.87243 39.4684 2.89213 39.1765 3.08446 38.5324C3.71829 36.4097 5.28592 34.5658 7.23035 33.6559C8.37056 33.1224 9.14261 32.98 11.1863 32.9266C13.4236 32.8682 13.4295 32.8656 14.01 31.7266C14.5746 30.619 15.1636 29.8471 16.1732 28.8915L17.0727 28.0403L17.7965 28.5373C20.7814 30.5868 24.3975 31.0938 27.835 29.9447C29.5172 29.3824 30.6895 28.6671 32.2053 27.2783C33.1821 26.3833 33.5649 26.1085 34.466 25.6556C35.2518 25.2606 36.216 24.9556 37.0465 24.8393C37.909 24.7186 39.4055 24.8023 40.251 25.0186ZM31.0861 31.7292C30.6317 31.8913 30.3332 32.217 30.1847 32.7129C30.0261 33.2421 30.2685 33.8555 30.7664 34.185C31.077 34.3904 31.207 34.4197 31.6483 34.3831C33.2831 34.2475 33.3619 31.9601 31.7425 31.6494C31.5878 31.6197 31.2924 31.6557 31.0861 31.7292ZM21.7459 34.8968C20.8688 35.4827 20.9194 36.7114 21.8427 37.2521C22.6811 37.7431 23.7801 37.1604 23.8809 36.1716C23.9637 35.3581 23.3405 34.6839 22.5057 34.6839C22.2031 34.6839 21.9644 34.7508 21.7459 34.8968Z" fill="#16A34A"/>
    </g>
    <defs>
        <clipPath id="clip0_1160_5534">
            <rect width="48" height="48" fill="white"/>
        </clipPath>
    </defs>
</svg>
