<svg width="48" height="48" viewBox="0 0 48 48" fill="none" xmlns="http://www.w3.org/2000/svg">
    <path fill-rule="evenodd" clip-rule="evenodd" d="M33.4101 0.37413C32.6773 0.990753 31.5311 3.74554 31.0855 5.96113C30.8326 7.21889 30.8292 10.0896 31.0792 11.3962C31.1824 11.9354 31.2668 12.4118 31.2668 12.4548C31.2668 12.4978 30.9151 12.4541 30.4851 12.3574C29.1369 12.0542 26.7316 12.0007 25.252 12.2411C18.6837 13.3078 13.7633 17.9635 12.3527 24.4463C12.0162 25.9925 11.9908 29.0687 12.3038 30.3745C12.4175 30.8489 12.4945 31.253 12.4751 31.2724C12.4557 31.2918 12.0185 31.2203 11.5034 31.1132C10.1871 30.8399 7.24583 30.8399 5.89626 31.1133C3.66078 31.566 0.953023 32.7111 0.309509 33.4759C-0.327501 34.233 0.0633601 35.3738 1.07397 35.7074C1.49035 35.8448 1.59041 35.8158 2.77275 35.2154C3.46367 34.8645 4.09317 34.5774 4.17172 34.5774C4.25014 34.5774 6.39106 36.6547 8.92922 39.1936L13.5441 43.8098L12.8876 45.1442C12.151 46.6412 12.1228 47.0435 12.7133 47.6338C12.9849 47.9055 13.1539 47.9605 13.7165 47.9605C14.5598 47.9605 14.7971 47.748 15.4829 46.3801C16.654 44.0442 17.1333 41.9985 17.1333 39.3367C17.1333 38.221 17.0613 37.2198 16.9379 36.6228C16.8305 36.1026 16.7623 35.6572 16.7865 35.6331C16.8106 35.6088 17.3067 35.673 17.8886 35.7755C19.1095 35.9907 21.5514 36.0218 22.8251 35.8387C24.2312 35.6365 25.8489 35.1184 27.327 34.3968C31.6775 32.2729 34.6963 28.3317 35.7149 23.4457C35.9931 22.1116 36.0001 18.9122 35.7276 17.6922C35.6277 17.2451 35.5683 16.8556 35.5957 16.8266C35.6231 16.7977 35.9408 16.8437 36.3016 16.9289C37.2989 17.1644 40.0489 17.2468 41.3043 17.0789C43.7623 16.75 47.2566 15.3762 47.7882 14.5297C48.1272 13.9899 48.0502 13.156 47.622 12.7277C47.0702 12.1758 46.5119 12.2207 45.0877 12.9313L43.837 13.5553L39.1655 8.8884L34.4942 4.22158L35.1318 2.92167C35.827 1.50481 35.8608 1.34622 35.5827 0.808392C35.1632 -0.0028481 34.1087 -0.2136 33.4101 0.37413ZM40.1836 14.2985C40.0635 14.3238 39.3449 14.3164 38.5867 14.2822C37.2714 14.2226 34.8768 13.7191 34.5989 13.4437C34.2133 13.0616 33.5331 9.0006 33.7029 8.09505L33.7875 7.64453L37.0947 10.9486C39.4714 13.323 40.3406 14.2655 40.1836 14.2985ZM29.5158 15.1219C30.1005 15.2211 30.9448 15.4046 31.3919 15.5297L32.2049 15.7572L32.4817 16.6178C32.876 17.8441 33.1641 19.7297 33.1191 20.7895L33.0804 21.6979L29.7043 18.3192L26.3281 14.9406L27.3904 14.9411C27.9746 14.9413 28.9311 15.0227 29.5158 15.1219ZM27.6971 20.4388L32.3184 25.0613L31.949 25.8414C31.6471 26.4789 30.9583 27.6205 30.4888 28.2611C30.4035 28.3777 19.7599 17.8671 19.7599 17.6662C19.7599 17.4259 22.5352 15.8165 22.9499 15.8162C23.0191 15.8161 25.1553 17.8962 27.6971 20.4388ZM28.265 30.3915C28.265 30.5713 26.8267 31.501 25.8191 31.9725L24.9874 32.3617L20.3724 27.7479C17.8342 25.2104 15.7575 23.0799 15.7575 23.0132C15.7575 22.7798 16.7672 20.8754 17.2117 20.2704L17.6609 19.6593L22.963 24.9602C25.8791 27.8758 28.265 30.3199 28.265 30.3915ZM18.3841 29.762L21.6968 33.0765H20.2414C19.0417 33.0765 18.528 33.0114 17.3179 32.7058C16.5104 32.5018 15.821 32.3062 15.7857 32.271C15.7506 32.2358 15.558 31.5725 15.3576 30.7969C14.984 29.3501 14.717 26.4475 14.9575 26.4475C15.0202 26.4475 16.5621 27.939 18.3841 29.762ZM11.3148 34.0147C11.795 34.1173 12.4776 34.2854 12.8318 34.3884C13.4349 34.5638 13.485 34.6096 13.6182 35.1081C13.6964 35.4009 13.8396 35.9318 13.9364 36.2877C14.2005 37.2588 14.4148 39.2987 14.3195 39.9344L14.2353 40.4955L10.9354 37.1974C8.64567 34.9089 7.68222 33.8666 7.78791 33.7926C7.99766 33.6457 10.252 33.7876 11.3148 34.0147Z" fill="#16A34A"/>
</svg>
