<svg width="48" height="48" viewBox="0 0 48 48" fill="none" xmlns="http://www.w3.org/2000/svg">
    <g clip-path="url(#clip0_1667_26973)">
        <path fill-rule="evenodd" clip-rule="evenodd" d="M25.9295 0.198544C25.4697 0.487872 25.3402 0.797338 25.0503 2.29852L24.8302 3.43857L23.8222 3.51562C22.385 3.62545 21.6724 3.84836 18.7672 5.09686C17.3491 5.70641 16.1176 6.22352 16.0307 6.24604C15.9352 6.27081 15.6428 5.77634 15.2904 4.99354C14.684 3.64684 14.4455 3.38278 13.7331 3.26895C13.1489 3.17563 12.4947 3.63183 12.2643 4.29342C12.0942 4.78176 12.1038 4.82479 12.679 6.14672C13.0029 6.89112 13.25 7.51305 13.2283 7.52894C13.2064 7.54483 12.2885 7.94061 11.1884 8.40843C7.63672 9.91899 6.64889 10.4789 5.56881 11.5935C5.29704 11.874 5.03177 12.1035 4.97939 12.1035C4.92701 12.1035 4.37396 11.7939 3.75029 11.4155C2.32943 10.5534 1.82552 10.502 1.17509 11.1529C0.832565 11.4956 0.750058 11.6759 0.750058 12.0814C0.750058 12.758 1.10346 13.1539 2.43906 13.9735C3.27563 14.4868 3.4964 14.6798 3.42852 14.8387C2.85585 16.1788 2.6112 18.5011 2.8991 19.8642L3.07199 20.6827L1.90102 21.1776C0.481037 21.7781 0 22.2399 0 23.0031C0 23.4146 0.0810065 23.5926 0.425033 23.9368C0.995953 24.5081 1.45224 24.4945 2.93773 23.8618C3.5839 23.5866 4.1417 23.3614 4.17745 23.3614C4.21308 23.3614 4.4831 23.6812 4.77762 24.0719C5.49055 25.0181 6.7074 26.0049 7.93987 26.6365L8.94707 27.1525L8.7288 28.2278C8.40203 29.8374 8.42665 30.3116 8.85969 30.7449C9.82701 31.7128 11.0735 31.1792 11.3689 29.6705C11.4489 29.2619 11.5765 28.6323 11.6525 28.2711L11.7907 27.6144H12.7421C14.0603 27.6144 15.0832 27.3009 18.0768 25.9795C19.4825 25.3591 20.679 24.8801 20.7357 24.9151C20.7924 24.9502 21.0528 25.4898 21.3145 26.1141C21.8772 27.4571 22.2752 27.8646 23.0239 27.8646C23.4292 27.8646 23.6093 27.782 23.9519 27.4393C24.5788 26.812 24.5652 26.4006 23.8647 24.812C23.5947 24.1993 23.3884 23.6842 23.4066 23.6671C23.4246 23.6501 24.4238 23.2058 25.627 22.6798C26.8302 22.1537 28.1556 21.5589 28.5722 21.3579C29.4345 20.942 30.8084 19.9382 31.2752 19.383L31.5898 19.0089L32.765 19.7418C34.0626 20.5511 34.5412 20.6507 35.2002 20.2486C35.9663 19.781 36.0706 18.6953 35.4075 18.0887C35.2192 17.9165 34.6292 17.5086 34.0964 17.1822C33.5636 16.8559 33.1276 16.5718 33.1276 16.551C33.1276 16.5301 33.215 16.2667 33.3217 15.9657C33.7002 14.8989 33.8868 13.1383 33.7442 11.9784C33.6724 11.3937 33.6026 10.8135 33.5894 10.6893C33.5706 10.5149 33.8498 10.3415 34.8152 9.92787C36.4971 9.20737 36.9419 8.57092 36.4411 7.60174C35.9674 6.68535 35.1736 6.62143 33.5002 7.3647C32.5092 7.80476 32.3256 7.85167 32.234 7.68793C31.9481 7.17669 30.8103 5.95358 30.1722 5.4715C29.5449 4.99766 28.2316 4.237 27.7813 4.08677C27.6605 4.0465 27.6852 3.74216 27.8894 2.75008C28.1874 1.30319 28.1446 0.772946 27.6955 0.350775C27.2727 -0.0466291 26.4342 -0.118929 25.9295 0.198544ZM40.0994 3.34313C39.6118 3.7269 39.4383 4.26402 39.6132 4.84818C39.8118 5.5114 40.2696 5.84914 40.9701 5.84914C41.4382 5.84914 41.5969 5.78046 41.9533 5.42384C42.3017 5.07522 42.3783 4.90385 42.3783 4.47317C42.3783 4.04249 42.3017 3.87112 41.9533 3.5225C41.5969 3.16588 41.4382 3.0972 40.9701 3.0972C40.6044 3.0972 40.3041 3.18201 40.0994 3.34313ZM25.8551 6.53975C28.0947 7.06799 29.8533 8.6845 30.6379 10.9357C30.9868 11.9373 30.9929 13.8786 30.6501 14.8615C30.2635 15.9706 29.8943 16.6033 29.2073 17.3352C28.313 18.2879 27.707 18.6372 24.5644 20.0131C23.0518 20.6752 20.1828 21.9332 18.1889 22.8085C13.4838 24.874 12.6869 25.0749 10.838 24.6611C8.40703 24.1171 6.441 22.2205 5.79508 19.7964C5.25403 17.7661 5.98172 15.2263 7.55584 13.6512C8.42266 12.7838 8.87632 12.5345 12.2847 11.0514C13.6069 10.4763 16.0669 9.40138 17.7514 8.66299C19.4359 7.92447 21.1516 7.17657 21.5642 7.00082C23.0729 6.35812 24.4555 6.20951 25.8551 6.53975ZM42.3158 11.5611C40.9512 12.1335 40.0417 13.1869 39.6665 14.6297C39.4809 15.3429 39.4707 15.5727 39.5977 16.1786C39.9016 17.6284 40.7398 18.7671 41.9408 19.3619C42.4806 19.6291 42.7363 19.6712 43.8159 19.6702C44.8809 19.6693 45.1465 19.6263 45.6097 19.3799C46.4364 18.9402 47.2103 18.1585 47.595 17.375C47.8955 16.7625 47.9412 16.5204 47.9412 15.5434C47.9412 14.5665 47.8955 14.3243 47.595 13.7119C47.2079 12.9235 46.4285 12.1389 45.6097 11.714C44.8774 11.3339 43.0587 11.2494 42.3158 11.5611ZM23.7288 11.6636C23.5442 11.7677 23.159 12.1867 22.8729 12.595C22.0016 13.8377 21.042 14.3095 19.6454 14.1814C17.2097 13.9578 16.1885 13.9535 15.3862 14.1632C14.1705 14.4809 13.1558 15.0533 12.24 15.9381C10.8 17.3292 10.4277 18.4273 11.1392 19.1852C11.889 19.9839 12.793 19.7991 13.6208 18.6778C14.6465 17.2885 15.8015 16.7684 17.5532 16.9071C20.2489 17.1205 20.6092 17.1284 21.2842 16.9882C22.8015 16.673 24.3048 15.6195 25.2427 14.2143C25.8888 13.246 25.939 12.567 25.4082 11.9727C24.9929 11.5076 24.2488 11.3706 23.7288 11.6636ZM44.2944 14.2756C45.4469 14.7574 45.3842 16.4628 44.1996 16.854C43.8624 16.9653 43.6829 16.9558 43.3294 16.808C42.8625 16.6128 42.3792 15.9696 42.3792 15.5434C42.3792 15.1343 42.8542 14.4787 43.2871 14.2904C43.7942 14.0698 43.8022 14.0697 44.2944 14.2756ZM35.2222 24.0813C34.6734 24.4218 34.5027 24.942 34.5027 26.2738V27.4598L33.4714 27.7827C32.9041 27.9603 32.1306 28.295 31.7525 28.5267L31.0649 28.9479L30.1211 28.0413C29.4098 27.3581 29.0599 27.1127 28.7009 27.0454C27.6958 26.8566 26.8698 27.6831 27.0585 28.6888C27.1257 29.048 27.371 29.3982 28.0538 30.1099L28.9598 31.0543L28.5388 31.7423C28.3073 32.1207 27.9728 32.8946 27.7953 33.4623L27.4726 34.4942H26.2874C24.9418 34.4942 24.4244 34.6686 24.0901 35.2348C23.8265 35.6815 23.8186 36.1452 24.0665 36.6249C24.3708 37.2135 24.8286 37.3713 26.2337 37.3713H27.4778L27.7522 38.275C28.0383 39.2177 28.5297 40.2924 28.8322 40.6371C28.9888 40.8152 28.9025 40.9474 28.0779 41.7943C27.5091 42.3783 27.1149 42.8963 27.0646 43.1254C26.8541 44.0844 27.4811 44.8765 28.4507 44.8765C28.9708 44.8765 29.0666 44.8176 30.003 43.9225L31.0009 42.9684L31.8455 43.4029C32.7944 43.891 33.2023 44.0536 33.9714 44.2501L34.5027 44.3858V45.5734C34.5027 46.9603 34.6878 47.5238 35.2367 47.8078C35.9625 48.1834 36.7334 47.9969 37.1274 47.3501C37.3337 47.0115 37.377 46.7191 37.3774 45.6632L37.3779 44.3858L37.9092 44.2515C38.8078 44.0243 39.5389 43.7347 40.1612 43.3595C40.4889 43.1618 40.8 43.0002 40.8527 43.0002C40.9054 43.0002 41.2843 43.3422 41.6946 43.7603C42.5683 44.6501 42.9491 44.8765 43.5721 44.8765C44.2169 44.8765 44.8785 44.2146 44.8785 43.5694C44.8785 42.9459 44.6522 42.5649 43.7629 41.6907C43.3451 41.2801 43.0033 40.901 43.0033 40.8482C43.0033 40.7955 43.1649 40.4842 43.3624 40.1563C43.7374 39.5337 44.0268 38.802 44.2538 37.9029L44.3881 37.3713L45.6647 37.3708C46.7199 37.3704 47.0122 37.327 47.3506 37.1206C47.9969 36.7263 48.1832 35.955 47.808 35.2288C47.5242 34.6796 46.9609 34.4942 45.5759 34.4942H44.3902L44.2601 34.0252C44.1884 33.7672 44.1296 33.4914 44.1292 33.4125C44.1288 33.3334 43.8707 32.7535 43.5555 32.1237L42.9827 30.9787L43.9305 29.9858C44.8195 29.0549 44.8785 28.9586 44.8785 28.4385C44.8785 27.4683 44.0868 26.8409 43.1285 27.0515C42.8995 27.1018 42.3818 27.4963 41.7981 28.0655C40.9518 28.8906 40.8197 28.9769 40.6417 28.8203C40.2973 28.5176 39.2232 28.0258 38.2811 27.7395L37.3779 27.4649V26.2201C37.3779 24.8141 37.2203 24.356 36.632 24.0515C36.1556 23.805 35.6503 23.8158 35.2222 24.0813ZM37.242 30.434C39.2962 30.9185 40.8989 32.4955 41.4366 34.5612C42.5032 38.6585 38.6644 42.4997 34.5696 41.4325C33.5421 41.1647 32.6833 40.67 31.9419 39.9187C31.1622 39.1289 30.6929 38.2874 30.445 37.2353C30.1953 36.1757 30.2043 35.5983 30.4872 34.5204C30.996 32.5812 32.5638 31.0024 34.5027 30.4767C35.514 30.2024 36.2138 30.1915 37.242 30.434ZM36.3218 33.6873C36.1192 33.7931 35.4329 34.4107 34.7967 35.0599C33.4917 36.3915 33.3243 36.77 33.6954 37.5523C34.048 38.2959 34.8803 38.5756 35.6028 38.1933C36.0027 37.9816 38.0395 35.9275 38.2392 35.5345C38.5741 34.875 38.2702 34.0243 37.5833 33.6981C37.0489 33.4443 36.7919 33.4421 36.3218 33.6873ZM3.37201 34.2281C2.72984 34.8706 2.72984 35.6189 3.37201 36.2615C3.66453 36.5542 3.83892 36.6207 4.31284 36.6207C4.78675 36.6207 4.96114 36.5542 5.25366 36.2615C5.89583 35.6189 5.89583 34.8706 5.25366 34.2281C4.96114 33.9354 4.78675 33.8688 4.31284 33.8688C3.83892 33.8688 3.66453 33.9354 3.37201 34.2281ZM14.1886 34.7005C12.5674 35.0383 11.4021 35.6338 10.3998 36.6367C8.32352 38.7143 7.83761 41.7071 9.14434 44.3688C9.96465 46.0396 11.9704 47.5537 13.8136 47.8934C14.7554 48.0669 16.3704 47.97 17.1888 47.6906C19.1032 47.0373 20.7859 45.3536 21.4388 43.438C21.7179 42.6191 21.8148 41.0031 21.6414 40.0607C21.2993 38.2022 19.7987 36.214 18.1128 35.3856C16.9103 34.7947 15.1833 34.4931 14.1886 34.7005ZM15.9771 37.6405C16.7422 37.8285 17.8211 38.5437 18.1953 39.1109C18.8896 40.1635 19.066 41.5239 18.6589 42.6875C18.3627 43.5343 17.2851 44.6126 16.4388 44.9091C14.7524 45.4996 12.9103 44.9013 11.9576 43.4534C10.978 41.9649 11.0896 40.1525 12.2417 38.8396C13.1955 37.7524 14.5991 37.302 15.9771 37.6405Z" fill="#16A34A"/>
    </g>
    <defs>
        <clipPath id="clip0_1667_26973">
            <rect width="48" height="48" fill="white"/>
        </clipPath>
    </defs>
</svg>
