<svg width="48" height="48" viewBox="0 0 48 48" fill="none" xmlns="http://www.w3.org/2000/svg">
    <g clip-path="url(#clip0_1667_26975)">
        <path fill-rule="evenodd" clip-rule="evenodd" d="M13.8486 0.120273C13.5384 0.18012 12.8119 0.462079 12.234 0.746918C10.9223 1.39372 9.84088 2.43504 9.19031 3.67782C8.4886 5.01837 8.33433 5.79977 8.33383 8.01538L8.33333 9.93801L7.28272 10.1416C4.00042 10.7774 1.25414 13.3881 0.321713 16.7591C-0.0206787 17.997 -0.0312059 20.0778 0.298653 21.3461C0.988825 23.9999 2.78964 26.1793 5.26371 27.3549C6.8729 28.1194 7.32232 28.1911 10.8721 28.2492L14.0992 28.3022V29.6685V31.0349L10.0574 31.0368C5.67728 31.0388 5.01907 31.112 3.77207 31.7364C2.17316 32.5368 0.851091 34.0207 0.289003 35.6458C0.00463704 36.468 0 36.567 0 41.8934V47.3056L0.34753 47.6528L0.69506 48H20.7131H40.7311L41.4382 47.6532C42.2225 47.2683 43.0051 46.4942 43.448 45.6648C43.7354 45.1268 43.7394 45.0635 43.7759 40.4034L43.8127 35.6863L44.4284 35.2917C45.81 34.4059 47.086 32.6744 47.7037 30.8471C47.955 30.1037 48 29.7235 48 28.343C48 26.9625 47.955 26.5822 47.7037 25.8389C47.2282 24.4324 46.5995 23.4167 45.5668 22.3872C44.0879 20.913 42.3433 20.0802 40.4243 19.9323L39.4509 19.8574L39.3773 18.5286C39.255 16.3188 38.4934 14.5301 36.9901 12.922C35.4865 11.3135 34.0068 10.4753 32.0241 10.1089L31.1739 9.95191L31.1118 7.81643C31.0621 6.11015 30.9965 5.51569 30.7852 4.85824C30.0534 2.58153 27.7782 0.540457 25.4889 0.106626C24.6964 -0.0434937 14.6379 -0.0315997 13.8486 0.120273ZM25.5405 3.1154C27.3883 3.80603 28.3065 5.39837 28.2345 7.78738L28.1984 8.98346L27.2466 8.5639C25.9869 8.0085 24.2278 7.42542 22.8221 7.09751C21.9064 6.88391 21.2735 6.83095 19.6136 6.8287C16.8956 6.82507 15.3942 7.15047 12.5704 8.35518C11.9019 8.6404 11.3237 8.87378 11.2858 8.87378C11.2478 8.87378 11.2167 8.28432 11.2167 7.5639C11.2167 5.80528 11.4825 5.06708 12.4635 4.10176C13.715 2.87013 13.6676 2.87814 19.7028 2.8705C24.5769 2.86437 24.9057 2.87814 25.5405 3.1154ZM21.7617 9.81869C23.5132 10.1426 25.854 10.9772 27.5718 11.8906L28.1984 12.2237L28.2326 14.5817C28.2712 17.2455 28.1177 18.3314 27.4868 19.8567C26.5639 22.0877 24.7192 24.0966 22.6238 25.1523C21.6911 25.6223 20.3566 26.0267 19.7389 26.0267C19.1212 26.0267 17.7867 25.6223 16.854 25.1523C15.3319 24.3854 13.5074 22.6999 12.6888 21.3046C11.5255 19.3217 11.2167 17.9124 11.2167 14.586V12.1819L12.1722 11.7035C15.8826 9.84586 18.8035 9.2718 21.7617 9.81869ZM8.36917 15.4783C8.43635 18.2266 8.55503 18.9427 9.24658 20.7682C9.76606 22.1395 10.3078 23.0351 11.5085 24.5074L12.2606 25.4295L10.0153 25.3765C7.82513 25.3249 7.7473 25.3138 6.83029 24.9234C3.3511 23.4419 1.91599 19.5737 3.59887 16.2137C4.28115 14.8515 5.66613 13.6546 7.14974 13.1449C8.39712 12.7164 8.29711 12.525 8.36917 15.4783ZM32.2853 13.1353C34.8742 14.0066 36.5356 16.3497 36.5308 19.1223C36.5296 19.7177 36.4874 20.2643 36.4368 20.3373C36.3861 20.4102 35.9499 20.6871 35.4674 20.9527C34.268 21.6128 32.835 23.061 32.1581 24.297L31.6312 25.2592L30.9801 25.3372C30.622 25.3802 29.6401 25.3979 28.7981 25.3767L27.2673 25.3381L27.9619 24.5243C28.7912 23.5528 29.7225 22.0216 30.1815 20.8749C30.8546 19.1933 31.0328 18.1425 31.1079 15.4157C31.1643 13.3625 31.2108 12.8803 31.3525 12.8803C31.4488 12.8803 31.8685 12.9951 32.2853 13.1353ZM17.7963 20.1926C16.7868 20.6377 16.6011 21.7714 17.3974 22.6273C18.737 24.0671 21.7455 23.7014 22.4201 22.0168C22.9746 20.6326 21.4086 19.5086 20.2044 20.4262C19.7988 20.7352 19.3629 20.7832 19.3629 20.5186C19.3629 20.3987 18.5741 20.015 18.3414 20.0218C18.2484 20.0246 18.0031 20.1013 17.7963 20.1926ZM41.1782 22.9711C44.7842 24.0292 46.3328 28.3154 44.2445 31.4583C43.2036 33.025 41.5184 33.9146 39.5916 33.9146C36.4771 33.9146 34.0261 31.4608 34.0261 28.343C34.0261 25.8915 35.5812 23.7499 37.8993 23.009C38.7855 22.7257 40.283 22.7084 41.1782 22.9711ZM22.9 33.3165C23.0188 33.4973 23.2269 33.6803 23.3623 33.7232C23.5931 33.7964 23.5976 33.8328 23.4334 34.2976C23.0201 35.4678 22.0566 36.4676 20.6102 37.227L19.7498 37.6786L18.9283 37.2784C17.7616 36.7101 16.7064 35.7146 16.2162 34.7197C15.9967 34.2741 15.8394 33.8967 15.8667 33.8808C15.894 33.865 16.0264 33.7912 16.1608 33.7171C16.2952 33.6429 16.5208 33.4276 16.6621 33.2388C16.8949 32.9277 16.9228 32.6834 16.9584 30.638C16.9978 28.3846 16.9983 28.3807 17.2717 28.4586C19.1314 28.9874 20.3907 29.0146 21.8068 28.5563L22.5587 28.3131L22.6214 30.6504C22.6732 32.5794 22.7218 33.0451 22.9 33.3165ZM31.1436 28.7642C31.1436 29.2262 31.3212 30.3513 31.4674 30.8158C31.5319 31.0202 31.3356 31.0349 28.5201 31.0349H25.5039V29.6576V28.2804H28.3238H31.1436V28.7642ZM8.45953 35.4486V36.9824L7.89543 37.2814C7.16917 37.6664 6.3919 38.5127 6.0079 39.3365C5.62991 40.1476 5.58504 41.6254 5.91327 42.4572C6.383 43.6478 7.30728 44.5823 8.41754 44.9892C8.85431 45.1492 8.62095 45.1661 5.85901 45.1741L2.81984 45.1829L2.81922 41.1451C2.81872 37.6115 2.84604 37.0304 3.03854 36.4919C3.43131 35.3931 4.63344 34.3084 5.76501 34.032C5.9718 33.9815 6.6626 33.9345 7.30026 33.9273L8.45953 33.9146V35.4486ZM13.0891 34.5719C13.642 36.7728 15.5475 38.9434 17.8005 39.9391L18.3603 40.1865V42.6847V45.1829L14.6319 45.1741C11.2774 45.1661 10.9516 45.1476 11.384 44.9892C12.4943 44.5823 13.4186 43.6478 13.8883 42.4572C14.2165 41.6254 14.1717 40.1476 13.7937 39.3365C13.4097 38.5127 12.6324 37.6664 11.9061 37.2814L11.342 36.9824V35.4486V33.9146H12.133H12.9239L13.0891 34.5719ZM28.2611 35.4137V36.9131L27.8538 37.1197C27.0779 37.5133 26.4253 38.1542 25.9969 38.9435L25.5666 39.7365L25.5246 42.4597L25.4827 45.1829H23.3627H21.2428L21.2433 42.6475L21.2439 40.1122L22.2146 39.6171C22.9364 39.249 23.4592 38.8475 24.2529 38.052C25.4089 36.8934 25.9716 35.9844 26.3299 34.6966L26.5476 33.9146H27.4044H28.2611V35.4137ZM33.9237 34.6043C34.3338 34.9836 34.8348 35.3794 35.037 35.4839L35.4047 35.6738V40.2303C35.4047 42.7364 35.4389 44.8759 35.4808 44.9848C35.5449 45.152 35.4389 45.1829 34.8024 45.1829H34.048L34.0051 42.5849C33.9627 40.0308 33.9559 39.9738 33.6019 39.2064C33.2176 38.3737 32.4241 37.5371 31.6136 37.1101L31.1436 36.8625V35.3886V33.9146H32.1608H33.178L33.9237 34.6043ZM41.0444 40.3353C41.0444 43.095 41.0044 44.0345 40.8734 44.3475C40.4065 45.4641 38.7998 45.4641 38.3328 44.3475C38.2019 44.0345 38.1619 43.095 38.1619 40.3353V36.7316H39.6031H41.0444V40.3353ZM30.4077 39.7448C31.04 40.0715 31.1436 40.5282 31.1436 42.9878V45.1829H29.765H28.3864V42.8209C28.3864 40.5977 28.4022 40.4389 28.6544 40.1187C29.1092 39.541 29.749 39.4045 30.4077 39.7448ZM10.7184 39.9265C11.2266 40.2879 11.406 40.9064 11.1677 41.4759C10.9722 41.9435 10.3278 42.4276 9.90078 42.4276C9.4738 42.4276 8.82937 41.9435 8.63386 41.4759C8.1219 40.2519 9.61529 39.1418 10.7184 39.9265Z" fill="#16A34A"/>
    </g>
    <defs>
        <clipPath id="clip0_1667_26975">
            <rect width="48" height="48" fill="white"/>
        </clipPath>
    </defs>
</svg>
