<svg width="48" height="48" viewBox="0 0 48 48" fill="none" xmlns="http://www.w3.org/2000/svg">
    <path fill-rule="evenodd" clip-rule="evenodd" d="M18.41 0.129503C17.8171 0.392968 17.5213 0.939118 17.5172 1.77789C17.5133 2.56416 16.9482 3.37809 16.1851 3.6964C15.9564 3.79176 14.8846 3.92255 13.091 4.07407C11.5815 4.20167 10.1568 4.33031 9.92472 4.36003C8.57008 4.53349 6.95695 5.23922 5.87477 6.1319C4.66771 7.12754 3.5921 8.82721 3.21556 10.3341L3.05748 10.967H2.00447C1.06584 10.967 0.916948 10.9901 0.63295 11.1798C0.457713 11.2968 0.240378 11.5395 0.1499 11.7189C-0.004991 12.0263 -0.0131481 12.8768 0.00926046 26.4071C0.0330754 40.7477 0.0333567 40.7693 0.226408 41.0277C0.594321 41.5205 0.864817 41.6508 1.6208 41.6993L2.33019 41.7448L2.33056 44.3813C2.33084 46.8596 2.34219 47.0362 2.51996 47.3277C2.62919 47.5068 2.87671 47.714 3.10567 47.8179C3.49271 47.9936 3.98748 47.998 23.848 47.9998C43.0334 48.0017 44.2124 47.9924 44.5202 47.8378C44.6996 47.7477 44.9423 47.5305 45.0593 47.3553C45.268 47.0429 45.2721 46.9856 45.2721 44.3896V41.7426L46.1617 41.7037C47.1176 41.6618 47.352 41.5622 47.7509 41.0277C47.944 40.7693 47.9443 40.7477 47.9681 26.4071C47.9905 12.8753 47.9823 12.0267 47.8274 11.7237C47.5343 11.1506 47.2508 11.0196 46.1889 10.967L45.243 10.9201L45.0841 10.2638C44.4639 7.70313 42.6434 5.594 40.2583 4.67319C39.155 4.24733 38.5195 4.15057 35.0992 3.88767C33.3975 3.75688 31.8785 3.62449 31.7238 3.59345C30.7108 3.39046 29.898 2.44021 29.8961 1.45658C29.8952 0.999312 29.5582 0.427846 29.1561 0.201886C28.7939 -0.00176034 28.7633 -0.00288545 23.7415 0.000771177C19.7424 0.00367773 18.6327 0.030493 18.41 0.129503ZM27.4917 3.39712C28.1478 4.94069 29.6313 6.09224 31.3191 6.36818C31.6448 6.42143 33.3037 6.5721 35.0054 6.70309C38.6391 6.98277 39.19 7.10419 40.2705 7.86299C41.2563 8.55531 42.0608 9.67949 42.3074 10.7092L42.3691 10.967H24.178C8.74691 10.967 5.98681 10.9473 5.98681 10.8372C5.98681 10.7658 6.15399 10.3735 6.3582 9.96536C7.0207 8.64185 8.31599 7.61218 9.75117 7.26827C10.0787 7.18979 11.6441 7.01718 13.2298 6.8847C14.8156 6.75212 16.3521 6.58148 16.6444 6.50535C18.1742 6.10687 19.51 4.87487 20.0667 3.34902L20.2634 2.8099H23.7528H27.2421L27.4917 3.39712ZM9.7733 14.0376C9.42386 15.5096 8.69788 17.2213 7.7554 18.7959C6.606 20.7162 6.19515 22.21 6.29838 24.0933C6.3281 24.6348 6.44183 25.4154 6.55115 25.8279C6.80984 26.8038 7.46184 28.1245 8.0244 28.8122C8.80232 29.7632 8.88549 29.9111 9.21337 30.9276C9.79627 32.7349 10.3265 35.6952 10.4537 37.8526L10.5159 38.9074H6.65738H2.79899V26.3436V13.7798H6.31675H9.83452L9.7733 14.0376ZM35.4484 14.6236C35.8261 16.3558 36.7811 18.6796 37.6832 20.0617C38.607 21.4772 38.9588 22.6442 38.8679 23.9917C38.7302 26.0314 37.5021 27.8818 35.7086 28.752C34.6855 29.2483 34.0908 29.3841 32.9896 29.373C31.544 29.3582 30.3285 28.8748 29.0684 27.8135C28.404 27.254 27.7874 27.1869 27.1496 27.6048C26.6136 27.9562 26.4502 28.8857 26.8265 29.4441C27.4173 30.3207 29.2696 31.4704 30.7394 31.8727C32.252 32.2868 34.0323 32.3045 35.3158 31.9182C35.5528 31.8469 35.7597 31.8014 35.7755 31.8173C35.7912 31.833 35.7178 32.2639 35.6123 32.7748C35.274 34.4129 34.8648 37.7028 34.8648 38.7855C34.8648 38.8848 32.8762 38.9074 24.1311 38.9074H13.3974L13.3544 38.6964C13.3307 38.5803 13.2857 38.0424 13.2544 37.501C13.1654 35.9642 12.5942 32.2766 12.394 31.9457C12.3368 31.8513 12.3503 31.8529 13.0833 32.0277C14.4759 32.3598 16.5543 32.1768 18.0818 31.5877C19.54 31.0252 20.9795 29.9426 21.1861 29.253C21.5748 27.9555 20.0809 26.9058 19.0309 27.7387C17.5672 28.9001 16.4376 29.3555 14.9877 29.3687C13.8888 29.3787 13.2923 29.2451 12.2759 28.7612C11.2647 28.2798 10.2137 27.2666 9.76786 26.3436C9.21027 25.1888 9.1407 24.8892 9.13676 23.6245C9.13358 22.5632 9.15739 22.3914 9.38954 21.8052C9.53055 21.4492 9.9415 20.6411 10.3028 20.0095C11.4167 18.0621 12.114 16.3803 12.4972 14.7174C12.5863 14.3306 12.6755 13.9613 12.6956 13.8966C12.7245 13.803 15.0321 13.7839 24.0032 13.8028L35.2745 13.8267L35.4484 14.6236ZM45.1784 26.3436V38.9074H41.42H37.6615L37.721 38.1807C37.9213 35.7288 38.2121 33.8745 38.717 31.8285C39.149 30.0785 39.3523 29.5446 39.7934 29.0032C41.127 27.3657 41.8005 25.2724 41.6746 23.1558C41.5779 21.533 41.1686 20.303 40.2427 18.8533C39.3634 17.4765 38.4593 15.3718 38.1942 14.0845L38.1315 13.7798H41.655H45.1784V26.3436ZM7.91883 42.5874C7.85863 43.4036 7.73768 44.3479 7.61851 44.9314L7.56582 45.1893H6.35445H5.14298V43.4547V41.7202H6.56278H7.98268L7.91883 42.5874ZM36.8772 42.4468C36.9672 43.5452 37.1148 44.8409 37.1713 45.0252C37.2189 45.1809 36.5409 45.1893 23.8421 45.1893H10.4629L10.5184 44.7439C10.5489 44.4989 10.6267 43.7185 10.6913 43.0094L10.8087 41.7202H23.8132H36.8177L36.8772 42.4468ZM42.4593 43.4547V45.1893H41.2404C40.5701 45.1893 40.0216 45.1679 40.0216 45.1417C40.0216 45.1157 39.9622 44.6832 39.8897 44.1807C39.8173 43.6783 39.73 42.9192 39.6958 42.4937L39.6337 41.7202H41.0465H42.4593V43.4547Z" fill="#16A34A"/>
</svg>
