<svg width="48" height="37" viewBox="0 0 48 37" fill="none" xmlns="http://www.w3.org/2000/svg">
    <path fill-rule="evenodd" clip-rule="evenodd" d="M7.70074 0.297284C4.11653 1.53648 1.42904 5.52113 0.282069 11.2963C0.0306843 12.5622 -0.00404559 13.108 0.000342678 15.7175C0.0049817 18.4528 0.0328158 18.8252 0.342376 20.3053C0.801389 22.5 1.1774 23.6211 2.05443 25.4086C3.50845 28.3725 5.50711 30.3322 7.80794 31.0505C8.90588 31.3933 10.7671 31.3918 11.8564 31.0472C13.9531 30.3841 15.7261 28.6586 16.5022 26.5262C16.8901 25.4602 16.8901 22.9501 16.5022 21.8841C16.0275 20.5798 14.9117 19.088 13.8793 18.3778C13.6218 18.2006 13.6132 18.1504 13.7535 17.6343L13.9041 17.081L15.2371 17.1364C16.3668 17.1834 16.6771 17.2448 17.27 17.5379C18.1494 17.9725 19.0159 18.932 19.3542 19.8455C19.6035 20.5186 19.6117 20.7847 19.6117 28.1412C19.6117 36.3073 19.6142 36.3411 20.2533 36.7934C20.4152 36.908 20.7896 37 21.0941 37C21.551 37 21.7142 36.9279 22.0692 36.5693L22.4955 36.1386V28.3522C22.4955 23.6265 22.4456 20.3001 22.3684 19.8895C22.1586 18.7709 21.356 17.2627 20.5176 16.4112L19.7742 15.6562L20.5186 14.8971C21.9617 13.4253 22.8787 10.6719 22.3732 9.32842C22.0485 8.46534 20.78 8.27126 20.0809 8.97764C19.7703 9.29143 19.696 9.49425 19.6135 10.2543C19.4875 11.4139 19.0187 12.3863 18.2569 13.0684C17.3543 13.8765 16.7515 14.0946 15.222 14.1659L13.9041 14.2273L13.7535 13.674C13.6132 13.1579 13.6218 13.1077 13.8793 12.9305C14.9127 12.2195 16.0294 10.7258 16.501 9.42419C16.8731 8.39668 16.9012 5.96958 16.5527 4.94954C16.1409 3.74404 15.69 3.01752 14.7847 2.10022C13.3071 0.603347 11.8767 0.00680301 9.77802 0.0122503C8.80746 0.014784 8.32738 0.0806584 7.70074 0.297284ZM36.0364 0.297284C33.8874 1.04027 32.2187 2.69334 31.5023 4.78916C31.0978 5.97237 31.0962 8.3118 31.499 9.42419C31.9706 10.7258 33.0873 12.2195 34.1207 12.9305C34.3782 13.1077 34.3868 13.1579 34.2465 13.674L34.0959 14.2273L32.778 14.1659C31.2485 14.0946 30.6457 13.8765 29.7431 13.0684C28.9813 12.3863 28.5125 11.4139 28.3865 10.2543C28.304 9.49425 28.2297 9.29143 27.9191 8.97764C27.22 8.27126 25.9515 8.46534 25.6268 9.32842C25.1213 10.6719 26.0383 13.4253 27.4814 14.8971L28.2258 15.6562L27.4824 16.4112C26.644 17.2627 25.8414 18.7709 25.6316 19.8895C25.5545 20.3001 25.5046 23.6265 25.5046 28.3522V36.1386L25.9308 36.5693C26.2858 36.9279 26.449 37 26.9059 37C27.2105 37 27.5848 36.908 27.7467 36.7934C28.3858 36.3411 28.3883 36.3073 28.3883 28.1412C28.3883 20.7847 28.3965 20.5186 28.6458 19.8455C28.9841 18.932 29.8506 17.9725 30.73 17.5379C31.3229 17.2448 31.6332 17.1834 32.7629 17.1364L34.0959 17.081L34.2465 17.6343C34.3868 18.1504 34.3782 18.2006 34.1207 18.3778C33.0883 19.088 31.9725 20.5798 31.4978 21.8841C31.1099 22.9501 31.1099 25.4602 31.4978 26.5262C32.2739 28.6586 34.0469 30.3841 36.1436 31.0472C37.2329 31.3918 39.0941 31.3933 40.1921 31.0505C43.7615 29.9362 46.5631 25.8269 47.7179 20.012C47.9693 18.7461 48.0041 18.2003 47.9997 15.5908C47.9949 12.8408 47.9683 12.4882 47.6507 10.9683C47.2043 8.83145 46.8414 7.75731 45.9386 5.89965C44.503 2.94556 42.4987 0.977818 40.1921 0.257759C39.0431 -0.101003 37.1357 -0.0828876 36.0364 0.297284ZM11.2536 3.12773C12.9862 3.74531 14.0681 5.46159 13.9427 7.39348C13.8634 8.61545 13.4268 9.48145 12.4392 10.3762L12.1123 10.6723L11.4392 10.1183C10.2305 9.12357 9.46633 9.02527 8.75706 9.77333C8.46242 10.0841 8.39032 10.2725 8.39032 10.7317C8.39032 11.2406 8.44524 11.3513 8.89184 11.7434C10.556 13.2042 10.804 13.5567 11.0937 14.8744C11.2258 15.4748 11.2266 15.7612 11.0986 16.3878C10.8252 17.7253 10.5714 18.0906 8.89184 19.5649C8.44524 19.957 8.39032 20.0677 8.39032 20.5766C8.39032 21.0358 8.46242 21.2242 8.75706 21.535C9.46633 22.283 10.2305 22.1847 11.4392 21.19L12.1123 20.636L12.4392 20.9321C12.994 21.4347 13.2109 21.7114 13.5647 22.3683C13.8684 22.9323 13.9056 23.1336 13.9045 24.2052C13.9029 25.624 13.6507 26.281 12.7638 27.1771C10.927 29.033 8.35685 28.838 6.3464 26.6901C1.62538 21.6466 1.62538 9.66172 6.3464 4.61814C7.8596 3.00156 9.50118 2.50307 11.2536 3.12773ZM39.1119 2.99231C42.5881 3.90708 45.189 9.32614 45.189 15.6541C45.189 22.0122 42.5808 27.4172 39.0747 28.3247C37.2835 28.7884 35.26 27.791 34.3943 26.0178C34.145 25.5072 34.0966 25.2138 34.0953 24.2052C34.0939 23.179 34.1378 22.9177 34.3925 22.4316C34.7311 21.786 35.1621 21.2348 35.6019 20.8853L35.9015 20.6473L36.5677 21.1956C37.7692 22.1845 38.5351 22.2815 39.243 21.535C39.5376 21.2242 39.6097 21.0358 39.6097 20.5766C39.6097 20.0677 39.5548 19.957 39.1082 19.5649C37.444 18.104 37.196 17.7516 36.9063 16.4339C36.7742 15.8335 36.7734 15.5471 36.9014 14.9205C37.1748 13.583 37.4286 13.2177 39.1082 11.7434C39.5548 11.3513 39.6097 11.2406 39.6097 10.7317C39.6097 10.2725 39.5376 10.0841 39.243 9.77333C38.5337 9.02527 37.7695 9.12357 36.5608 10.1183L35.8877 10.6723L35.5608 10.3762C35.0053 9.8729 34.7889 9.59648 34.4365 8.94001C34.1354 8.37869 34.0965 8.16954 34.0949 7.10313C34.0933 6.07549 34.1384 5.80705 34.4032 5.26625C34.9738 4.10141 36.164 3.18423 37.4321 2.93252C38.228 2.77442 38.2928 2.7767 39.1119 2.99231Z" fill="#16A34A"/>
</svg>
