<svg width="48" height="48" viewBox="0 0 48 48" fill="none" xmlns="http://www.w3.org/2000/svg">
    <g clip-path="url(#clip0_1160_4853)">
        <path fill-rule="evenodd" clip-rule="evenodd" d="M29.5953 0.131949C28.7266 0.342405 28.0505 0.716235 27.3595 1.36805C25.5896 3.03772 25.2988 5.63427 26.6529 7.67552C26.8069 7.90764 28.1909 9.36479 29.7286 10.9137L32.5241 13.7298L28.1192 18.134L23.7143 22.5381L22.9397 21.776C22.5137 21.3568 22.0729 20.967 21.9603 20.9097C21.6757 20.765 21.1261 20.7796 20.824 20.9398C20.6847 21.0138 16.0935 25.5612 10.6213 31.0453C1.21202 40.475 0.657649 41.0489 0.411742 41.6139C0.0381931 42.4719 -0.0754754 43.2492 0.0475717 44.1031C0.427311 46.7392 3.03015 48.5191 5.5469 47.8635C6.78993 47.5398 6.42013 47.8802 16.9896 37.3267C22.4479 31.8766 26.9742 27.3035 27.0482 27.1642C27.2086 26.8621 27.2233 26.3125 27.0784 26.0279C27.021 25.9153 26.6945 25.5377 26.3529 25.189L25.7319 24.5548L30.1346 20.1514L34.5373 15.7479L37.3078 18.4955C39.9481 21.1141 40.1156 21.2615 40.8754 21.6356C42.373 22.3732 43.8119 22.376 45.2691 21.6444C47.7017 20.4229 48.656 17.5771 47.4687 15.0846C47.1579 14.4321 46.9308 14.177 44.3335 11.5637L41.5334 8.74618L42.0592 8.2343C42.9229 7.39351 43.1263 7.06507 43.1256 6.51258C43.1249 5.97556 42.9302 5.60267 42.5034 5.32131C42.3294 5.20661 42.0673 5.14434 41.757 5.14396C41.2045 5.14321 40.876 5.34663 40.0352 6.21049L39.5232 6.73635L36.5651 3.80179C34.1934 1.44898 33.4937 0.808146 33.0355 0.569179C31.9739 0.0154672 30.729 -0.14275 29.5953 0.131949ZM31.6542 3.01755C31.8091 3.09765 32.1346 3.34487 32.3777 3.56704L32.8196 3.97098L31.3158 5.46874L29.812 6.9666L29.4272 6.59417C28.8617 6.04684 28.6448 5.57978 28.6448 4.90884C28.6448 4.00109 29.1685 3.24226 30.0186 2.91814C30.4022 2.77193 31.2827 2.82539 31.6542 3.01755ZM40.5001 14.6619L38.9995 16.1627L35.4129 12.576L31.8263 8.98946L33.3254 7.48814L34.8246 5.98672L38.4128 9.57394L42.0009 13.1612L40.5001 14.6619ZM44.962 16.3171C45.3191 17.0076 45.208 17.9806 44.7021 18.5944C44.2875 19.0974 43.7545 19.3434 43.0794 19.3434C42.4084 19.3434 41.9414 19.1265 41.394 18.561L41.0216 18.1762L42.5195 16.6724L44.0172 15.1685L44.4211 15.6105C44.6433 15.8536 44.8867 16.1715 44.962 16.3171ZM22.6588 27.7209L21.5113 28.8712L20.3141 27.6768L19.1171 26.4823L20.2646 25.332L21.4121 24.1817L22.6093 25.3762L23.8064 26.5707L22.6588 27.7209ZM18.3673 29.6689L19.5374 30.8419L12.5512 37.8378C7.78716 42.6084 5.4457 44.8898 5.18985 45.0097C4.73133 45.2249 4.30986 45.2362 3.85378 45.0456C3.38879 44.8513 3.17965 44.6514 2.97472 44.2051C2.76324 43.7447 2.75311 43.3239 2.94227 42.8657C3.04309 42.6213 5.18263 40.4195 10.0932 35.5065C13.947 31.6507 17.122 28.496 17.1488 28.496C17.1754 28.496 17.7238 29.0238 18.3673 29.6689Z" fill="#16A34A"/>
    </g>
    <defs>
        <clipPath id="clip0_1160_4853">
            <rect width="48" height="48" fill="white"/>
        </clipPath>
    </defs>
</svg>
