<svg width="48" height="48" viewBox="0 0 48 48" fill="none" xmlns="http://www.w3.org/2000/svg">
    <path fill-rule="evenodd" clip-rule="evenodd" d="M19.0695 0.130709C11.7988 1.01964 5.70484 6.27974 3.64332 13.4459C3.14784 15.1683 3.00381 16.281 3.00015 18.4157C2.99734 20.0514 3.03194 20.579 3.20448 21.5319C3.73071 24.4374 4.91099 27.1741 6.6191 29.4493C6.94167 29.879 7.82057 30.8636 8.57204 31.6372C10.0331 33.1412 10.3887 33.5979 10.8252 34.5307C11.3572 35.6674 11.377 35.9216 11.3787 41.6509C11.3803 46.7071 11.3866 46.8946 11.5691 47.2523C11.6906 47.4906 11.8898 47.6897 12.1281 47.8112C12.4895 47.9957 12.6669 48 19.8196 48C26.9724 48 27.1497 47.9957 27.5112 47.8112C27.9393 47.5928 28.2589 47.0558 28.2589 46.5549C28.2589 44.6603 29.7208 42.8857 31.6157 42.4802C31.8891 42.4216 32.9102 42.3738 33.885 42.3738C35.8131 42.3738 36.383 42.2945 37.1613 41.9175C38.2449 41.3927 39.1561 40.2158 39.4071 39.017C39.4682 38.7254 39.5112 37.4968 39.5112 36.0444C39.5112 33.4054 39.5678 32.9032 39.9598 32.0592C40.2648 31.4029 41.1825 30.4898 41.8588 30.17C42.4291 29.9003 43.1845 29.7149 43.7135 29.7149C44.5175 29.7149 45.1758 29.0078 45.1104 28.2146C45.0796 27.8417 44.7415 27.2916 42.1996 23.4794L39.3237 19.1661V17.446C39.3237 16.078 39.2841 15.5316 39.1304 14.7773C38.0031 9.24568 34.2618 4.40435 29.1256 1.83094C26.1006 0.315247 22.5163 -0.290785 19.0695 0.130709ZM23.1974 2.93808C29.0162 3.7128 34.0568 7.9646 35.9331 13.6803C36.4308 15.1968 36.5102 15.764 36.5147 17.8357C36.5175 19.1172 36.5571 19.8344 36.6375 20.0567C36.7027 20.2372 37.777 21.914 39.0245 23.7831C40.2721 25.6521 41.2929 27.2206 41.2929 27.2687C41.2929 27.3168 41.1558 27.402 40.9881 27.4581C40.4782 27.6286 39.4424 28.334 38.8371 28.9231C37.6317 30.0962 36.9026 31.614 36.7369 33.2951L36.6739 33.9346H34.1428C31.1463 33.9346 30.1408 34.0532 28.4933 34.601C26.5013 35.2634 25.1301 36.1215 23.5683 37.6833C22.4268 38.8248 21.8117 39.6614 21.1538 40.9673C20.6677 41.9323 20.16 43.4733 20.0031 44.4602L19.8877 45.1869H17.046H14.2043L14.1713 40.3812C14.1335 34.8838 14.1393 34.9301 13.2627 33.1375C12.6674 31.9202 12.0818 31.1612 10.5864 29.6687C9.91426 28.9979 9.11806 28.1114 8.81715 27.6986C5.32011 22.9021 4.79218 16.7707 7.42045 11.4767C9.58662 7.11336 13.7146 3.96101 18.4077 3.08605C18.9521 2.98459 19.5664 2.8865 19.7727 2.86803C20.7008 2.78523 22.2938 2.81777 23.1974 2.93808ZM36.6981 37.6068C36.6981 38.348 36.6668 38.5194 36.4697 38.8558C36.0968 39.492 35.8662 39.5467 33.3693 39.5911C30.9959 39.6333 30.5429 39.7146 29.3754 40.3079C28.5696 40.7174 28.202 40.9799 27.566 41.6006C26.679 42.4659 25.8566 43.8854 25.6721 44.8693L25.6124 45.1869H24.1695C23.3758 45.1869 22.7265 45.1528 22.7265 45.111C22.7265 45.0692 22.8162 44.68 22.926 44.2461C23.825 40.691 26.6125 37.9089 30.1435 37.0425C31.2074 36.7814 31.2306 36.7797 34.1429 36.7627L36.6981 36.7477V37.6068Z" fill="#16A34A"/>
</svg>
