<svg width="48" height="48" viewBox="0 0 48 48" fill="none" xmlns="http://www.w3.org/2000/svg">
    <g clip-path="url(#clip0_1160_4824)">
        <path fill-rule="evenodd" clip-rule="evenodd" d="M5.5507 0.878479C3.31981 1.36363 1.41485 2.94696 0.534712 5.04753C-0.249074 6.91824 -0.157973 9.19952 0.771142 10.964L0.992936 11.3854L0.73033 11.9056C0.201364 12.9535 0.0301393 13.7143 0.0342675 14.9993C0.0394277 16.6047 0.3466 17.6707 1.15515 18.8888L1.49582 19.4021L1.20169 19.8296C-0.0793505 21.6916 -0.363255 24.2582 0.480764 26.3478C0.865996 27.3015 1.30377 27.9521 2.1066 28.7638L2.87181 29.5374L2.90952 31.2986C2.94236 32.8345 2.97342 33.126 3.15224 33.576C3.5628 34.6095 4.47559 35.5234 5.51645 35.9434C5.93358 36.1117 6.22133 36.1519 7.0176 36.1538C7.95806 36.156 8.0349 36.1407 8.71248 35.8171C9.5292 35.4271 10.2169 34.7925 10.6106 34.0659C11.0026 33.3422 11.1423 32.5094 11.1442 30.8842L11.1457 29.459L11.6244 29.0554C12.2139 28.5583 12.9167 27.6325 13.2974 26.852C13.7865 25.8487 13.9911 24.9377 13.9889 23.7716C13.9861 22.2653 13.6721 21.2603 12.6986 19.6427C12.5291 19.361 12.5292 19.3597 12.8267 18.9191C13.5051 17.9139 13.8851 16.7675 14.0121 15.3439C14.0764 14.6221 14.0816 14.6105 14.3089 14.6676C14.7799 14.7858 16.4721 14.7253 17.1155 14.5672C17.8848 14.3783 18.7675 13.9962 19.3313 13.6084L19.7414 13.3263L20.1581 13.609C22.3494 15.0959 25.6678 15.0969 27.8405 13.6112L28.2572 13.3263L28.6673 13.6084C29.2311 13.9962 30.1138 14.3783 30.8831 14.5672C31.5265 14.7253 33.2187 14.7858 33.6897 14.6676C33.917 14.6105 33.9222 14.6221 33.9865 15.3439C34.1135 16.7675 34.4935 17.9139 35.1719 18.9191C35.4694 19.3597 35.4696 19.361 35.3 19.6427C34.4419 21.0685 34.0936 22.0791 33.9873 23.4509L33.9248 24.2562L33.3952 24.1695C31.9625 23.9351 29.9518 24.4194 28.6559 25.3111C28.424 25.4706 28.2075 25.6011 28.1746 25.6011C28.1418 25.6011 27.9805 25.5003 27.8162 25.3769C25.9681 23.9894 22.9119 23.7458 20.7804 24.8161C18.9263 25.747 17.6027 27.3416 17.038 29.325C16.7481 30.3431 16.7492 31.9118 17.0406 32.9482C17.3854 34.1747 18.0439 35.2948 18.9242 36.1525L19.402 36.6181V41.3535C19.402 45.9114 19.4091 46.1031 19.5911 46.4702C19.976 47.2472 19.852 47.2237 23.7178 47.2526C27.6346 47.2819 27.618 47.2848 28.0102 46.52C28.2208 46.1092 28.2213 46.0981 28.2213 41.3992V36.6901L28.9565 37.1319C29.8488 37.6683 30.6577 37.9443 31.7713 38.0925C33.2421 38.2884 34.9891 37.9005 36.2401 37.1002L36.78 36.7548L37.126 36.9838C38.3168 37.7718 39.4778 38.1128 40.981 38.1159C42.29 38.1186 42.9387 37.9652 44.1658 37.3625C45.6245 36.6459 46.9169 35.2254 47.5253 33.6698C47.8949 32.7247 47.9626 32.3266 47.9632 31.0897C47.9639 29.955 47.9426 29.8081 47.6573 28.9814C47.4886 28.4927 47.2681 27.9595 47.1674 27.7965L46.9842 27.5L47.3103 26.8086C48.3625 24.5777 48.2029 22.0119 46.8853 19.9732L46.5095 19.3918L46.8468 18.8837C47.6667 17.6484 47.9635 16.5989 47.9584 14.9524C47.9551 13.8824 47.9236 13.6406 47.702 12.9821C47.5631 12.5693 47.3507 12.0444 47.2303 11.8156L47.0112 11.3997L47.3242 10.7367C47.822 9.68251 47.9662 9.0053 47.9646 7.72811C47.9626 5.98303 47.5154 4.70124 46.4341 3.34045C44.257 0.600767 40.2268 -0.0748423 37.2853 1.80675L36.7479 2.15051L36.4733 1.95499C35.948 1.58101 34.6436 1.03422 33.9249 0.886735C32.1681 0.526367 30.4077 0.833257 28.8528 1.7711L28.2311 2.14601L27.7943 1.85122C26.8028 1.18209 25.2898 0.738403 23.9993 0.738403C22.7088 0.738403 21.1958 1.18209 20.2043 1.85122L19.7675 2.14601L19.1458 1.7711C17.5909 0.833257 15.8305 0.526367 14.0737 0.886735C13.354 1.03441 12.0504 1.58111 11.5238 1.95611L11.2474 2.15286L10.7509 1.82354C9.35798 0.899683 7.23076 0.513138 5.5507 0.878479ZM7.94502 3.6525C8.62373 3.809 9.36989 4.22547 9.96979 4.78258C10.9572 5.69978 11.4969 5.71282 12.4585 4.84263C14.3909 3.09389 16.7231 3.1149 18.5884 4.89789C19.4152 5.68815 20.0735 5.66863 20.9896 4.8264C21.9464 3.94682 22.8772 3.55305 23.9993 3.55305C25.1209 3.55305 26.0523 3.94691 27.0077 4.82527C27.9244 5.66798 28.5833 5.68824 29.4091 4.89892C30.3375 4.01156 31.3856 3.55202 32.4766 3.55418C33.6029 3.55633 34.5665 3.96164 35.5401 4.84263C36.5026 5.71367 37.0332 5.69978 38.0425 4.77686C39.5384 3.40913 41.4961 3.1651 43.1235 4.14338C45.2891 5.44524 45.8323 8.18071 44.3394 10.2657C44.0334 10.693 43.9408 10.9135 43.911 11.2866C43.876 11.7241 43.9077 11.8151 44.3044 12.4162C45.6092 14.3938 45.4811 16.3451 43.9382 17.9891C43.2334 18.74 43.1389 18.9079 43.1389 19.4089C43.1389 19.9144 43.2356 20.0854 43.935 20.8162C44.5966 21.5077 44.8597 21.9675 45.0759 22.81C45.3733 23.9698 45.1048 25.2254 44.3214 26.3378C43.6524 27.2879 43.6678 27.6273 44.4312 28.7522C44.897 29.4387 45.1163 30.0592 45.1787 30.8682C45.3811 33.4925 42.9072 35.7328 40.3177 35.2701C39.4539 35.1157 38.7319 34.7433 37.9508 34.049C37.3509 33.5158 37.2851 33.4821 36.8422 33.4821C36.2722 33.4821 36.1 33.5659 35.4841 34.1428C34.5069 35.0582 33.1765 35.4903 31.9715 35.2837C30.9951 35.1162 30.3763 34.7971 29.5962 34.0589C28.5435 33.0624 27.8472 32.9827 27.1159 33.775C26.924 33.9829 26.5239 34.3424 26.2268 34.5741C25.9298 34.8058 25.6236 35.1172 25.5466 35.2662C25.4283 35.4951 25.4066 36.2261 25.4066 39.998V44.4593H23.8117H22.2167L22.2163 39.9793C22.2159 34.8578 22.2729 35.2142 21.3445 34.5283C20.4272 33.8507 19.8548 32.9038 19.6632 31.7473C19.379 30.0325 20.3577 28.1764 21.9625 27.3864C23.6429 26.5591 25.4614 26.8856 26.8708 28.2676C27.9279 29.3041 28.4556 29.2939 29.5949 28.2157C30.3653 27.4865 30.9677 27.1713 31.9309 26.9939C33.0327 26.7909 34.3534 27.1486 35.2145 27.8833C35.986 28.5417 36.4251 28.6425 37.099 28.3163C37.5228 28.1111 37.8849 27.5491 37.8849 27.0964C37.8849 26.9709 37.6726 26.4459 37.4131 25.9298C36.8579 24.8256 36.7146 24.1383 36.8458 23.2113C36.9758 22.2936 37.3891 21.4966 38.1547 20.6878C39.1642 19.6213 39.1603 19.1504 38.1336 18.0878C36.6073 16.5083 36.3762 14.5284 37.5018 12.6752C37.8709 12.0674 37.9271 11.7311 37.7383 11.2594C37.5424 10.7696 37.1527 10.4375 36.6804 10.3576C36.2146 10.2789 35.809 10.4443 35.1489 10.982C33.4939 12.33 31.1757 12.2296 29.5586 10.7399C28.9044 10.1373 28.7063 10.0267 28.2805 10.0267C27.7847 10.0267 27.5314 10.1571 26.9014 10.7362C26.5851 11.0271 26.0456 11.398 25.7023 11.5606C25.1147 11.8389 25.0151 11.8563 23.9993 11.8563C22.9835 11.8563 22.8839 11.8389 22.2963 11.5606C21.9531 11.398 21.4135 11.0271 21.0972 10.7362C20.4672 10.1571 20.2139 10.0267 19.7181 10.0267C19.2923 10.0267 19.0942 10.1373 18.44 10.7399C16.8226 12.2298 14.5049 12.3302 12.8497 10.982C12.1896 10.4443 11.784 10.2789 11.3182 10.3576C10.8459 10.4375 10.4562 10.7696 10.2603 11.2594C10.0715 11.7311 10.1277 12.0674 10.4968 12.6752C10.8852 13.3147 11.0394 13.7235 11.1476 14.401C11.3556 15.7031 10.8979 17.0189 9.86499 18.0878C8.8383 19.1504 8.83445 19.6213 9.84388 20.6878C10.6095 21.4966 11.0228 22.2936 11.1528 23.2113C11.3795 24.8115 10.6071 26.4495 9.19942 27.3541C8.37951 27.8811 8.38467 27.8632 8.3311 30.3389C8.27931 32.7314 8.25491 32.8334 7.64582 33.2048C7.04996 33.5681 6.20463 33.3394 5.87551 32.7257C5.72483 32.4448 5.70409 32.1639 5.70409 30.4072C5.70409 28.0527 5.65634 27.8829 4.85632 27.3906C3.25845 26.4073 2.47644 24.5204 2.93589 22.7565C3.14333 21.9602 3.41306 21.4961 4.06362 20.8162C4.76297 20.0854 4.8597 19.9144 4.8597 19.4089C4.8597 18.9079 4.76522 18.74 4.06043 17.9891C2.51754 16.3451 2.38938 14.3938 3.69425 12.4162C4.09093 11.8151 4.12264 11.7241 4.08764 11.2866C4.05781 10.9135 3.9652 10.693 3.65925 10.2657C2.35129 8.43909 2.56848 6.15454 4.19188 4.66446C4.46959 4.40955 4.86017 4.11767 5.05982 4.01578C5.88245 3.59611 7.05831 3.44806 7.94502 3.6525Z" fill="#16A34A"/>
    </g>
    <defs>
        <clipPath id="clip0_1160_4824">
            <rect width="48" height="48" fill="white"/>
        </clipPath>
    </defs>
</svg>
