<svg width="48" height="43" viewBox="0 0 48 43" fill="none" xmlns="http://www.w3.org/2000/svg">
    <path fill-rule="evenodd" clip-rule="evenodd" d="M43.7306 0.24364C43.5105 0.377652 43.2469 0.616549 43.1449 0.774438C42.8173 1.28211 42.4195 2.65661 42.279 3.76596C42.0966 5.20559 42.364 6.86773 43.0753 8.71752C44.3171 11.9466 44.4705 12.4764 44.4755 13.5568C44.4865 15.971 43.1413 18.0885 40.9171 19.1582C40.4109 19.4015 39.4896 19.815 38.8694 20.077C35.7631 21.3894 34.1375 22.8255 32.9978 25.2645C32.2771 26.8066 32.042 27.8195 32.042 29.3816C32.042 30.9099 32.2796 31.9155 33.1784 34.1897C34.4007 37.2826 34.541 38.4278 33.9257 40.29C33.6106 41.2441 33.6464 41.7796 34.0608 42.3053C34.6173 43.0112 35.645 43.2107 36.3903 42.7573C37.2186 42.2534 37.8046 40.4241 37.8046 38.3423C37.8046 36.7442 37.6021 35.7575 36.9095 33.9824C35.5578 30.5175 35.3601 29.5569 35.7147 28.1773C36.0461 26.887 36.5396 26.0021 37.4228 25.1144C38.2724 24.2603 38.6886 24.0226 41.3407 22.8775C44.2269 21.6314 45.8624 20.2342 46.9505 18.0849C47.8123 16.3826 48.0067 15.5563 47.9998 13.6253C47.9928 11.6989 47.8813 11.215 46.8336 8.56239C45.6963 5.68275 45.5744 4.67029 46.147 2.86112C46.5024 1.73877 46.4863 1.32874 46.0638 0.736809C45.5374 -0.00100687 44.4949 -0.221402 43.7306 0.24364ZM27.8442 2.72586C27.1597 3.04527 26.5794 3.74095 26.3474 4.5204C26.241 4.87768 26.1541 5.23396 26.1541 5.31209C26.1541 5.39023 26.241 5.74651 26.3474 6.10379C27.2494 9.13481 31.6339 8.6924 31.887 5.54474C31.9417 4.8668 31.9034 4.66254 31.6109 4.06573C31.1115 3.04714 30.3825 2.57785 29.2233 2.52872C28.5684 2.50109 28.2192 2.55097 27.8442 2.72586ZM32.7115 8.63502C29.4571 9.2467 28.8584 13.5643 31.8186 15.0741C32.5854 15.4653 33.925 15.494 34.711 15.1364C35.3829 14.8306 36.1311 14.084 36.4375 13.4134C36.7964 12.6281 36.767 11.2936 36.3737 10.5192C35.6847 9.16244 34.1382 8.36687 32.7115 8.63502ZM23.7423 10.0086C23.0205 10.3889 22.587 11.1349 22.5923 11.9879C22.5974 12.8266 22.8525 13.3584 23.4781 13.8346C23.8472 14.1155 24.0921 14.1904 24.7623 14.227C25.5281 14.269 25.6311 14.2429 26.1324 13.8787C26.7282 13.4457 27.1492 12.6828 27.1535 12.0274C27.1567 11.5575 26.8708 10.807 26.5565 10.4601C25.9223 9.76037 24.6125 9.55022 23.7423 10.0086ZM9.01957 12.4921C4.69334 13.5526 1.56324 16.8498 0.288697 21.6886C0.0172276 22.7195 -0.0895062 25.2096 0.0852515 26.439C0.583593 29.9448 2.42275 33.0163 5.35855 35.246C8.32004 37.4951 11.4434 38.5478 15.13 38.5393C18.3721 38.5319 21.336 37.6316 24.0615 35.8263C25.0413 35.1774 26.4323 33.9264 26.6865 33.4659C27.407 32.1601 26.1807 30.6041 24.689 30.931C24.4925 30.9741 23.9385 31.3491 23.4578 31.7643C20.7364 34.1151 17.8508 35.1423 14.4655 34.9655C9.37309 34.6995 5.06591 31.4997 3.85175 27.0808C3.50136 25.8058 3.47605 23.5514 3.79851 22.3631C4.34007 20.3676 5.65871 18.3165 7.08358 17.2534C9.97316 15.0975 13.7576 15.2886 16.3931 17.7236C18.2728 19.4602 18.7548 21.9443 17.6462 24.183C16.876 25.7384 15.5902 26.6474 14.0433 26.7299C11 26.8924 9.05753 24.0368 10.7415 21.8761C11.5396 20.852 11.6432 20.3812 11.2491 19.5689C10.9469 18.9459 10.3705 18.5842 9.68052 18.5842C9.03673 18.5842 8.55405 18.8658 7.98931 19.5712C6.37215 21.5914 6.09479 24.3105 7.27625 26.564C7.75806 27.483 9.06655 28.8207 9.9937 29.342C15.1915 32.2646 21.3924 28.5479 21.7343 22.3051C21.8166 20.8001 21.6422 19.6645 21.1337 18.396C19.9862 15.5329 17.2589 13.2857 13.9797 12.5012C12.6197 12.176 10.3266 12.1717 9.01957 12.4921Z" fill="#16A34A"/>
</svg>
