<svg width="48" height="48" viewBox="0 0 48 48" fill="none" xmlns="http://www.w3.org/2000/svg">
    <g clip-path="url(#clip0_1160_2892)">
        <path fill-rule="evenodd" clip-rule="evenodd" d="M14.2612 0.0220051C11.3094 0.360693 8.71417 1.62534 6.61818 3.74617C5.12737 5.2547 4.19279 6.75498 3.58012 8.6232C2.98132 10.4491 2.98301 10.4309 2.94062 15.8525L2.9019 20.8193L1.45525 23.6863C-0.1643 26.8956 -0.140577 26.8119 0.157041 28.26C0.456816 29.7187 1.21783 31.0928 2.27975 32.093L2.79444 32.5778L2.14585 33.2182C1.45469 33.9008 0.797098 34.8669 0.490384 35.6507C0.0426448 36.7947 0.00851343 37.2588 0.00851343 42.2038C0.00851343 46.6783 0.0156398 46.8668 0.197267 47.223C0.31879 47.4612 0.517952 47.6604 0.756215 47.7819C1.12397 47.9695 1.2619 47.9707 23.3097 47.9707C45.3576 47.9707 45.4955 47.9695 45.8632 47.7819C46.4417 47.4868 46.65 46.991 46.5794 46.0769C46.4288 44.1223 45.4847 42.274 44.0333 41.0917L43.519 40.6727L44.0033 40.3248C46.0091 38.8837 47.4686 36.4878 47.8779 33.9641C48.4305 30.5573 47.077 26.969 44.4291 24.8206L43.8077 24.3164L44.1679 23.8835C45.5668 22.2022 45.5164 19.9168 44.0442 18.2795C43.5546 17.7348 42.6001 17.1952 41.8476 17.0377C41.5743 16.9804 40.9292 16.9336 40.4139 16.9336C39.273 16.9336 38.8414 17.1066 38.5482 17.6813C38.3091 18.15 38.3091 18.5303 38.5482 18.9989C38.8387 19.5686 39.2756 19.7466 40.3823 19.7466C41.1392 19.7466 41.3472 19.7802 41.652 19.9514C42.0358 20.1672 42.3914 20.7451 42.3914 21.1532C42.3914 21.5558 42.0359 22.1392 41.6647 22.3456C41.3414 22.5254 41.124 22.5447 38.9689 22.5845C36.9585 22.6217 36.5191 22.6563 35.883 22.8281C35.4751 22.9384 35.1062 23.0285 35.0633 23.0285C35.0203 23.0285 34.7347 22.5288 34.4286 21.918L33.8719 20.8076L33.8332 15.8466C33.7996 11.5471 33.7726 10.7921 33.6306 10.1841C32.9859 7.42391 31.9422 5.51078 30.0741 3.66459C28.2304 1.8425 26.3305 0.802901 23.7786 0.219667C23.004 0.042634 22.5916 0.0250057 18.762 0.00550206C16.467 -0.00612511 14.4417 0.00128252 14.2612 0.0220051ZM23.4533 3.0295C25.3731 3.56201 26.8804 4.41182 28.1404 5.67187C29.6162 7.14758 30.5722 9.01393 30.9074 11.0732C31.0153 11.7353 31.0449 12.9481 31.0452 16.7061L31.0455 21.4951L31.7614 22.9294L32.4773 24.3637L32.1599 24.6001C31.5223 25.075 30.3294 26.4088 29.8342 27.2009C29.2582 28.1216 28.7502 29.3892 28.5281 30.4596L28.3773 31.1863H26.8984H25.4195V29.213V27.2397L26.0197 26.5024C27.4009 24.8055 28.2097 22.9346 28.5076 20.7479C28.5646 20.3295 28.6076 18.3843 28.6076 16.2199C28.6076 10.9714 28.9059 11.3773 24.9975 11.3076C22.4148 11.2614 22.3637 11.2568 21.8563 11.0178C20.8546 10.5461 20.3526 9.93782 19.9371 8.6924C19.6266 7.76176 19.4193 7.43564 19.0168 7.24463C18.5974 7.04566 18.1764 7.04566 17.7571 7.24463C17.3546 7.43564 17.1472 7.76176 16.8368 8.6924C16.4213 9.93782 15.9193 10.5461 14.9175 11.0178C14.4085 11.2575 14.3666 11.2613 11.6826 11.3076C8.61543 11.3605 8.5106 11.3828 8.16722 12.0559C7.98756 12.4081 7.97875 12.6035 7.97931 16.2501C7.97997 20.5843 8.04326 21.2692 8.59827 22.9398C9.08052 24.3917 9.74476 25.5259 10.906 26.8803L11.3544 27.4032V29.3001V31.1969L8.65856 31.1681L5.96275 31.1394L5.32063 30.8255C4.13869 30.2477 3.17692 29.0238 2.91559 27.765L2.80991 27.2563L4.26912 24.3646L5.72833 21.473V16.7253C5.72833 13.8725 5.76837 11.6848 5.82866 11.244C6.13987 8.96864 7.47475 6.5651 9.24161 5.09858C10.5661 3.99915 12.4904 3.11624 14.0736 2.88135C14.4109 2.83137 16.484 2.80052 18.7151 2.81224C22.4789 2.83222 22.7941 2.84666 23.4533 3.0295ZM19.0489 12.472C19.8021 13.1825 20.9237 13.7751 21.9032 13.98C22.3305 14.0694 23.124 14.1179 24.1771 14.119L25.7946 14.1206L25.7913 17.0977C25.7878 20.2977 25.7254 20.939 25.2981 22.1664C24.7761 23.6658 23.5909 25.2365 22.271 26.1784C21.4607 26.7566 20.2535 27.3028 19.2662 27.5379C18.4602 27.7297 18.4088 27.7311 17.6441 27.5813C14.4151 26.9488 11.9994 24.6824 11.0425 21.3876C10.8708 20.7963 10.8482 20.4033 10.8145 17.4259L10.7771 14.1206L12.4957 14.119C13.6376 14.1179 14.4345 14.0713 14.8707 13.98C15.8564 13.7738 16.9773 13.1804 17.7154 12.4741C18.0589 12.1454 18.356 11.8751 18.3755 11.8733C18.3951 11.8716 18.6981 12.141 19.0489 12.472ZM15.2702 20.6901C14.8817 20.8953 14.5425 21.4505 14.5425 21.8812C14.5425 22.3168 14.9898 23.0838 15.5341 23.5812C17.1647 25.0715 19.6092 25.0715 21.2398 23.5812C21.784 23.0838 22.2314 22.3168 22.2314 21.8812C22.2314 21.4362 21.8923 20.894 21.4837 20.6855C20.7887 20.331 20.0584 20.5233 19.6275 21.1745C19.3536 21.5885 18.8177 21.9033 18.3869 21.9033C17.9562 21.9033 17.4203 21.5885 17.1464 21.1745C16.7159 20.5242 15.9562 20.328 15.2702 20.6901ZM39.5587 25.522C40.9108 25.8012 42.0174 26.3908 43.0355 27.3743C44.3664 28.6602 45.0487 30.1476 45.1718 32.0321C45.3951 35.4486 42.9696 38.5841 39.5587 39.2885C34.6927 40.2936 30.2834 35.8846 31.2885 31.0189C31.5862 29.5772 32.192 28.4769 33.269 27.4212C34.9889 25.7353 37.2648 25.0481 39.5587 25.522ZM22.1705 32.2865C21.1518 33.193 19.8608 33.6625 18.3869 33.6625C16.927 33.6625 15.6684 33.2095 14.6128 32.3039L14.1674 31.9218V30.6532C14.1674 29.4806 14.1798 29.39 14.3315 29.4555C15.9833 30.1691 17.7029 30.5795 18.6768 30.4927C19.524 30.4172 20.9082 30.0501 21.8094 29.6621L22.5596 29.3391L22.588 30.6143L22.6165 31.8895L22.1705 32.2865ZM34.6801 31.1921C33.5335 31.7975 33.8103 33.9593 35.2141 35.3631C36.8285 36.9775 39.3406 37.0273 41.0367 35.4785C41.81 34.7722 42.3914 33.4699 42.3914 32.4438C42.3914 31.693 41.7157 30.9987 40.9849 30.9987C40.8261 30.9987 40.5296 31.0837 40.3261 31.1875C39.91 31.3998 39.5784 31.94 39.5784 32.4053C39.5784 33.1219 38.8852 33.8118 38.1649 33.8118C37.4752 33.8118 36.7654 33.0984 36.7654 32.4053C36.7654 31.94 36.4337 31.3998 36.0177 31.1875C35.5557 30.9519 35.1325 30.9533 34.6801 31.1921ZM8.54135 35.4767V36.9541L8.04907 37.1797C7.44165 37.458 6.49675 38.3879 6.20636 38.993C5.37211 40.7314 5.66625 42.5715 6.99006 43.8964C7.5823 44.4891 8.17266 44.8265 8.96331 45.0244C9.36669 45.1253 8.97062 45.1428 6.12684 45.1497L2.82154 45.1576V41.5053C2.82154 39.1371 2.85895 37.6783 2.92787 37.3561C3.10115 36.5466 3.47397 35.8703 4.08327 35.2606C5.00585 34.3372 5.87817 34.0204 7.53335 34.0073L8.54135 33.9993V35.4767ZM12.5805 34.2438C13.2631 34.9783 14.8953 35.869 16.183 36.2098L16.9335 36.4083L16.9579 40.783L16.9823 45.1576L13.7229 45.1497C10.9561 45.1429 10.5345 45.1244 10.9324 45.0275C12.0878 44.7462 13.0898 43.9678 13.6286 42.933C14.319 41.6069 14.3376 40.3357 13.6861 39.0005C13.3828 38.3791 12.451 37.4566 11.8467 37.1797L11.3544 36.9541V35.4767V33.9993H11.8538C12.2713 33.9993 12.3903 34.0393 12.5805 34.2438ZM28.6475 34.8432C28.9365 35.9461 29.3285 36.8293 29.9569 37.7934C30.5295 38.6719 31.6534 39.8615 32.3834 40.3617L32.8304 40.668L32.3133 41.0893C31.2767 41.9337 30.2697 43.491 30.0008 44.6654L29.8882 45.1576H24.8398H19.7916L19.816 40.7856L19.8403 36.4137L20.5401 36.2319C21.8278 35.8975 23.0818 35.2415 23.9507 34.4478L24.4349 34.0056L26.4368 34.0258L28.4387 34.0462L28.6475 34.8432ZM10.6067 39.7203C11.0227 39.9326 11.3544 40.4728 11.3544 40.9381C11.3544 41.6548 10.6612 42.3446 9.94093 42.3446C9.50481 42.3446 8.92552 41.9799 8.71923 41.5755C8.37295 40.8967 8.5903 40.1557 9.25333 39.7543C9.70229 39.4825 10.1199 39.472 10.6067 39.7203ZM40.5461 42.391C41.323 42.5934 41.7944 42.8612 42.4135 43.4516C42.9173 43.9323 43.5166 44.8015 43.5166 45.0519C43.5166 45.1291 42.0777 45.1576 38.1719 45.1576C33.9581 45.1576 32.8273 45.1328 32.8279 45.0404C32.8295 44.8037 33.3563 44.0154 33.8391 43.5278C34.4052 42.9559 35.0129 42.5957 35.7438 42.3993C36.4693 42.2041 39.8065 42.1984 40.5461 42.391Z" fill="#16A34A"/>
    </g>
    <defs>
        <clipPath id="clip0_1160_2892">
            <rect width="48" height="48" fill="white"/>
        </clipPath>
    </defs>
</svg>
