<svg width="48" height="48" viewBox="0 0 48 48" fill="none" xmlns="http://www.w3.org/2000/svg">
    <g clip-path="url(#clip0_1667_27068)">
        <path fill-rule="evenodd" clip-rule="evenodd" d="M23.0475 0.425627L22.6214 0.851254V9.22233V17.5934L21.1802 18.3101L19.7389 19.0267V16.4545C19.7389 14.5752 19.6863 13.6511 19.5435 13.0243C19.0635 10.9163 17.3231 9.20018 15.2051 8.74651C14.3128 8.55535 12.2705 8.68579 11.1296 9.00689C9.01009 9.6034 7.60932 10.4941 5.76238 12.4193C2.88263 15.4211 1.09723 18.9053 0.227091 23.2217C0.018799 24.2551 0 25.2027 0 34.6761V45.0038L0.271833 45.5693C0.68754 46.434 1.49051 47.264 2.29172 47.657C2.98051 47.9948 3.07726 48.0078 4.82507 47.998C7.2752 47.9841 9.0641 47.5752 11.129 46.5573C15.4786 44.413 18.3498 40.5872 19.4478 35.4725C19.6251 34.646 19.6667 33.5039 19.7073 28.3471L19.7556 22.2061L21.8778 21.152L24 20.098L26.1222 21.152L28.2444 22.2061L28.2927 28.3471C28.3433 34.7789 28.3676 35.0963 28.9686 37.1612C30.3499 41.9074 34.2239 45.9026 38.8512 47.3535C40.5096 47.8735 41.2719 47.9871 43.1749 47.998C44.9227 48.0078 45.0195 47.9948 45.7083 47.657C46.5095 47.264 47.3125 46.434 47.7282 45.5693L48 45.0038V34.6761C48 25.2027 47.9812 24.2551 47.7729 23.2217C46.9028 18.9053 45.1174 15.4211 42.2376 12.4193C40.3907 10.4941 38.9899 9.6034 36.8704 9.00689C35.7295 8.68579 33.6872 8.55535 32.7949 8.74651C30.6769 9.20018 28.9365 10.9163 28.4565 13.0243C28.3146 13.6475 28.2611 14.5695 28.2611 16.3925C28.2611 17.9622 28.2147 18.9028 28.1373 18.9028C28.0692 18.9028 27.4207 18.6083 26.696 18.2484L25.3786 17.5939V9.22258V0.851254L24.9525 0.425627C24.6032 0.0767382 24.4315 0 24 0C23.5685 0 23.3968 0.0767382 23.0475 0.425627ZM15.2075 11.7573C15.9296 12.1252 16.4683 12.7513 16.6754 13.4631C16.8219 13.9663 16.8538 14.766 16.8273 17.2772L16.7937 20.4545L14.6005 21.5486L12.4073 22.6427L9.60639 22.6505C6.49278 22.6593 6.11279 22.7376 5.74571 23.4468C5.47513 23.9694 5.59332 24.7344 6.0089 25.1499C6.33149 25.4725 6.35179 25.4753 8.58736 25.5142C10.2249 25.5427 10.8391 25.5941 10.8347 25.702C10.8315 25.7837 10.5893 27.0336 10.2967 28.4795L9.76455 31.1083L8.04934 31.1709C6.40919 31.2308 6.31971 31.2478 6.00877 31.5586C5.59332 31.9741 5.47513 32.7391 5.74571 33.2617C6.05038 33.8502 6.61986 34.0502 7.99081 34.0502H9.17615L8.74302 36.2016C8.3327 38.2406 8.32042 38.3748 8.50853 38.7687C8.71783 39.2071 9.36627 39.6822 9.75653 39.683C10.162 39.6838 10.8459 39.2855 11.0208 38.9467C11.1138 38.7667 11.7972 35.5762 12.5395 31.8567L13.8892 25.0941L15.3415 24.3897L16.7937 23.6854L16.8266 28.4376C16.8521 32.1346 16.818 33.4659 16.6734 34.4327C16.2625 37.1774 15.1704 39.4346 13.3001 41.4044C11.0172 43.8089 8.40815 45.0033 5.13838 45.1407C3.53658 45.2081 3.46001 45.1873 3.0334 44.569C2.83676 44.2841 2.81984 43.5033 2.81984 34.7272C2.81984 24.2982 2.82172 24.2661 3.57606 21.6811C4.32401 19.1177 5.79898 16.531 7.63563 14.5612C8.69314 13.4272 9.44835 12.829 10.4724 12.3146C12.0232 11.5356 14.2566 11.2727 15.2075 11.7573ZM35.8484 11.7059C37.5439 12.1349 38.8581 12.9585 40.2996 14.4957C42.1925 16.5145 43.6647 19.0792 44.4239 21.6811C45.1783 24.2661 45.1802 24.2982 45.1802 34.7272C45.1802 45.0202 45.2119 44.4933 44.5593 45.0413C44.2695 45.2846 41.6171 45.1444 40.3551 44.819C36.4612 43.8153 33.1941 40.6784 31.837 36.6407C31.2338 34.8458 31.1375 33.6528 31.1734 28.4309L31.2063 23.6717L32.6475 24.3857L34.0888 25.0995L35.4697 31.922C36.2292 35.6744 36.9181 38.864 37.0006 39.01C37.1642 39.2993 37.8741 39.6837 38.2435 39.683C38.6337 39.6822 39.2822 39.2071 39.4915 38.7687C39.6796 38.3748 39.6673 38.2406 39.257 36.2016L38.8239 34.0502H40.0092C41.3801 34.0502 41.9496 33.8502 42.2543 33.2617C42.5249 32.7391 42.4067 31.9741 41.9912 31.5586C41.6803 31.2478 41.5908 31.2308 39.9507 31.1709L38.2354 31.1083L37.7033 28.4795C37.4107 27.0336 37.1685 25.7837 37.1653 25.702C37.1609 25.5941 37.7751 25.5427 39.4126 25.5142C41.6482 25.4753 41.6685 25.4725 41.9911 25.1499C42.4067 24.7344 42.5249 23.9694 42.2543 23.4468C41.8867 22.7367 41.5061 22.6584 38.4236 22.6584H35.6527L33.3981 21.5311L31.1436 20.4037V17.2349C31.1436 13.6743 31.2343 13.1078 31.9164 12.411C32.581 11.732 33.0934 11.5287 34.1564 11.5225C34.6762 11.5195 35.4375 11.602 35.8484 11.7059Z" fill="#16A34A"/>
    </g>
    <defs>
        <clipPath id="clip0_1667_27068">
            <rect width="48" height="48" fill="white"/>
        </clipPath>
    </defs>
</svg>
