<svg width="23" height="48" viewBox="0 0 23 48" fill="none" xmlns="http://www.w3.org/2000/svg">
    <path fill-rule="evenodd" clip-rule="evenodd" d="M4.77889 0.425L4.34444 0.85V5.29387C4.34444 9.89312 4.28068 10.6309 3.80343 11.5535C3.66364 11.8235 3.01453 12.5912 2.36069 13.2596C0.513794 15.1477 -0.119344 16.7069 0.0389723 18.9774C0.122539 20.176 0.46805 21.3104 1.00063 22.1346L1.34921 22.6741L0.799506 23.7434C0.203806 24.902 0 25.719 0 26.9484C0 28.9278 0.663805 30.3806 2.36069 32.1154C3.01453 32.7838 3.66364 33.5515 3.80343 33.8215C4.29755 34.7766 4.34444 35.4336 4.34444 41.3936V47.15L4.77889 47.575L5.21333 48H11.4852H17.757L18.1743 47.6354L18.5917 47.2709L18.6556 41.0416L18.7194 34.8125L19.0642 34.0928C19.2941 33.613 19.8122 32.9609 20.6185 32.1366C22.3377 30.379 23 28.9363 23 26.9484C23 25.719 22.7962 24.902 22.2005 23.7434L21.6508 22.6741L21.9994 22.1346C22.8726 20.7831 23.2346 18.4697 22.8224 16.875C22.4543 15.4508 21.9179 14.5667 20.6116 13.2314C19.8113 12.4132 19.2937 11.7611 19.0642 11.2823L18.7194 10.5625L18.6556 5.64575L18.5917 0.729125L18.1743 0.3645L17.757 0H11.4852H5.21333L4.77889 0.425ZM15.8444 6.85225C15.8444 11.272 15.8732 11.4776 16.7095 13.043C17.024 13.6317 17.5298 14.2555 18.3314 15.043C19.798 16.4839 20.1285 17.1981 20.0333 18.7206C19.9321 20.3363 19.1157 21.5696 17.6972 22.2498C17.1576 22.5085 16.8696 22.5566 15.8444 22.5594C14.4199 22.563 13.9326 22.3774 12.7355 21.3743C11.7073 20.5128 11.2927 20.5128 10.2645 21.3743C9.06737 22.3774 8.58015 22.563 7.15556 22.5594C6.13039 22.5566 5.84238 22.5085 5.30278 22.2498C3.88432 21.5696 3.06795 20.3363 2.96674 18.7206C2.87155 17.1981 3.20198 16.4839 4.66862 15.043C5.47017 14.2555 5.97604 13.6317 6.2905 13.043C7.12681 11.4776 7.15556 11.272 7.15556 6.85225V2.875H11.5H15.8444V6.85225ZM12.0887 24.4958C12.4173 24.6996 13.0662 24.9945 13.5305 25.1511C15.1088 25.6834 17.8511 25.5042 19.0105 24.7931C19.3983 24.5554 19.4852 24.6292 19.8085 25.4711C20.0257 26.037 20.073 26.3844 20.0333 27.125C19.964 28.4194 19.6141 29.0665 18.2649 30.3955C17.5269 31.1225 17.0153 31.7595 16.7089 32.333C15.8465 33.9473 15.8444 33.965 15.8444 39.8353V45.125H11.5H7.15556V39.8353C7.15556 33.9621 7.15389 33.948 6.28782 32.327C5.97821 31.7475 5.46902 31.1124 4.7288 30.3829C3.38177 29.0549 3.03574 28.4154 2.96674 27.125C2.92701 26.3844 2.97428 26.037 3.19151 25.4711C3.51478 24.6292 3.60167 24.5554 3.98948 24.7931C5.14842 25.504 7.89117 25.6834 9.46808 25.1516C9.93178 24.9952 10.5643 24.7046 10.8736 24.5059C11.183 24.3071 11.4485 24.1401 11.4636 24.1348C11.4788 24.1294 11.76 24.2917 12.0887 24.4958Z" fill="#16A34A"/>
</svg>
