<svg viewBox="0 0 20 21" fill="none" xmlns="http://www.w3.org/2000/svg">
    <g clip-path="url(#clip0_986_1012)">
        <path d="M19.7557 18.695L14.7815 13.7208C16.137 12.063 16.8035 9.94757 16.643 7.81213C16.4826 5.67669 15.5075 3.6846 13.9195 2.24793C12.3315 0.811253 10.252 0.0399043 8.11119 0.0934308C5.9704 0.146957 3.93207 1.02126 2.41783 2.53551C0.903588 4.04975 0.0292815 6.08807 -0.024245 8.22886C-0.0777715 10.3697 0.693577 12.4491 2.13025 14.0372C3.56693 15.6252 5.55901 16.6003 7.69445 16.7607C9.8299 16.9211 11.9453 16.2547 13.6032 14.8992L18.5773 19.8733C18.7345 20.0251 18.945 20.1091 19.1635 20.1072C19.382 20.1053 19.591 20.0177 19.7455 19.8632C19.9 19.7087 19.9877 19.4997 19.9895 19.2812C19.9914 19.0627 19.9075 18.8522 19.7557 18.695ZM8.33315 15.1175C7.01461 15.1175 5.72568 14.7265 4.62935 13.994C3.53302 13.2614 2.67854 12.2202 2.17395 11.0021C1.66937 9.78388 1.53735 8.44343 1.79458 7.15023C2.05182 5.85702 2.68676 4.66913 3.61911 3.73678C4.55146 2.80443 5.73934 2.16949 7.03255 1.91226C8.32576 1.65502 9.6662 1.78705 10.8844 2.29163C12.1025 2.79621 13.1437 3.6507 13.8763 4.74703C14.6088 5.84335 14.9998 7.13229 14.9998 8.45083C14.9978 10.2183 14.2948 11.9129 13.045 13.1627C11.7952 14.4125 10.1007 15.1155 8.33315 15.1175Z" fill="currentColor"/>
    </g>
    <defs>
        <clipPath id="clip0_986_1012">
            <rect width="20" height="20" fill="currentColor" transform="translate(0 0.117188)"/>
        </clipPath>
    </defs>
</svg>
