<svg width="48" height="48" viewBox="0 0 48 48" fill="none" xmlns="http://www.w3.org/2000/svg">
    <g clip-path="url(#clip0_1160_4360)">
        <path fill-rule="evenodd" clip-rule="evenodd" d="M18.6639 0.129503C18.071 0.392968 17.7752 0.939118 17.7711 1.77789C17.7673 2.56416 17.2021 3.37809 16.439 3.6964C16.2103 3.79176 15.1385 3.92255 13.3449 4.07407C11.8355 4.20167 10.4107 4.33031 10.1786 4.36003C8.82399 4.53349 7.21085 5.23922 6.12868 6.1319C4.92162 7.12754 3.846 8.82721 3.46947 10.3341L3.31139 10.967H2.25837C1.31974 10.967 1.17085 10.9901 0.886856 11.1798C0.711619 11.2968 0.494284 11.5395 0.403806 11.7189C0.248915 12.0263 0.240758 12.8768 0.263167 26.4071C0.286982 40.7477 0.287263 40.7693 0.480314 41.0277C0.848227 41.5205 1.11872 41.6508 1.87471 41.6993L2.58409 41.7448L2.58447 44.3813C2.58475 46.8596 2.59609 47.0362 2.77386 47.3277C2.88309 47.5068 3.13062 47.714 3.35958 47.8179C3.74662 47.9936 4.24139 47.998 24.1019 47.9998C43.2873 48.0017 44.4664 47.9924 44.7741 47.8378C44.9535 47.7477 45.1962 47.5305 45.3132 47.3553C45.5219 47.0429 45.526 46.9856 45.526 44.3896V41.7426L46.4156 41.7037C47.3715 41.6618 47.6059 41.5622 48.0048 41.0277C48.1979 40.7693 48.1982 40.7477 48.222 26.4071C48.2444 12.8753 48.2362 12.0267 48.0813 11.7237C47.7882 11.1506 47.5047 11.0196 46.4428 10.967L45.497 10.9201L45.338 10.2638C44.7178 7.70313 42.8973 5.594 40.5122 4.67319C39.409 4.24733 38.7734 4.15057 35.3531 3.88767C33.6514 3.75688 32.1325 3.62449 31.9777 3.59345C30.9647 3.39046 30.1519 2.44021 30.15 1.45658C30.1491 0.999312 29.8121 0.427846 29.41 0.201886C29.0478 -0.00176034 29.0172 -0.00288545 23.9954 0.000771177C19.9963 0.00367773 18.8866 0.030493 18.6639 0.129503ZM27.7456 3.39712C28.4017 4.94069 29.8852 6.09224 31.573 6.36818C31.8987 6.42143 33.5576 6.5721 35.2593 6.70309C38.893 6.98277 39.4439 7.10419 40.5244 7.86299C41.5102 8.55531 42.3148 9.67949 42.5613 10.7092L42.623 10.967H24.4319C9.00082 10.967 6.24072 10.9473 6.24072 10.8372C6.24072 10.7658 6.40789 10.3735 6.6121 9.96536C7.27461 8.64185 8.5699 7.61218 10.0051 7.26827C10.3326 7.18979 11.898 7.01718 13.4837 6.8847C15.0695 6.75212 16.606 6.58148 16.8983 6.50535C18.4281 6.10687 19.7639 4.87487 20.3206 3.34902L20.5173 2.8099H24.0067H27.496L27.7456 3.39712ZM10.0272 14.0376C9.67776 15.5096 8.95178 17.2213 8.00931 18.7959C6.85991 20.7162 6.44905 22.21 6.55228 24.0933C6.58201 24.6348 6.69574 25.4154 6.80506 25.8279C7.06374 26.8038 7.71575 28.1245 8.27831 28.8122C9.05623 29.7632 9.13939 29.9111 9.46727 30.9276C10.0502 32.7349 10.5804 35.6952 10.7076 37.8526L10.7698 38.9074H6.91129H3.05289V26.3436V13.7798H6.57066H10.0884L10.0272 14.0376ZM35.7023 14.6236C36.08 16.3558 37.0351 18.6796 37.9371 20.0617C38.8609 21.4772 39.2127 22.6442 39.1218 23.9917C38.9841 26.0314 37.756 27.8818 35.9625 28.752C34.9394 29.2483 34.3447 29.3841 33.2435 29.373C31.7979 29.3582 30.5824 28.8748 29.3223 27.8135C28.6579 27.254 28.0413 27.1869 27.4035 27.6048C26.8675 27.9562 26.7041 28.8857 27.0804 29.4441C27.6712 30.3207 29.5235 31.4704 30.9933 31.8727C32.5059 32.2868 34.2862 32.3045 35.5697 31.9182C35.8067 31.8469 36.0136 31.8014 36.0294 31.8173C36.0451 31.833 35.9717 32.2639 35.8662 32.7748C35.5279 34.4129 35.1187 37.7028 35.1187 38.7855C35.1187 38.8848 33.1301 38.9074 24.385 38.9074H13.6513L13.6083 38.6964C13.5846 38.5803 13.5396 38.0424 13.5083 37.501C13.4193 35.9642 12.8482 32.2766 12.6479 31.9457C12.5907 31.8513 12.6042 31.8529 13.3372 32.0277C14.7298 32.3598 16.8082 32.1768 18.3357 31.5877C19.7939 31.0252 21.2334 29.9426 21.44 29.253C21.8287 27.9555 20.3348 26.9058 19.2848 27.7387C17.8211 28.9001 16.6915 29.3555 15.2416 29.3687C14.1427 29.3787 13.5462 29.2451 12.5298 28.7612C11.5186 28.2798 10.4676 27.2666 10.0218 26.3436C9.46418 25.1888 9.39461 24.8892 9.39067 23.6245C9.38748 22.5632 9.4113 22.3914 9.64345 21.8052C9.78446 21.4492 10.1954 20.6411 10.5567 20.0095C11.6706 18.0621 12.3679 16.3803 12.7511 14.7174C12.8402 14.3306 12.9294 13.9613 12.9495 13.8966C12.9784 13.803 15.286 13.7839 24.2571 13.8028L35.5284 13.8267L35.7023 14.6236ZM45.4323 26.3436V38.9074H41.6739H37.9155L37.9749 38.1807C38.1752 35.7288 38.466 33.8745 38.9709 31.8285C39.4029 30.0785 39.6062 29.5446 40.0473 29.0032C41.3809 27.3657 42.0544 25.2724 41.9285 23.1558C41.8318 21.533 41.4225 20.303 40.4966 18.8533C39.6173 17.4765 38.7132 15.3718 38.4481 14.0845L38.3854 13.7798H41.9089H45.4323V26.3436ZM8.17273 42.5874C8.11254 43.4036 7.99159 44.3479 7.87242 44.9314L7.81973 45.1893H6.60835H5.39688V43.4547V41.7202H6.81669H8.23658L8.17273 42.5874ZM37.1312 42.4468C37.2211 43.5452 37.3687 44.8409 37.4252 45.0252C37.4728 45.1809 36.7948 45.1893 24.096 45.1893H10.7168L10.7723 44.7439C10.8028 44.4989 10.8806 43.7185 10.9452 43.0094L11.0626 41.7202H24.0672H37.0716L37.1312 42.4468ZM42.7132 43.4547V45.1893H41.4944C40.824 45.1893 40.2755 45.1679 40.2755 45.1417C40.2755 45.1157 40.2161 44.6832 40.1437 44.1807C40.0712 43.6783 39.9839 42.9192 39.9497 42.4937L39.8876 41.7202H41.3004H42.7132V43.4547Z" fill="#16A34A"/>
    </g>
    <defs>
        <clipPath id="clip0_1160_4360">
            <rect width="48" height="48" fill="white"/>
        </clipPath>
    </defs>
</svg>
