<svg width="41" height="48" viewBox="0 0 41 48" fill="none" xmlns="http://www.w3.org/2000/svg">
    <path fill-rule="evenodd" clip-rule="evenodd" d="M33.3204 0.244752C32.7612 0.587606 32.5385 1.34226 32.821 1.93775C33.1545 2.64085 33.5383 2.80727 34.9893 2.87797L36.2732 2.94053L34.5826 4.80082C33.6527 5.824 32.8361 6.80889 32.7677 6.98933C32.584 7.47508 32.7387 8.04229 33.1676 8.45559L33.5475 8.82159L36.745 8.85575C39.7699 8.88803 39.9644 8.87615 40.3501 8.63665C40.5743 8.49751 40.8171 8.22873 40.8897 8.03953C41.0889 7.52037 40.9434 6.76772 40.5715 6.39371C40.2708 6.09115 40.1504 6.06437 38.8284 6.00619L37.4084 5.94362L38.9652 4.25438C40.7921 2.27197 40.9994 1.97441 41 1.33262C41.0004 0.95123 40.9124 0.762286 40.5773 0.425439L40.154 0L36.9362 0.000500241C33.9663 0.000875628 33.6877 0.0197705 33.3204 0.244752ZM23.324 3.71683C22.9462 3.85497 22.4537 4.43457 22.3803 4.82722C22.29 5.3116 22.61 6.0695 22.9979 6.28973C23.143 6.37207 23.6237 6.46867 24.0658 6.50433L24.8699 6.56927L23.7546 7.79716C23.1413 8.47248 22.5651 9.20061 22.4742 9.41533C22.1583 10.1617 22.5333 10.9371 23.3632 11.2532C23.564 11.3297 24.6662 11.3867 25.9438 11.3867C28.4552 11.3867 29.0422 11.2563 29.3661 10.6267C29.6863 10.0043 29.6022 9.41395 29.1249 8.93421C28.7282 8.53542 28.6498 8.50877 27.871 8.50877H27.0404L27.3085 8.16466C27.456 7.97547 27.8385 7.53902 28.1586 7.19491C29.4244 5.83414 29.5481 5.64945 29.5481 5.12153C29.5481 4.84624 29.4558 4.47924 29.343 4.30619C28.9395 3.6873 28.64 3.62799 25.9755 3.63862C24.6199 3.64401 23.4267 3.67929 23.324 3.71683ZM13.5522 6.46779C13.4153 6.5052 12.7991 6.77273 12.1829 7.06253C6.06459 9.93962 1.80108 15.4345 0.284138 22.3981C0.0321866 23.5546 -0.00179723 24.0492 7.00046e-05 26.5273C0.00193724 28.9591 0.0394064 29.5133 0.275798 30.594C0.668041 32.388 1.10697 33.7707 1.73983 35.2053C4.65645 41.8176 10.3377 46.2967 17.6601 47.7568C19.4296 48.1096 23.5543 48.072 25.378 47.6865C27.4079 47.2573 29.1656 46.6449 30.9797 45.7345C35.1095 43.662 38.203 40.5709 40.4968 36.2248C41.2446 34.8081 41.1003 33.5054 40.1163 32.7889C39.3537 32.2336 38.739 32.2034 37.4368 32.6579C34.3942 33.7196 32.0289 33.99 29.1747 33.6024C25.4859 33.1015 22.0988 31.4081 19.493 28.7621C17.2163 26.4505 15.7242 23.7238 14.9563 20.4725C14.728 19.5053 14.6867 18.9528 14.684 16.8298C14.681 14.5258 14.7073 14.2213 15.014 12.9928C15.1973 12.2589 15.5735 11.0844 15.8501 10.3831C16.42 8.93821 16.4641 8.44308 16.0921 7.67065C15.6891 6.83354 14.4181 6.23167 13.5522 6.46779ZM12.7931 10.417C11.8338 13.133 11.5006 16.7448 11.9387 19.6774C12.2944 22.0592 12.8313 23.7267 13.9427 25.9017C16.4023 30.7148 20.5956 34.2116 25.8137 35.8008C27.8587 36.4237 29.0254 36.5875 31.4154 36.5875C33.6448 36.5875 34.7973 36.4421 36.6828 35.9229C37.686 35.6466 37.6849 35.6307 36.7535 36.985C34.5783 40.1477 31.5328 42.5918 28.1166 43.9156C25.9919 44.739 24.4827 45.0355 21.9547 45.1265C20.1956 45.1898 19.6823 45.1622 18.3786 44.9343C14.4761 44.252 11.2437 42.609 8.43025 39.8781C4.74383 36.2997 2.78287 31.6669 2.78536 26.5422C2.78722 22.6425 3.99819 18.8315 6.24608 15.6511C7.12592 14.4062 8.7717 12.6691 9.89354 11.8012C10.6434 11.2209 12.7261 9.88519 12.881 9.88519C12.936 9.88519 12.8964 10.1244 12.7931 10.417ZM32.2182 12.0813C31.7435 12.3168 31.4154 12.8605 31.4154 13.4116C31.4154 14.2599 32.0906 14.7652 33.2246 14.7652H33.9258L33.6975 15.0641C33.572 15.2286 33.0073 15.8757 32.4424 16.5021C31.5555 17.4855 31.4154 17.7026 31.4154 18.092C31.4154 18.6794 31.7405 19.2183 32.2378 19.4555C32.8332 19.7395 37.2057 19.7298 37.8035 19.4432C38.5603 19.0805 38.8326 18.2647 38.4474 17.5155C38.1894 17.0143 37.8391 16.8456 36.8977 16.7697L36.0937 16.7047L37.2089 15.4732C37.8222 14.7959 38.3922 14.1202 38.4754 13.9716C38.838 13.3239 38.5201 12.4143 37.8129 12.0769C37.2389 11.8032 32.7719 11.8067 32.2182 12.0813Z" fill="#16A34A"/>
</svg>
