<svg width="48" height="48" viewBox="0 0 48 48" fill="none" xmlns="http://www.w3.org/2000/svg">
    <g clip-path="url(#clip0_1667_27106)">
        <path fill-rule="evenodd" clip-rule="evenodd" d="M11.9813 0.191954C11.3308 0.54485 11.3262 0.581352 11.2592 5.85654L11.1966 10.7783L8.68593 8.27256C6.05918 5.65103 5.77419 5.45176 4.98639 5.68528C4.8257 5.73291 3.66726 6.79247 2.41203 8.03979C0.0257445 10.4111 -0.138318 10.6503 0.0620084 11.4656C0.118155 11.6946 1.90396 13.5719 5.38417 17.0606C9.54726 21.2338 10.6808 22.4391 10.9093 22.9359L11.1966 23.561L11.2592 35.3116C11.3082 44.5357 11.3561 47.1226 11.4817 47.3424C11.8714 48.024 11.4108 47.9999 24.014 47.9999C36.6172 47.9999 36.1567 48.024 36.5463 47.3424C36.6587 47.1457 36.725 46.1685 36.7689 44.0622C36.8307 41.0972 36.8356 41.0531 37.1823 40.3119C37.4877 39.6592 38.206 38.888 42.7251 34.3613C47.5295 29.5488 47.922 29.1235 47.9838 28.6625C48.0271 28.3406 47.9829 28.0356 47.8591 27.8003C47.579 27.2677 43.5226 23.2898 43.0933 23.1268C42.3424 22.8419 42.0953 23.0142 39.3637 25.7267L36.7689 28.3034V14.7712C36.7689 3.35889 36.741 1.17251 36.5912 0.813866C36.2308 -0.0484348 36.9283 -0.00343208 23.989 0.00206824C13.9366 0.0064435 12.2749 0.0326947 11.9813 0.191954ZM16.8863 23.9985V45.1247H15.5108H14.1353V34.4593C14.1353 24.461 14.1208 23.7387 13.9025 22.9082C13.425 21.0897 13.1321 20.7243 8.08607 15.6514L3.45143 10.9921L4.41555 10.0282L5.37979 9.06423L8.6633 12.335C10.79 14.4534 12.0683 15.6357 12.2917 15.6907C12.8158 15.8196 13.4361 15.6552 13.7714 15.2986L14.0727 14.978L14.1075 8.92509L14.1421 2.87224H15.5143H16.8863V23.9985ZM22.0588 3.18C22.5796 3.66253 22.688 4.08156 22.4519 4.69984C22.0138 5.84654 20.4878 5.92504 19.9669 4.82773C19.7143 4.29557 19.7111 4.08393 19.9492 3.62366C20.2148 3.11025 20.6141 2.87224 21.21 2.87224C21.5856 2.87224 21.8173 2.95624 22.0588 3.18ZM28.2657 7.18737V11.5025L27.9218 11.4064C27.7327 11.3535 27.1686 11.3172 26.6683 11.3257C25.0688 11.3531 23.7407 12.2214 22.9895 13.7309C22.7462 14.2198 22.701 14.5059 22.701 15.5605C22.701 16.7122 22.7302 16.8632 23.0714 17.4791C23.5574 18.356 24.478 19.1692 25.3643 19.5045C25.96 19.7297 26.2574 19.7642 27.1715 19.7144L28.2657 19.6546V26.8793V34.1039L27.7967 33.9744C27.5389 33.9033 26.9618 33.8712 26.5145 33.9032C22.3193 34.2031 21.1503 39.8722 24.8745 41.8565C25.7283 42.3114 26.8605 42.4768 27.7342 42.2743L28.2657 42.1512V43.6379V45.1247H24.014H19.7624V37.9909V30.857L20.0298 30.9419C20.5523 31.1077 22.0659 31.0283 22.6385 30.8051C23.7678 30.365 24.7542 29.385 25.183 28.2775C25.3119 27.9442 25.3896 27.3763 25.3896 26.766C25.3896 25.9281 25.3355 25.6805 25.011 25.0313C24.5565 24.122 23.7426 23.3392 22.8052 22.9103C22.1865 22.6272 21.9941 22.5999 20.9389 22.646L19.7624 22.6974V15.4701V8.2428L20.1063 8.33893C20.2954 8.39181 20.8467 8.43431 21.3315 8.43344C22.901 8.43056 24.2859 7.52689 25.0386 6.01442C25.2834 5.52264 25.327 5.24088 25.327 4.15356V2.87211L26.7964 2.87224H28.2657V7.18737ZM33.8928 17.5101C33.8928 33.8254 33.8277 32.6366 34.7459 33.0723C35.5765 33.4663 35.6924 33.3827 39.2717 29.8079L42.5874 26.4965L43.5819 27.4966L44.5763 28.4965L39.8227 33.2792C35.5737 37.5542 35.0276 38.1492 34.6774 38.885C34.0315 40.2417 33.8928 41.0001 33.8928 43.1739V45.1247H32.5173H31.1418V23.9985V2.87224H32.5173H33.8928V17.5101ZM27.5254 14.3362C27.8885 14.5507 28.2657 15.1712 28.2657 15.5544C28.2657 15.8713 27.9233 16.4609 27.6133 16.6779C27.4601 16.7853 27.1167 16.8731 26.8504 16.8731C25.8621 16.8731 25.195 15.9554 25.5559 15.0922C25.9213 14.2177 26.7718 13.8913 27.5254 14.3362ZM21.9925 25.7043C22.153 25.8081 22.3683 26.0941 22.4711 26.34C22.6314 26.7235 22.6336 26.8504 22.4875 27.2345C22.3929 27.4828 22.1241 27.813 21.8837 27.9756C20.7303 28.7569 19.2685 27.3317 20.009 26.1477C20.4641 25.4202 21.2735 25.2392 21.9925 25.7043ZM27.5879 36.9849C28.428 37.497 28.436 38.7468 27.6024 39.2549C26.3998 39.9878 24.9937 38.8086 25.5849 37.563C25.9553 36.7829 26.8382 36.528 27.5879 36.9849Z" fill="#16A34A"/>
    </g>
    <defs>
        <clipPath id="clip0_1667_27106">
            <rect width="48" height="48" fill="white"/>
        </clipPath>
    </defs>
</svg>
