<svg width="48" height="48" viewBox="0 0 48 48" fill="none" xmlns="http://www.w3.org/2000/svg">
    <g clip-path="url(#clip0_1160_5897)">
        <path fill-rule="evenodd" clip-rule="evenodd" d="M33.3617 4.40107C33.2327 4.45153 25.6871 11.9302 16.5936 21.0204C3.31433 34.2947 0.0395632 37.6153 -0.0437269 37.8906C-0.21706 38.4633 -0.07618 38.8728 0.502536 39.4795C0.787486 39.7783 1.32249 40.2307 1.69148 40.4851C5.29753 42.9711 9.97078 43.0044 13.6178 40.5704C13.9444 40.3524 15.8845 38.4977 18.2402 36.1513C22.5712 31.8375 22.5814 31.8253 22.4391 31.0672C22.3892 30.8009 22.2081 30.5425 21.715 30.034L21.0575 29.3559L31.1718 21.2585C36.8027 16.7504 41.3799 13.0199 41.4978 12.8424C41.7263 12.4984 41.7675 12.0632 41.6113 11.6431C41.4807 11.2917 34.8078 4.59766 34.4199 4.42883C34.0744 4.27848 33.7004 4.26872 33.3617 4.40107ZM36.0798 9.87636C37.423 11.2206 38.1537 12.017 38.0956 12.0734C37.6605 12.4966 34.338 15.0638 34.2932 15.0113C34.2613 14.9738 33.4207 14.0633 32.4254 12.9876L30.6155 11.0321L32.2455 9.39998C33.142 8.50236 33.8975 7.76794 33.9243 7.76794C33.951 7.76794 34.9211 8.71677 36.0798 9.87636ZM30.0343 14.5681C30.6966 15.2903 31.4446 16.0964 31.6965 16.3593L32.1545 16.8374L25.6302 22.0574C22.0418 24.9283 19.0746 27.2773 19.0364 27.2773C18.9981 27.2773 18.4489 26.7607 17.8159 26.1292L16.665 24.981L22.6433 19.0023C27.2203 14.4248 28.6459 13.0507 28.7258 13.1392C28.7832 13.2029 29.372 13.8459 30.0343 14.5681ZM15.7751 34.6729C12.1911 38.236 11.7471 38.5927 10.2594 39.1045C9.21367 39.4642 8.25715 39.5996 7.23975 39.5317C5.98796 39.4482 4.4772 38.9764 3.70808 38.4287L3.42144 38.2246L9.03527 32.6102L14.649 26.996L16.8535 29.2026L19.0579 31.4092L15.7751 34.6729ZM17.8143 41.0648C16.8611 41.6459 16.9241 43.059 17.9235 43.5129C18.2711 43.6708 18.5796 43.6874 21.1683 43.6874C23.7571 43.6874 24.0656 43.6708 24.4132 43.5129C25.4126 43.059 25.4756 41.6459 24.5224 41.0648C24.2339 40.8888 24.045 40.8783 21.1683 40.8783C18.2916 40.8783 18.1027 40.8888 17.8143 41.0648ZM29.1795 41.055C28.6786 41.3605 28.4844 41.6906 28.4844 42.2364C28.4844 42.8196 28.7389 43.2552 29.2332 43.5178C29.531 43.6761 29.8178 43.6915 32.4631 43.6915C35.1743 43.6915 35.3915 43.6791 35.7535 43.5039C36.7447 43.024 36.8119 41.638 35.8716 41.0648C35.5832 40.8888 35.3942 40.8783 32.5176 40.8783C29.6971 40.8783 29.4475 40.8915 29.1795 41.055ZM40.6308 40.9661C40.312 41.0961 39.9322 41.5428 39.8357 41.9014C39.6523 42.5826 40.0992 43.4092 40.755 43.6018C40.9796 43.6678 42.1199 43.6929 44.0242 43.6739C46.8204 43.6459 46.9602 43.636 47.2133 43.4484C48.0951 42.7944 48.1142 41.6659 47.253 41.0906C46.9374 40.8797 46.9041 40.8777 43.8763 40.8835C42.1945 40.8868 40.734 40.924 40.6308 40.9661Z" fill="#16A34A"/>
    </g>
    <defs>
        <clipPath id="clip0_1160_5897">
            <rect width="48" height="48" fill="white"/>
        </clipPath>
    </defs>
</svg>
