<svg width="48" height="48" viewBox="0 0 48 48" fill="none" xmlns="http://www.w3.org/2000/svg">
    <g clip-path="url(#clip0_1160_4842)">
        <path fill-rule="evenodd" clip-rule="evenodd" d="M26.0198 0.0982393C25.47 0.352585 25.1285 0.899368 25.1285 1.52505V1.84733H24.4678C21.9976 1.84733 19.8474 3.19064 18.8361 5.36558C18.6441 5.77838 18.4383 6.34834 18.3788 6.63215C18.2611 7.1931 18.2346 8.61316 18.334 9.03994C18.4946 9.72989 22.3465 23.1604 22.5137 23.6136C23.2765 25.6804 24.992 27.8166 26.8728 29.0417L27.6257 29.532L29.6726 34.3616L31.7194 39.1912L31.6747 40.2449C31.6241 41.4367 31.4278 42.117 30.911 42.8899C29.7271 44.6609 27.6185 45.5221 25.6201 45.0509C23.9268 44.6517 22.4944 43.304 21.9312 41.5801C21.8382 41.295 21.7952 39.7622 21.7527 35.2003L21.6967 29.1959L21.4374 28.3561C20.6136 25.689 18.6871 23.7034 16.1218 22.8778C11.9172 21.5248 7.36735 23.8807 6.00406 28.1169C5.68966 29.0939 5.61545 29.8208 5.6147 31.9297L5.61395 33.9128L5.29618 33.9725C4.76835 34.0715 3.82349 34.4924 3.17604 34.9168C-0.02857 37.0178 -0.959921 41.293 1.08179 44.5305C2.01333 46.0076 3.69411 47.2113 5.42631 47.642C6.09272 47.8076 7.94979 47.8076 8.61619 47.642C11.187 47.0028 13.2365 44.9536 13.8815 42.3776C14.0696 41.6263 14.0456 39.7533 13.8388 39.047C13.4552 37.7367 12.9609 36.8706 12.052 35.9165C11.1717 34.9922 9.7759 34.1657 8.78028 33.9789L8.42855 33.9128V32.0172C8.42855 29.7868 8.5067 29.2633 8.98997 28.2562C9.77252 26.6255 11.4282 25.4891 13.2456 25.3355C14.7394 25.2093 16.2657 25.7601 17.322 26.8066C17.9791 27.4576 18.2928 27.9433 18.6457 28.8562L18.8859 29.4773L18.9402 35.5287C18.9933 41.4568 18.9988 41.5944 19.2058 42.2801C19.4881 43.215 20.1385 44.4507 20.7233 45.1628C22.4326 47.2443 25.2947 48.3323 27.9431 47.9075C29.8379 47.6036 31.7238 46.4943 32.8592 45.0158C33.9821 43.5535 34.505 42.0195 34.5097 40.1728L34.512 39.2346L36.5803 34.356C37.7178 31.6727 38.692 29.4621 38.7451 29.4435C38.7981 29.4249 39.1653 29.1933 39.5609 28.9288C40.4747 28.3183 41.8273 26.9694 42.4702 26.0279C43.4854 24.541 43.6588 24.0463 45.8724 16.3215C47.6691 10.0516 47.9433 9.00898 47.9879 8.274C48.0948 6.51478 47.4907 4.95821 46.2002 3.66772C44.9838 2.45134 43.5375 1.85286 41.805 1.84892L41.0779 1.84733V1.46904C41.0779 0.585916 40.5389 0.0178355 39.7009 0.0178355C39.1762 0.0178355 38.8577 0.189714 38.5037 0.663786C38.3204 0.909219 38.3102 1.04592 38.3102 3.25463C38.3102 5.46334 38.3204 5.60003 38.5037 5.84547C38.8577 6.31954 39.1762 6.49142 39.7009 6.49142C40.5433 6.49142 41.0779 5.92362 41.0779 5.02876V4.63894L41.8988 4.67891C42.8537 4.72535 43.5376 4.98945 44.1608 5.55256C44.6904 6.03095 45.1201 6.93106 45.1809 7.68931C45.2263 8.25382 45.115 8.68633 43.1982 15.3944C42.0812 19.3033 41.0465 22.768 40.8988 23.0938C39.6151 25.925 36.768 27.8755 33.6116 28.0862C30.2279 28.3122 26.8531 26.2993 25.4046 23.1914C25.1708 22.6899 24.3976 20.1365 23.0745 15.4975C20.8964 7.86044 20.8917 7.83736 21.285 6.78601C21.499 6.21408 22.0769 5.50527 22.5966 5.17719C23.0905 4.86542 23.8515 4.66193 24.5237 4.66193H25.1047L25.1504 5.13797C25.1987 5.64084 25.3944 5.97916 25.8214 6.29796C26.1987 6.5797 26.9496 6.56441 27.3673 6.26634C27.9008 5.8859 27.9431 5.66467 27.9431 3.25463C27.9431 0.856211 27.8993 0.622036 27.3823 0.253887C27.0158 -0.00702677 26.3996 -0.0774856 26.0198 0.0982393ZM33.1032 30.9178C33.5934 30.9178 34.2192 30.8858 34.4938 30.8468C34.924 30.7856 34.9878 30.7963 34.9541 30.924C34.8412 31.3524 33.1441 35.2306 33.0945 35.1736C33.0498 35.1222 31.4585 31.4 31.259 30.8799C31.2311 30.8073 31.367 30.7976 31.7156 30.8472C31.9885 30.886 32.613 30.9178 33.1032 30.9178ZM7.88449 36.6653C8.69725 36.8363 9.36994 37.207 9.98071 37.8205C12.4003 40.2512 11.0813 44.3465 7.6916 44.9278C7.16254 45.0185 6.87996 45.0185 6.35091 44.9278C2.95735 44.3458 1.6297 40.2227 4.06311 37.823C5.12149 36.7792 6.47569 36.369 7.88449 36.6653ZM6.34209 39.5688C5.94598 39.7779 5.61395 40.3314 5.61395 40.7826C5.61395 41.4761 6.32417 42.1899 7.01431 42.1899C7.73494 42.1899 8.42855 41.4997 8.42855 40.7826C8.42855 40.3171 8.09671 39.7766 7.68043 39.5642C7.21818 39.3284 6.79477 39.3298 6.34209 39.5688Z" fill="#16A34A"/>
    </g>
    <defs>
        <clipPath id="clip0_1160_4842">
            <rect width="48" height="48" fill="white"/>
        </clipPath>
    </defs>
</svg>
