<svg width="48" height="48" viewBox="0 0 48 48" fill="none" xmlns="http://www.w3.org/2000/svg">
    <g clip-path="url(#clip0_1160_496)">
        <path fill-rule="evenodd" clip-rule="evenodd" d="M9.48474 0.0238394C7.82867 0.347605 6.66599 0.930307 5.54214 1.99974C2.73643 4.66979 0.806786 8.46885 0.139085 12.6375C-0.0750074 13.9744 -0.0750074 16.916 0.139085 18.253C0.800594 22.3832 2.56559 25.9137 5.3485 28.6735C6.467 29.7827 7.28462 30.2833 8.59347 30.66C9.55942 30.9381 11.3528 30.9582 12.2993 30.7016C14.6643 30.0604 16.5528 28.2272 17.2878 25.859C17.6035 24.8415 17.6035 22.9361 17.2878 21.9187C17.0088 21.0199 16.5427 20.1633 15.8951 19.3594L15.3828 18.7234L15.8112 18.2469C16.0468 17.9848 16.3344 17.5638 16.4502 17.3115L16.6607 16.8525H17.6336C18.7821 16.8525 19.2337 17.0354 19.5329 17.622C19.7016 17.9527 19.7109 18.2553 19.7109 23.4469V28.9229L19.2199 29.15C18.381 29.5382 17.1595 30.398 16.4857 31.0746C14.2846 33.2851 13.5497 36.1919 14.5006 38.9262C14.8926 40.0534 15.462 40.9357 16.4273 41.9118C17.3411 42.8358 17.9044 43.2461 19.0541 43.825L19.7109 44.1558V45.5187C19.7109 47.1251 19.83 47.4903 20.459 47.8111C20.808 47.9891 21.0074 48 23.9327 48C26.8579 48 27.0574 47.9891 27.4064 47.8111C28.0353 47.4903 28.1545 47.1251 28.1545 45.5187V44.1558L28.8113 43.825C29.9609 43.2461 30.5242 42.8358 31.4381 41.9118C32.4034 40.9357 32.9728 40.0534 33.3647 38.9262C34.3157 36.1919 33.5807 33.2851 31.3797 31.0746C30.7059 30.398 29.4843 29.5382 28.6454 29.15L28.1545 28.9229V23.4469C28.1545 18.2553 28.1638 17.9527 28.3325 17.622C28.6316 17.0354 29.0833 16.8525 30.2318 16.8525H31.2047L31.4152 17.3115C31.531 17.5638 31.8185 17.9848 32.0542 18.2469L32.4826 18.7234L31.9702 19.3594C31.3226 20.1633 30.8565 21.0199 30.5776 21.9187C30.2618 22.9361 30.2618 24.8415 30.5776 25.859C31.3126 28.2272 33.201 30.0604 35.5661 30.7016C36.5125 30.9582 38.3059 30.9381 39.2719 30.66C40.5807 30.2833 41.3984 29.7827 42.5169 28.6735C45.2998 25.9137 47.0648 22.3832 47.7263 18.253C47.9404 16.916 47.9404 13.9744 47.7263 12.6375C47.3983 10.59 46.8492 8.84928 45.9478 7.00013C44.6474 4.33251 42.437 1.70552 40.7578 0.831892C39.548 0.202468 38.7379 0.0118307 37.3017 0.0186794C36.1802 0.024027 36.0104 0.0489825 35.1908 0.328747C34.1575 0.681502 33.6727 0.944004 32.8923 1.57324C31.8404 2.42135 30.9963 3.68245 30.5776 5.03146C30.2618 6.04891 30.2618 7.95435 30.5776 8.9718C30.8565 9.87058 31.3226 10.7271 31.9702 11.5311L32.4826 12.167L32.0542 12.6435C31.8185 12.9057 31.531 13.3266 31.4152 13.579L31.2047 14.038H30.2552C29.0791 14.038 28.4645 14.1506 27.7071 14.5051C26.5824 15.0314 25.6775 16.2242 25.4357 17.499C25.3779 17.8034 25.3399 20.0199 25.3399 23.0807V28.1575H23.9327H22.5254V23.0807C22.5254 20.0199 22.4874 17.8034 22.4296 17.499C22.1101 15.814 20.7493 14.4533 19.0644 14.1338C18.7867 14.081 18.1322 14.038 17.6101 14.038H16.6607L16.4502 13.579C16.3344 13.3266 16.0468 12.9057 15.8112 12.6435L15.3828 12.167L15.8951 11.5311C16.5427 10.7271 17.0088 9.87058 17.2878 8.9718C17.6035 7.95435 17.6035 6.04891 17.2878 5.03146C16.751 3.30193 15.5305 1.76519 13.988 0.876268C13.7558 0.742484 13.1682 0.500058 12.6822 0.337566C11.9503 0.0927954 11.6204 0.0365986 10.759 0.0100482C10.1872 -0.00758958 9.61374 -0.00139761 9.48474 0.0238394ZM11.2775 2.87562C13.6912 3.33336 15.209 5.71811 14.5929 8.08429C14.4055 8.80415 14.1547 9.2237 13.3301 10.1969C11.5913 12.2493 11.4641 13.3842 12.8996 14.0372C13.6106 14.3607 13.8555 14.5907 13.9992 15.0701C14.0864 15.3615 14.0864 15.529 13.9992 15.8203C13.8555 16.2997 13.6106 16.5298 12.8996 16.8532C11.4821 17.498 11.597 18.6605 13.2717 20.6207C14.0709 21.5561 14.4163 22.128 14.594 22.8103C15.3579 25.7433 12.8736 28.4958 9.88169 28.0311C8.7889 27.8614 8.10609 27.498 7.26117 26.6366C5.32815 24.6656 3.88701 22.0661 3.21546 19.3387C2.89217 18.0257 2.78184 17.0349 2.78184 15.4452C2.78184 12.8571 3.22447 10.8207 4.27842 8.56088C5.2757 6.42249 7.27805 3.8911 8.4368 3.3039C9.35237 2.83997 10.3201 2.69399 11.2775 2.87562ZM38.3589 2.92131C39.2863 3.1399 39.8481 3.48018 40.6605 4.31516C42.5426 6.24968 43.9974 8.88812 44.6507 11.5518C44.9736 12.8687 45.0835 13.8575 45.0835 15.4452C45.0835 17.9886 44.6528 20.0077 43.6325 22.247C42.6056 24.5008 40.5533 27.0558 39.2983 27.6429C35.9536 29.2072 32.3565 26.3229 33.2714 22.8103C33.4491 22.128 33.7944 21.5561 34.5937 20.6207C36.2684 18.6605 36.3832 17.498 34.9657 16.8532C34.2732 16.5382 34.0242 16.3124 33.8768 15.8658C33.6298 15.1171 34.0202 14.4579 34.9611 14.0358C36.4024 13.3891 36.2762 12.252 34.5352 10.1969C33.7107 9.2237 33.4599 8.80415 33.2724 8.08429C32.4693 4.99993 35.2413 2.18625 38.3589 2.92131ZM26.0436 31.1995C26.4564 31.3056 27.1952 31.5891 27.6854 31.8296C28.4125 32.1862 28.7169 32.4067 29.3382 33.0267C30.5164 34.2025 31.0493 35.4566 30.9367 36.7888C30.766 38.8117 29.5678 40.3672 27.4221 41.3516C25.322 42.3151 25.3977 42.2208 25.3562 43.9254L25.3254 45.1855H23.9327H22.54L22.5092 43.9254C22.4676 42.2208 22.5433 42.3151 20.4432 41.3516C18.2976 40.3672 17.0994 38.8117 16.9286 36.7888C16.8159 35.4545 17.3499 34.1993 18.5272 33.0309C19.5879 31.9783 20.7847 31.3783 22.4637 31.0575C23.3767 30.883 25.0742 30.9504 26.0436 31.1995Z" fill="#16A34A"/>
    </g>
    <defs>
        <clipPath id="clip0_1160_496">
            <rect width="48" height="48" fill="white"/>
        </clipPath>
    </defs>
</svg>
