<svg width="48" height="48" viewBox="0 0 48 48" fill="none" xmlns="http://www.w3.org/2000/svg">
    <g clip-path="url(#clip0_1667_27146)">
        <path fill-rule="evenodd" clip-rule="evenodd" d="M12.391 0.0648544C10.1316 0.370205 7.38302 1.80594 5.51873 3.65457C2.90802 6.24335 1.23822 9.49216 0.344653 13.7211C0.0401994 15.1615 0.00751229 15.5751 0.000373731 18.0673C-0.00826768 21.0828 0.129118 22.1859 0.813293 24.5973C1.57086 27.2672 2.74722 29.4684 4.75027 31.9639C6.43021 34.0568 7.21382 35.4332 7.74408 37.2221C8.89 41.0886 9.60035 42.5361 11.3479 44.566C12.5159 45.9227 14.5282 47.2257 16.2734 47.7554C17.4108 48.1005 20.1109 48.076 21.2417 47.71C23.5438 46.9651 25.7406 45.2578 27.1653 43.106C28.2753 41.4299 29.3188 38.874 29.4508 37.5083C29.5176 36.8177 29.5045 36.7774 29.0772 36.3502C28.5969 35.8701 28.0455 35.7704 27.4272 36.052C26.9842 36.2538 26.7993 36.5831 26.485 37.729C25.9089 39.8299 24.4584 42.283 23.1428 43.381C21.5994 44.6693 20.3369 45.174 18.6711 45.1687C16.776 45.1627 15.1813 44.3907 13.5794 42.7036C12.7826 41.8646 12.4746 41.4149 11.9066 40.2623C11.5076 39.4529 11.0179 38.1813 10.7597 37.2847C9.99348 34.624 9.04793 32.7317 7.56962 30.8997C5.4362 28.256 4.74213 27.1425 4.04606 25.2469C3.1233 22.7336 2.87295 21.2283 2.87295 18.1924C2.87295 15.3111 3.03589 14.2206 3.82526 11.8158C4.77845 8.9125 6.49396 6.38444 8.62738 4.73901C9.51031 4.05807 11.0908 3.30302 12.1731 3.04512C13.5694 2.71248 15.4516 2.82065 16.8578 3.31429C18.8468 4.01263 20.9851 5.73318 22.3365 7.72278C23.4082 9.30023 24.47 11.8166 24.8523 13.6854C25.0527 14.665 25.2745 15.0781 25.7247 15.3108C26.4862 15.7045 27.4166 15.3872 27.7318 14.6265C27.9439 14.1146 27.7746 13.167 27.1053 11.1189C25.6537 6.6769 23.0583 3.32192 19.556 1.36025C18.6244 0.838433 16.9016 0.253523 15.8471 0.101035C15.0383 -0.0158966 13.1363 -0.0358023 12.391 0.0648544ZM12.3788 7.22976C10.0602 7.59783 7.94208 9.02856 6.49671 11.2027C5.7543 12.3197 5.98411 13.4501 7.01144 13.7336C7.77 13.943 8.25016 13.7131 8.82664 12.8645C9.78583 11.4525 10.786 10.6704 12.185 10.2381C14.7202 9.45485 17.3565 10.7755 18.5234 13.4133C18.7888 14.0133 18.9332 14.6245 18.8095 14.6243C18.7923 14.6243 18.4682 14.5033 18.0893 14.3556C17.0963 13.9682 14.876 13.8832 13.7282 14.1887C10.6849 14.9985 8.33345 17.4291 7.43261 20.6963C7.043 22.1094 7.04638 24.1853 7.4405 25.5789C8.31128 28.6576 10.5177 30.919 13.3556 31.6414L14.2696 31.8741L14.2278 33.1083C14.2048 33.7872 14.2506 34.6243 14.3293 34.9684C14.701 36.5931 15.7864 37.9866 17.1854 38.6362C18.6419 39.3123 20.5108 39.0001 21.9211 37.8449C23.0459 36.9235 24.111 34.7281 23.9219 33.7206C23.7318 32.7078 22.3313 32.2737 21.6029 33.002C21.4029 33.2018 21.1636 33.6597 21.044 34.0713C20.8205 34.8392 20.187 35.6626 19.5765 35.9783C18.7748 36.3927 17.8908 36.0138 17.374 35.034C17.0988 34.5126 17.0808 34.3557 17.1141 32.7805C17.1483 31.1727 17.1343 31.0595 16.837 30.53C16.4052 29.7611 15.6277 29.1995 14.7419 29.0168C13.4155 28.7431 12.7269 28.4086 11.9012 27.6364C11.0715 26.8606 10.4845 25.8994 10.186 24.8278C9.96179 24.0233 9.96179 22.2516 10.1861 21.4475C10.6392 19.822 11.8834 18.1724 13.1943 17.4593C14.1113 16.9603 15.4303 16.7115 16.3033 16.8729C17.0462 17.0101 18.2569 17.5153 18.6112 17.8358C18.815 18.0201 18.8135 18.0645 18.5855 18.6427C18.2751 19.43 17.7987 20.1888 17.2092 20.8346C16.9512 21.1173 16.7002 21.4742 16.6515 21.6279C16.5005 22.1033 16.6951 22.7258 17.1013 23.0675C17.9091 23.747 18.4911 23.6136 19.4992 22.5182C21.5796 20.2574 22.4379 16.7542 21.6531 13.7266C20.8728 10.7162 18.7163 8.35701 15.9584 7.49667C15.0324 7.20785 13.3205 7.08015 12.3788 7.22976ZM36.0497 13.1085C35.5481 13.4143 34.1358 15.1791 33.434 16.3771C30.6853 21.0693 30.6853 26.9587 33.434 31.6509C34.1358 32.8489 35.5481 34.6138 36.0497 34.9195C37.122 35.5733 38.4281 34.6908 38.1985 33.4676C38.1436 33.1745 37.8495 32.7268 37.3215 32.1323C36.024 30.6714 35.0722 28.8533 34.5462 26.8309C34.2244 25.5936 34.2244 22.4344 34.5462 21.1971C35.0722 19.1747 36.024 17.3566 37.3215 15.8958C37.8495 15.3012 38.1436 14.8535 38.1985 14.5604C38.4281 13.3373 37.122 12.4548 36.0497 13.1085ZM40.3645 17.9742C39.8263 18.33 39.0201 19.3829 38.5681 20.3208C37.9493 21.6043 37.7096 22.6357 37.7096 24.014C37.7096 25.9175 38.3811 27.8527 39.5124 29.2096C40.1874 30.0191 40.5831 30.2719 41.1769 30.2729C41.5589 30.2736 41.7477 30.1852 42.0849 29.8481C42.4388 29.4943 42.5107 29.3304 42.5107 28.877C42.5107 28.4157 42.4237 28.2254 41.9478 27.6454C40.1006 25.3944 40.1006 22.6336 41.9478 20.3826C42.4237 19.8026 42.5107 19.6123 42.5107 19.1511C42.5107 18.6976 42.4388 18.5337 42.0849 18.1799C41.7477 17.8428 41.5589 17.7544 41.1769 17.7551C40.9118 17.7555 40.5461 17.8542 40.3645 17.9742ZM45.9548 20.826C45.0906 21.2859 44.3952 22.7076 44.3952 24.014C44.3952 24.9074 44.7512 25.959 45.279 26.625C46.2183 27.81 47.8315 27.5122 47.9832 26.1258C48.0337 25.6652 47.9825 25.4901 47.6587 25.0156C47.4103 24.6514 47.2743 24.2972 47.2743 24.014C47.2743 23.7308 47.4103 23.3766 47.6587 23.0125C47.9825 22.538 48.0337 22.3628 47.9832 21.9022C47.8732 20.896 46.8465 20.3514 45.9548 20.826Z" fill="#16A34A"/>
    </g>
    <defs>
        <clipPath id="clip0_1667_27146">
            <rect width="48" height="48" fill="white"/>
        </clipPath>
    </defs>
</svg>
